<svg xmlns="http://www.w3.org/2000/svg" width="4000" height="2250" viewBox="0 0 4000 2250">
  <defs>
    <style>
      .cls-1 {
        fill-rule: evenodd;
        mix-blend-mode: color;
      }
    </style>
  </defs>
  <path id="Color_Fill_2" data-name="Color Fill 2" class="cls-1" d="M399.821,803.275c-25.6-4.725-61.71-3.071-92.14-3.071H149.506c-25.292,0-55.686,2.516-78.32-1.536a19.494,19.494,0,0,1-1.536-7.679h1.536L74.258,774.1h1.536l-1.536-7.678h1.536v-3.072l3.072-1.535V749.526H80.4l1.536-6.142h1.536V729.562h1.536v-3.071h1.536l1.536-15.357h1.536v-6.143H91.15v-6.142h1.535v-4.607h1.536l1.535-12.286h1.536V666.6l3.072-1.536v-3.072H101.9V651.243h1.535v-4.607h1.536v-3.072h1.536c0.667-2.5-1.5-2.851-1.536-3.071q1.536-8.445,3.071-16.892h1.536v-3.072h1.536q0.768-3.838,1.535-7.678h1.536l-1.536-7.679h1.536v-4.607h1.536v-6.143h1.535l1.536-13.821h1.536V568.316h1.535v-3.071H123.4q2.3-6.91,4.607-13.822V537.6h1.536l1.536-6.142h1.535V520.71h1.536v-3.072h1.536V505.353h1.535q0.768-6.143,1.536-12.285a33.636,33.636,0,0,0,7.678-6.143H1219.87q0.78,2.3,1.54,4.607c2.64,2.888,1.62,8.976,0,12.285h-1.54v3.072h-1.53V520.71h-1.54v3.071h-1.53v7.679h-1.54V537.6h-1.53v6.143h-1.54v12.286c-1.02.511-2.05,1.023-3.07,1.535v10.75h-1.54v4.607h-1.53v3.071h-1.54V588.28h-1.53v4.607h-1.54q-0.765,6.909-1.54,13.821h-1.53v7.678h-1.54c-0.38,1.839,2.73,2.655,1.54,6.143h-1.54l-1.53,6.143h-1.54v10.749h-1.53v3.072h-1.54V645.1h-1.53v12.285h-1.54v4.607h-1.54l-1.53,13.822h-1.54v6.142h-1.53V688.1h-1.54v4.607h-1.53q-1.545,9.981-3.08,19.964h-1.53l1.53,7.678h-1.53v6.143h-1.54l-1.53,10.75h-1.54v3.071h-1.53v4.607h-1.54c-0.59,2.519,1.49,2.808,1.54,3.071q-0.78,4.608-1.54,9.215h-1.54q-3.06,18.426-6.14,36.856-2.295,1.536-4.61,3.071l-1.53,3.072H828.276v1.535l-7.678,1.536-1.536,4.607h-1.536v3.071h-1.535v12.286h-1.536v3.071h-1.536v7.679h-1.535v6.142h-1.536v6.143h-1.536v12.285h-1.535v3.072h-1.536v4.607h-1.536v1.535h1.536l-1.536,7.679H802.17v3.071h-1.536v13.821H799.1v4.608h-1.535v6.142h-1.536v6.143h-1.536v6.143h-1.535v12.285l-3.072,1.536v10.75h-1.536v4.606h-1.535v3.072h-1.536V961.45h-1.536v3.071h-1.535V972.2H780.67v6.142h-1.536v7.679H777.6q0.768,3.839,1.535,7.678H777.6v3.072l-3.072,1.535v10.754h-1.535v4.6h-1.536v3.07H769.92v13.83h-1.535v3.07h-1.536v7.68h-1.536v6.14h-1.535v6.14h-1.536c-1.014,3.45,1.7,6.86,1.536,7.68h-1.536c-0.512,2.05-1.024,4.09-1.536,6.14H759.17v10.75h-1.535v4.61l-3.072,1.53v13.83h-1.535v4.6h-1.536q-0.768,6.915-1.536,13.82h-1.535v13.82h-1.536v3.08l-3.071,1.53v12.29h-1.536q-0.768,3.06-1.535,6.14h-1.536v6.14h1.536q-0.768,3.075-1.536,6.15h1.536v3.07c1.982,2.87,12.234,1.53,16.892,1.53h50.677c1.344,3.56,1.563,6.77,1.536,12.29h-1.536v10.75h-1.535q-0.768,3.06-1.536,6.14h-1.536c-0.461,1.69,2.568,2.72,1.536,6.14h-1.536v4.61H802.17v3.07h-1.536v13.82H799.1v3.07h-1.535v7.68h-1.536v6.15h-1.536v4.6h-1.535v12.29H791.42v3.07h-1.536v10.75h-1.536v4.61h-1.535v3.07h-1.536v12.28h-1.536v3.07h-1.535v7.68H780.67q-0.768,6.915-1.536,13.82H777.6q0.768,3.84,1.535,7.68H777.6q-0.768,3.075-1.536,6.14h-1.536v10.75h-1.535v3.08h-1.536v4.6H769.92v12.29h-1.535v4.61h-1.536v7.67h-1.536v6.15h-1.535v6.14h-1.536l1.536,7.68h-1.536q-0.768,3.06-1.536,6.14H759.17v10.75h-1.535q-0.768,3.075-1.536,6.14h-1.536v13.82h-1.535v4.61h-1.536q-0.768,6.915-1.536,13.82h-1.535v13.82h-1.536v3.07c-1.024.52-2.048,1.03-3.071,1.54v10.75h-1.536q-0.768,4.6-1.535,9.21h-1.536q0.766,3.075,1.536,6.15h-1.536v6.14h-1.536v4.61h-1.536v6.14H734.6v6.14h-1.536v13.82h-1.536q-0.766,3.075-1.536,6.15h-1.535v12.28h-1.536q-0.768,3.075-1.535,6.14H723.85c-1.217,3.54,1.619,4.13,1.536,6.15H723.85v6.14h-1.536l-1.535,13.82h-1.536v4.61h-1.536v13.82h-1.535c-0.512,2.05-1.024,4.09-1.536,6.14H713.1v10.75h-1.535v3.07h-1.536v12.29h-1.536q-1.536,8.445-3.071,16.89h-1.536v6.14H702.35v13.82h-1.535l-1.536,6.15h-1.536v10.75h-1.535v3.07h-1.536v12.28h-1.536v4.61H691.6v7.68h-1.536v6.14h-1.536v4.61h-1.535v9.21h1.535c-0.512,1.03-1.024,2.05-1.535,3.07-9.383,3.78-24.7,3.08-38.393,3.08H300c-12.909,0-26.6.42-35.32-3.08-0.512-1.53-1.024-3.07-1.536-4.6,2.972-2.76,1.324-2.86,3.071-6.15h1.536v-3.07h1.536v-10.75h1.536v-3.07h1.535v-12.28H273.9v-4.61h1.535v-7.68c2.937-8.99,6.283-20.19,9.214-29.18v-7.68h1.536v-4.6h1.536v-13.82c1.024-.52,2.048-1.03,3.071-1.54v-3.07h1.536v-12.29h1.536v-3.07H295.4v-12.28h1.536v-4.61h1.536v-6.14H300v-7.68h1.536v-4.61h1.536V1561.9l3.071-1.53v-4.61h1.536v-1.54c-0.5-.81-2.721-1.1-1.536-4.6h1.536v-3.08h1.535v-4.6h1.536v-12.29h1.536v-4.61h1.535q0.768-6.9,1.536-13.82c2.291-7.03,5.346-15.67,7.679-23.03v-7.68h1.535v-6.14h1.536v-10.75h1.536q0.767-3.075,1.535-6.15h1.536q-0.768-3.825-1.536-7.67h1.536v-3.08h1.536v-4.6h1.535v-12.29h1.536v-3.07h1.536v-7.68h1.535v-6.14h1.536v-6.14h1.536v-12.29H343c0.512-2.05,1.024-4.09,1.536-6.14h1.536v-6.14h1.535v-6.15h1.536V1363.8c1.024-.51,2.048-1.03,3.072-1.54v-12.28h1.535l1.536-6.15h1.536v-13.82h1.535v-3.07h1.536v-7.68h1.535v-6.14h1.536v-15.36l3.071-1.53v-3.07h1.536v-10.75h1.536v-4.61h1.535v-3.07h1.536q-0.766-3.84-1.536-7.68h1.536v-6.14h1.536v-4.61h1.536q0.767-6.135,1.535-12.28h1.536v-6.15h1.536v-6.14h1.535v-6.14h1.536v-7.68h1.536v-4.61H386v-13.82h1.536q0.768-3.075,1.536-6.14h1.535v-10.75h1.536c1.448-3.44,1.355-5.91,1.536-10.75-4.012-2.12-2.6-2.72-9.214-3.07-2.957-2.63-11.476-1.54-16.893-1.54h-43a20.437,20.437,0,0,0-4.607-6.14q2.3-9.99,4.607-19.97h1.536v-12.28c1.023-.51,2.047-1.02,3.071-1.54v-4.6h1.536v-1.54a3.837,3.837,0,0,1-1.536-4.61h1.536v-4.6h1.536v-3.07h1.535v-13.83h1.536v-3.07h1.536q0.768-6.9,1.535-13.82c3.813-11.12,7.352-25.44,10.75-36.85,1.012-3.4-1.7-6.94-1.536-7.68h1.536l1.536-6.15h1.536v-10.75h1.535v-4.6h1.536v-3.07h1.536V996.771h1.535v-4.607h1.536v-7.679h1.535v-6.143h1.536v-7.678H364.5v-4.607h1.535V961.45h1.536v-6.143h1.536v-7.678h1.535V933.808h1.536l1.536-6.143h1.536v-10.75h1.535l1.536-6.142h1.536V896.952c4.736-15.464,9.071-33.585,13.821-49.142V833.989h1.535v-3.072l3.072-1.535v-10.75h1.535C401.993,812.5,400.754,808.9,399.821,803.275ZM3205.51,491.532c-0.51,3.071-1.03,6.143-1.54,9.214h-1.53V516.1c-1.03.512-2.05,1.024-3.07,1.535v3.072h-1.54v10.75h-1.54v4.607h-1.53v3.071h-1.54c0.51,2.559,1.03,5.119,1.54,7.679h-1.54v6.142h-1.53v4.607h-1.54v7.679h-1.53v4.607h-1.54v6.142h-1.54v6.143h-1.53v6.143h-1.54v7.678h-1.53v4.607h-1.54v13.821h-1.53q-0.78,3.072-1.54,6.143h-1.54v10.75h-1.53v3.071h-1.54v12.286h-1.53v4.607h-1.54q-0.765,6.909-1.53,13.821c-2.23,6.851-5.43,16.062-7.68,23.035v7.678h-1.54v4.608h-1.53v13.82c-1.03.512-2.05,1.024-3.07,1.536v4.607h-1.54V731.1h-1.54v3.071h-1.53v12.286h-1.54v4.607h-1.53v6.143h-1.54l-1.53,13.821h-1.54v4.607h-1.54v4.607h-1.53q-0.765,7.677-1.54,15.357h-1.53V800.2h-1.54v12.285h-1.53q-0.78,3.07-1.54,6.143h-1.54v15.357l7.68-1.536v-1.536h3.07v-1.535c2.77-2.194,3.67-3.465,7.68-4.608,0.91-3.512,1.34-3.741,3.07-6.142h1.54v-4.607c2.05-1.536,4.09-3.072,6.14-4.607v-3.072c1.54-.511,3.07-1.023,4.61-1.535v-1.536c2.74-2.418,3.38-1.8,4.61-6.143h3.07q2.295-4.606,4.6-9.214h3.08v-1.535c1.02-.512,2.04-1.024,3.07-1.536v-3.072c1.53-.511,3.07-1.023,4.6-1.535q0.78-2.3,1.54-4.607h1.54l1.53-3.072h3.07c0.51-1.023,1.03-2.047,1.54-3.071h1.53v-3.071c3.14-3.9,5.56.136,7.68-7.679h3.07q2.31-3.838,4.61-7.678h3.07v-1.536c1.03-.512,2.05-1.024,3.07-1.536v-3.071l6.15-4.607v-3.071q9.975-9.213,19.96-18.428v-3.072c1.54-1.024,3.07-2.048,4.61-3.071V709.6q7.68-6.911,15.35-13.822V691.17q2.31-.766,4.61-1.535,2.31-3.84,4.61-7.679h3.07c0.51-1.023,1.02-2.047,1.54-3.071h1.53v-3.071q3.075-1.536,6.14-3.072,0.78-2.3,1.54-4.607,2.295-.768,4.61-1.535l1.53-3.072h1.54v-3.071l7.68-4.607v-3.072q3.84-2.3,7.67-4.607V645.1l6.15-4.607v-3.072c1.53-1.023,3.07-2.047,4.6-3.071q5.385-6.143,10.75-12.285,2.31-1.536,4.61-3.072v-3.071h1.54a19.713,19.713,0,0,0,4.6-9.214h3.08c1.86-3.268,3.45-3.343,4.6-7.678h3.07c3.46-5.886,8.97-7.449,10.75-15.357h3.07q2.31-3.838,4.61-7.679h3.07v-1.535c1.03-.512,2.05-1.024,3.07-1.536q0.78-2.3,1.54-4.607c4.06-3.263,6.02-1.646,7.68-7.679,4.49-1.05,5.03-1.709,6.14-6.142h3.07c0.73-1.272,5.25-8.486,6.15-9.214h3.07v-1.536c1.02-.512,2.04-1.024,3.07-1.536v-3.071c2.05-1.535,4.09-3.071,6.14-4.607V531.46c1.02-.512,2.05-1.024,3.07-1.536l7.68-9.214c5.8-5.8,13.21-10.562,15.36-19.964h3.07c1.86-3.268,3.46-3.343,4.61-7.678q3.06-.768,6.14-1.536V490h474.52a16.285,16.285,0,0,1,1.54,6.143q-6.15,3.838-12.29,7.678l-1.53,4.607h-3.07v1.536c-1.03.512-2.05,1.024-3.07,1.536q-0.78,2.3-1.54,4.607h-3.07q-2.31,3.839-4.61,7.678h-3.07v1.536c-1.02.512-2.05,1.024-3.07,1.536v3.071c-1.54.512-3.07,1.024-4.61,1.536q-2.3,3.838-4.61,7.678h-3.07v1.536c-1.02.512-2.04,1.024-3.07,1.535v3.072q-25.335,26.1-50.68,52.213-9.975,9.213-19.96,18.428v3.071q-2.3,1.536-4.61,3.072v3.071h-1.53c-2.93,3.5-6.32,5.72-7.68,10.75h-3.07c-1.86,3.268-3.46,3.343-4.61,7.678h-3.07c-1.86,3.268-3.46,3.343-4.61,7.679h-3.07c-1.86,3.267-3.46,3.343-4.61,7.678h-3.07q-2.295,3.838-4.6,7.679h-3.08v1.535c-1.02.512-2.04,1.024-3.07,1.536l-1.53,4.607c-4.06,3.262-6.03,1.645-7.68,7.678h-3.07c-3.46,5.886-8.97,7.449-10.75,15.357h-3.07q-2.31,3.838-4.61,7.678h-3.07v1.536c-1.03.512-2.05,1.024-3.07,1.536v3.071c-1.03.512-2.05,1.024-3.07,1.536v1.535h-3.08q-2.295,3.84-4.6,7.679h-3.07q-0.78,2.3-1.54,4.607c-1.54.512-3.07,1.024-4.61,1.536L3700,731.1h-1.54v3.071l-7.68,4.607v3.072c-1.53.512-3.07,1.024-4.6,1.536-0.52,1.023-1.03,2.047-1.54,3.071h-1.54v3.071c-1.53.512-3.07,1.024-4.6,1.536V752.6c-2.73,2.409-3.41,1.792-4.61,6.142h-3.07q-2.31,3.838-4.61,7.679h-3.07v1.535c-1.02.512-2.05,1.024-3.07,1.536q-0.765,2.3-1.54,4.607c-1.53.512-3.07,1.024-4.6,1.536q-1.545,3.07-3.07,6.142h-3.08v1.536c-1.02.512-2.04,1.024-3.07,1.536v3.071c-1.53.512-3.07,1.024-4.6,1.536q-2.31,3.839-4.61,7.678h-3.07v1.536c-1.03.512-2.05,1.024-3.07,1.536q-0.78,2.3-1.54,4.607h-3.07q-2.31,3.838-4.61,7.678h-3.07v1.536c-1.02.512-2.05,1.024-3.07,1.535v3.072c-1.54.512-3.07,1.024-4.61,1.536V821.7c-1.02.512-2.05,1.024-3.07,1.536v3.071c-3.16,3.93-5.48-.155-7.68,7.679h-3.07c-6.92,12.163-18.05,21.123-27.64,30.713q-15.36,16.124-30.71,32.25c-7.85,7.847-20.21,15.18-23.04,27.642h-3.07c-1.86,3.267-3.46,3.343-4.61,7.678h-3.07c-3.47,5.894-10.31,8.08-12.29,15.357h-3.07q-2.3,3.838-4.6,7.678c-4.04,3.277-6.03,1.637-7.68,7.679h-3.07c-1.86,3.267-3.46,3.343-4.61,7.678h-3.07q-6.915,7.677-13.82,15.357c-1.03.512-2.05,1.024-3.07,1.536-1.42,2.066-1.08,6.037-3.08,7.678H3442v1.536c-1.02.511-2.04,1.023-3.07,1.535v3.074c-3.16,3.93-5.47-.16-7.68,7.68h-3.07c-4.27,7.71-10.86,11.22-16.89,16.89q-2.31,3.84-4.61,7.68h-3.07v1.53c-1.02.51-2.05,1.03-3.07,1.54v3.07c-1.54.51-3.07,1.02-4.61,1.54-1.02,2.04-2.05,4.09-3.07,6.14h-3.07c-0.51,1.02-1.02,2.05-1.54,3.07h-1.53c-0.51,1.54-1.03,3.07-1.54,4.61h-3.07v1.53c-1.02.51-2.05,1.03-3.07,1.54v3.07c-1.54.51-3.07,1.02-4.61,1.53q-3.84,5.385-7.68,10.75h-1.53v10.75c5.21,3.62,3.24,6.87,6.14,12.29h1.54v3.07c1.02,0.51,2.05,1.02,3.07,1.54q0.765,3.06,1.53,6.14h1.54q0.765,3.84,1.54,7.68c1.02,0.51,2.04,1.02,3.07,1.53v3.07h1.53v3.08h1.54q0.765,7.665,1.53,15.35c1.03,0.52,2.05,1.03,3.08,1.54q2.3,6.915,4.6,13.82c1.03,0.51,2.05,1.02,3.07,1.54v3.07h1.54v3.07h1.54v4.61h1.53v3.07c1.02,0.51,2.05,1.02,3.07,1.53,2.36,3.88,4.25,15.59,4.61,21.5,1.54,0.51,3.07,1.03,4.61,1.54v1.53h3.07v1.54h56.82c10.01,0,23.47-1.53,29.18,3.07,2.37,1.91.16,4.46,1.53,7.68h1.54q1.53,4.6,3.07,9.21h1.53c0.52,3.07,1.03,6.15,1.54,9.22h1.54v3.07h1.53v7.68h1.54v3.07c1.02,0.51,2.04,1.02,3.07,1.53v3.08h1.53v3.07h1.54v4.6c1.02,0.52,2.05,1.03,3.07,1.54v3.07h1.54v3.07h1.53v4.61h1.54v3.07c1.02,0.51,2.05,1.02,3.07,1.54q0.765,3.84,1.54,7.67h1.53q0.765,3.075,1.54,6.15h1.53c0.51,3.07,1.03,6.14,1.54,9.21h1.53q0.78,3.075,1.54,6.14h1.53v7.68c1.03,0.51,2.05,1.03,3.08,1.54v3.07h1.53v3.07h1.54l1.53,7.68c1.03,0.51,2.05,1.02,3.07,1.53v3.08h1.54v3.07h1.54v4.6h1.53v3.08c1.03,0.51,2.05,1.02,3.07,1.53q1.545,4.605,3.07,9.22H3571q0.765,5.37,1.54,10.75h1.53q1.545,4.6,3.07,9.21h1.54v7.68c1.02,0.51,2.05,1.02,3.07,1.53q2.31,6.915,4.61,13.82c1.02,0.52,2.04,1.03,3.07,1.54v3.07h1.53v3.07h1.54v4.61h1.54v3.07c1.02,0.51,2.04,1.03,3.07,1.54q0.765,3.06,1.53,6.14h1.54q1.53,6.915,3.07,13.82h1.54q0.765,3.075,1.53,6.14h1.54c0.51,3.07,1.02,6.15,1.53,9.22h1.54q1.53,4.605,3.07,9.21h1.54v4.61c1.02,0.51,2.04,1.02,3.07,1.53q2.295,6.915,4.6,13.83c1.03,0.51,2.05,1.02,3.07,1.53v3.07h1.54q0.765,3.075,1.54,6.15h1.53q1.545,6.9,3.07,13.82h1.54q0.765,3.06,1.53,6.14h1.54q0.765,4.6,1.54,9.21h1.53c0.51,2.05,1.03,4.1,1.54,6.15h1.53v3.07h1.54v4.6c1.02,0.52,2.05,1.03,3.07,1.54v3.07h1.54v3.07h1.53v4.61h1.54v3.07c1.02,0.51,2.04,1.03,3.07,1.54q1.53,4.605,3.07,9.21h1.54q1.53,6.915,3.07,13.82c1.02,0.51,2.04,1.03,3.07,1.54v4.6h1.53v6.15h1.54q1.53,4.6,3.07,9.21h1.54v3.07h1.53v4.61c1.03,0.51,2.05,1.02,3.07,1.54v3.07h1.54v3.07h1.53v4.61h1.54v3.07c1.02,0.51,2.05,1.02,3.07,1.53v3.07h1.54l1.53,6.15h1.54v4.6h1.53v4.61h1.54q0.765,3.075,1.54,6.14h1.53q0.765,6.15,1.54,12.29c1.02,0.51,2.04,1.02,3.07,1.53q2.295,6.915,4.61,13.83c1.02,0.51,2.04,1.02,3.07,1.53v3.07h1.53v3.07h1.54v4.61c1.02,0.51,2.05,1.02,3.07,1.54v3.07h1.54c0.51,2.05,1.02,4.09,1.53,6.14h1.54v4.61h1.53v3.07h1.54v4.61h1.53v3.07h1.54q0.765,3.84,1.54,7.68h1.53V1717c1.02,0.52,2.05,1.03,3.07,1.54v3.07h1.54v3.07h1.53v4.61h1.54c2.79,3.77,3.69,3.22,4.61,9.21-9.79,5-29.93,3.08-44.54,3.08H3254.65v-1.54h-4.61v-1.54h-1.53c-1-3.04-.18-10.22-1.54-13.82h-1.53q-1.545-4.605-3.08-9.21h-1.53q-1.53-4.6-3.07-9.22c-1.03-.51-2.05-1.02-3.07-1.53v-4.61h-1.54c-0.51-2.05-1.02-4.09-1.53-6.14h-1.54v-6.14h-1.54q-1.53-4.605-3.07-9.22h-1.53v-7.68h-1.54q-1.53-4.605-3.07-9.21h-1.54q-0.765-3.075-1.53-6.14c-1.03-.51-2.05-1.03-3.07-1.54v-4.61h-1.54v-3.07h-1.53q-0.78-6.9-1.54-13.82h-1.54q-1.53-4.605-3.07-9.21h-1.53c-0.51-2.05-1.03-4.1-1.54-6.14-1.02-.52-2.05-1.03-3.07-1.54v-4.61c-1.02-.51-2.05-1.02-3.07-1.53q-1.545-6.915-3.07-13.82h-1.54q-1.53-4.62-3.07-9.22h-1.54v-7.68h-1.53q-1.53-4.605-3.07-9.21h-1.54q-0.765-3.075-1.53-6.14c-1.03-.52-2.05-1.03-3.08-1.54v-4.61h-1.53v-3.07h-1.54q-0.765-6.9-1.53-13.82c-1.03-.51-2.05-1.02-3.07-1.53q-0.78-3.84-1.54-7.68h-1.54v-3.07h-1.53v-3.08c-1.02-.51-2.05-1.02-3.07-1.53-0.51-2.05-1.03-4.1-1.54-6.14h-1.53v-4.61h-1.54v-3.07h-1.53v-6.15h-1.54q-0.765-3.06-1.54-6.14h-1.53v-4.6h-1.54v-6.15c-1.02-.51-2.05-1.02-3.07-1.53v-4.61h-1.53v-3.07h-1.54v-3.07c-1.02-.51-2.05-1.03-3.07-1.54v-3.07h-1.54v-4.61h-1.53v-4.6h-1.54v-9.22h-1.53v-3.07c-1.03-.51-2.05-1.02-3.08-1.54v-3.07h-1.53q-0.765-3.84-1.54-7.68c-1.02-.51-2.04-1.02-3.07-1.53q-2.295-6.915-4.61-13.82h-1.53v-3.07h-1.54v-6.15h-1.53c-0.51-2.04-1.03-4.09-1.54-6.14h-1.53v-6.14h-1.54q-0.765-3.075-1.54-6.14h-1.53v-4.61h-1.54v-3.07h-1.53v-3.07h-1.54q-3.075-3.84-6.14-7.68h-4.61q-2.295,6.135-4.6,12.28h-1.54v3.07h-1.54q-1.53,9.225-3.07,18.43a2.432,2.432,0,0,1,1.54,3.07h-1.54v3.08c-1.02.51-2.04,1.02-3.07,1.53v12.29h-1.53q-0.78,3.06-1.54,6.14h-1.54v13.82h-1.53v3.07h-1.54v7.68h-1.53v7.68h-1.54v13.82h-1.53q-1.545,4.6-3.08,9.21h-1.53q-0.765,10.755-1.54,21.5c-1.02.52-2.04,1.03-3.07,1.54v3.07h-1.53v12.29h-1.54q-0.765,3.06-1.54,6.14h-1.53c-1.22,3.53,1.6,4.12,1.53,6.14h-1.53v7.68h-1.54v4.61h-1.53q-0.765,6.135-1.54,12.28h-1.53v13.82h-1.54l-1.53,6.15h-1.54v6.14h-1.54v6.14h-1.53v12.29h-1.54q-0.765,3.06-1.53,6.14h-1.54v10.75h-1.53v3.07h-1.54v13.82h-1.54v3.07h-1.53q-0.765,6.915-1.54,13.82h-1.53v4.61h-1.54v13.82h-1.53q-0.78,3.075-1.54,6.15h-1.54v10.74h-1.53v3.08h-1.54v12.28h-1.53v4.61h-1.54v7.68h-1.53q-0.78,3.06-1.54,6.14h-1.54v6.14h1.54c-0.51,1.03-1.02,2.05-1.54,3.07-10.4,4.17-28.12,3.08-42.99,3.08H2588.17q-0.78-3.84-1.54-7.68c1.02-.51,2.05-1.03,3.07-1.54v-10.75h1.54V1717h1.53v-7.67h1.54v-6.15h1.53v-6.14h1.54v-4.61h1.53q0.78-6.9,1.54-13.82h1.54v-6.14h1.53v-4.61h1.54v-13.82h1.53c0.52-2.05,1.03-4.09,1.54-6.14h1.53v-10.75h1.54v-3.07h1.54v-12.29h1.53v-4.6h1.54l1.53-13.83h1.54v-6.14h1.53v-6.14h1.54v-4.61h1.54q0.765-6.9,1.53-13.82h1.54v-4.61h1.53v-12.28h1.54v-3.07h1.53v-10.75h1.54v-4.61h1.54v-3.07h1.53v-12.29h1.54v-3.07h1.53q0.765-7.68,1.54-15.36h1.53v-6.14h1.54v-4.6h1.54v-4.61h1.53q1.53-10.755,3.07-21.5h1.54c1.01-3.4-1.7-6.94-1.54-7.68h1.54q0.765-3.075,1.53-6.14h1.54v-10.75h1.54v-3.07h1.53v-4.61h1.54v-12.29h1.53q1.545-8.445,3.07-16.89h1.54v-6.14h1.53v-12.29h1.54q0.765-3.06,1.54-6.14h1.53v-7.68h1.54l1.53-9.21a2.528,2.528,0,0,1-1.53-3.07h1.53v-4.61c1.03-.51,2.05-1.02,3.07-1.54V1342.3h1.54q0.765-3.075,1.54-6.14h1.53c1.28-3.64-1.77-5.98-1.53-7.68h1.53v-6.15h1.54v-3.07h1.53v-7.67h1.54v-6.15h1.53v-15.35h1.54q1.53-4.62,3.07-9.22h1.54q0.765-9.975,1.53-19.96h1.54l1.53-6.15h1.54v-12.28h1.54v-3.07h1.53q0.765-3.84,1.54-7.68h-1.54q2.31-6.915,4.61-13.82,0.765-6.15,1.53-12.29h1.54c0.51-1.53,1.02-3.07,1.54-4.6h-1.54c-2.36-8.73-9.74-6.14-19.96-6.15h-55.29v-1.53h-6.14v-1.54h-1.54v-6.14c1.03-.51,2.05-1.02,3.07-1.54v-7.67h1.54v-6.15h1.54v-6.14h1.53v-12.29h1.54q0.765-3.06,1.53-6.14h1.54v-6.14h1.53v-6.14h1.54v-15.36h1.54v-3.07h1.53v-6.14h1.54v-4.61h1.53v-3.07h1.54v-13.82h1.53v-3.08h1.54v-7.67h1.54v-6.15h1.53v-6.14h1.54v-10.75h1.53v-3.07h1.54v-10.75h1.53v-3.07h1.54v-4.61h1.53v-12.28h1.54v-4.61h1.54v-7.68h1.53v-6.14h1.54q1.53-8.45,3.07-16.895h1.53q0.78-6.909,1.54-13.821h1.54V956.843h1.53c0.51-2.047,1.03-4.095,1.54-6.143h1.53V939.951h1.54v-3.072h1.53v-4.607h1.54c1.09-3.6-1.55-4.068-1.54-6.143h1.54v-6.142h1.54V915.38h1.53V907.7h1.54v-6.143h1.53V887.737h1.54l1.53-6.142h1.54q0.765-5.375,1.54-10.75h1.53V864.7h1.54c0.61-2.707-1.4-2.534-1.54-3.071q1.53-8.446,3.07-16.893h1.54v-4.607h1.53q0.78-3.071,1.54-6.142h1.54q-0.78-3.84-1.54-7.679h1.54v-6.142h1.53V815.56h1.54l1.53-13.821h1.54V787.918c1.02-.512,2.05-1.024,3.07-1.535v-3.072h1.53v-10.75h1.54v-4.607h1.54V755.669h1.53q0.765-5.375,1.54-10.75h1.53v-6.143h1.54q1.53-8.445,3.07-16.892h1.54l1.53-15.357h1.54v-3.071h1.53V689.635h1.54l1.53-6.143h1.54v-10.75h1.54v-3.071h1.53V655.85h1.54v-3.072h1.53v-6.142h1.54v-7.679h1.53V634.35h1.54V620.529h1.54l1.53-6.143h1.54v-6.142h1.53v-4.607h1.54V589.816h1.53q0.78-3.072,1.54-6.143h1.54q-0.78-3.838-1.54-7.679h1.54l1.53-6.142h1.54V557.566h1.53v-4.607h1.54v-6.142h1.53v-7.679h1.54V533h1.54V522.246h1.53q0.765-3.072,1.54-6.143h1.53l-1.53-7.679h1.53v-4.607h1.54v-3.071h1.53c0.73-2.645-1.43-2.645-1.53-3.071-0.81-3.421.87-4.2,1.53-6.143,29.36-2.687,64.88-1.536,96.75-1.536h262.6C3166.18,490,3189,488.584,3205.51,491.532ZM2109.03,608.244c1.07,4.017,2.43,4.944,4.61,7.678h1.54q1.53,4.607,3.07,9.214,3.06,2.3,6.14,4.607,0.765,3.072,1.54,6.143c1.53,1.023,3.07,2.047,4.6,3.071v3.072h1.54V645.1h1.53v4.607h1.54v3.071c1.02,0.512,2.05,1.024,3.07,1.536,0.51,2.047,1.03,4.1,1.54,6.143h1.53q0.765,7.677,1.54,15.357c1.02,0.511,2.05,1.023,3.07,1.535v4.607c1.02,0.512,2.05,1.024,3.07,1.536q0.765,15.356,1.54,30.713h1.53v4.608h1.54v47.606h-1.54l-1.53,6.142h-1.54v10.75h-1.53v3.072h-1.54v4.606h-1.54c-0.14,1.839,2.67,3.942,1.54,7.679h-1.54v4.607h-1.53q-0.765,6.143-1.54,12.285h-1.53v3.072q-2.31,1.536-4.61,3.071v4.607h-1.54l-1.53,6.143h-1.54V843.2H2129q-1.545,4.607-3.07,9.214h-1.54v4.607c-1.02.512-2.05,1.024-3.07,1.535v3.072h-1.54l-1.53,7.678q-5.385,4.607-10.75,9.214v9.214l-6.15,4.607a54.281,54.281,0,0,0-7.67,18.429h-3.07c-1.87,3.267-3.46,3.342-4.61,7.678h-3.07c-1.11,5.189-3.38,7.358-6.15,10.75h-1.53v3.071c-1.03.512-2.05,1.024-3.07,1.536v4.607h-1.54c-2.52,3.31-4.83,4.578-6.14,9.214h-3.07c-0.75,1.3-5.23,8.472-6.15,9.214-4.04,3.27-6.02,1.64-7.67,7.678h-3.08c-1.28,6-7.01,13-10.75,16.893-1.53,1.024-3.07,2.048-4.6,3.071v3.072h1.53c2.65,4.017,4.34,3.211,10.75,3.071,3.36,2.931,13.99,1.536,19.97,1.536h53.75c70.35-.007,148.13-0.445,213.46,0a19.638,19.638,0,0,1,1.53,7.678c-3.69,3.5-1.27,3.088-3.07,7.678h-1.54v6.14h-1.53v7.68h-1.54v4.61h-1.53v7.68h-1.54v1.53h1.54q-0.78,5.385-1.54,10.75c-3.85,11.43-7.1,25.5-10.75,36.86l-1.53,15.36h-1.54v3.07c-1.02.51-2.05,1.02-3.07,1.53v3.07h-1.54v12.29h-1.53v3.07h-1.54v10.75h-1.53v3.07h-1.54v3.07c-1.02.52-2.05,1.03-3.07,1.54q-0.765,7.68-1.54,15.36c-1.02.51-2.04,1.02-3.07,1.53q-0.765,5.37-1.53,10.75c1.53,0.51,3.07,1.02,4.6,1.54,3.15,2.78,12.75,1.53,18.43,1.53h47.61v1.54h1.53q0.78,5.37,1.54,10.75h-1.54l-1.53,7.68c-1.03.51-2.05,1.02-3.07,1.53v4.61h-1.54v3.07c-1.02.51-2.05,1.02-3.07,1.54q-0.765,3.84-1.54,7.67h-1.53q-0.765,6.915-1.54,13.83c-1.02.51-2.05,1.02-3.07,1.53v4.61c-1.02.51-2.05,1.02-3.07,1.53v3.08h-1.54v10.75q-3.84,3.06-7.67,6.14v9.21q-3.84,3.075-7.68,6.14v3.08h-1.54q0.765,3.06,1.54,6.14h-1.54v4.61c-1.02.51-2.05,1.02-3.07,1.53q-0.765,3.84-1.54,7.68c-1.02.51-2.04,1.02-3.07,1.54q-2.295,6.9-4.6,13.82c-1.03.51-2.05,1.02-3.08,1.53-4.3,4.73-6.06,7.78-9.21,13.82h-1.54l-1.53,7.68q-5.37,4.605-10.75,9.22-0.765,3.84-1.54,7.67h-1.53v3.08h-1.54v3.07c-1.02.51-2.05,1.02-3.07,1.53v4.61c-1.02.51-2.05,1.02-3.07,1.54-3.29,5.25-.25,7.21-7.68,9.21-0.51,2.05-1.02,4.09-1.53,6.14-2.05,1.54-4.1,3.07-6.15,4.61q-8.445,9.21-16.89,18.43c-1.54,1.02-3.07,2.05-4.61,3.07v3.07c-1.02.51-2.04,1.02-3.07,1.54q-0.765,3.825-1.53,7.67-2.31.78-4.61,1.54v1.54c-4.15,3.69-4.03,1.54-4.61,9.21a16.627,16.627,0,0,1,7.68,10.75h3.07c0.89,4.33,2.38,6.34,4.61,9.21h1.53q1.545,4.605,3.08,9.22c1.53,1.02,3.07,2.05,4.6,3.07v3.07c1.03,0.51,2.05,1.02,3.07,1.54v3.07c1.54,1.02,3.08,2.05,4.61,3.07q1.545,4.605,3.07,9.21c2.05,1.54,4.1,3.07,6.15,4.61q0.765,3.075,1.53,6.14c2.05,1.54,4.1,3.07,6.14,4.61v3.07c1.54,1.02,3.08,2.05,4.61,3.07v3.07q3.075,2.31,6.14,4.61c0.52,1.54,1.03,3.07,1.54,4.61,1.02,0.51,2.05,1.02,3.07,1.53q0.765,3.075,1.54,6.15c1.53,1.02,3.07,2.04,4.6,3.07v4.6c1.03,0.52,2.05,1.03,3.07,1.54v3.07c2.05,1.54,4.1,3.07,6.15,4.61,0.51,2.05,1.02,4.09,1.53,6.14,1.54,1.03,3.07,2.05,4.61,3.07v4.61c1.02,0.51,2.05,1.02,3.07,1.54v3.07c2.05,1.53,4.1,3.07,6.14,4.6v3.08h1.54c2.66,4.15-1.48,2.84,4.61,4.6a19.2,19.2,0,0,0,4.6,9.22h1.54v3.07c1.53,1.02,3.07,2.05,4.61,3.07v3.07c2.04,1.54,4.09,3.07,6.14,4.61q0.765,3.06,1.54,6.14c1.53,1.02,3.07,2.05,4.6,3.07v4.61c1.03,0.51,2.05,1.02,3.07,1.53v3.08c2.05,1.53,4.1,3.07,6.15,4.6l1.53,6.15c1.54,1.02,3.07,2.04,4.61,3.07v4.6c1.02,0.52,2.05,1.03,3.07,1.54v3.07c2.05,1.54,4.1,3.07,6.14,4.61v4.6c2.05,1.03,4.1,2.05,6.15,3.08q0.765,3.06,1.53,6.14c1.54,1.02,3.07,2.05,4.61,3.07v3.07q2.3,1.545,4.61,3.07v3.07c1.53,1.03,3.07,2.05,4.6,3.08v3.07c1.03,0.51,2.05,1.02,3.07,1.53v1.54c1.03,0.51,2.05,1.02,3.08,1.53l1.53,7.68c1.02,0.51,2.05,1.03,3.07,1.54v3.07q3.075,2.295,6.14,4.61v3.07h1.54v3.07c1.02,0.51,2.05,1.02,3.07,1.53q1.545,4.62,3.07,9.22c1.03,0.51,2.05,1.02,3.07,1.53a18.689,18.689,0,0,1,4.61,9.22h3.07V1717c1.03,0.52,2.05,1.03,3.07,1.54v3.07q3.84,3.075,7.68,6.14v6.15c-16.98,3.02-40.38,1.53-59.89,1.53H2270.28c-100.2,0-204.93,3.13-302.53-1.53q-2.3-3.075-4.61-6.15c-1.53-.51-3.07-1.02-4.6-1.53v-3.07c-1.03-.51-2.05-1.03-3.07-1.54v-3.07q-3.84-3.075-7.68-6.14c-1.54-2.05-3.07-4.1-4.61-6.15h-1.54v-3.07c-2.04-1.53-4.09-3.07-6.14-4.6v-3.08q-2.3-1.53-4.61-3.07v-3.07c-1.02-.51-2.04-1.02-3.07-1.53v-3.07c-1.02-.52-2.04-1.03-3.07-1.54v-3.07c-1.02-.51-2.05-1.03-3.07-1.54v-1.53h-3.07c-0.51-1.03-1.03-2.05-1.54-3.07h-6.14v1.53h-4.61c-0.51,1.02-1.02,2.05-1.53,3.07h-3.07v1.54h-3.07c-0.52,1.02-1.03,2.05-1.54,3.07h-3.07v1.54h-4.61c-0.51,1.02-1.02,2.04-1.53,3.07h-4.61v1.53h-3.07c-0.52,1.03-1.03,2.05-1.54,3.07h-4.61c-0.51,1.03-1.02,2.05-1.53,3.07h-4.61v1.54c-2.05.51-4.09,1.02-6.14,1.54v1.53h-3.07c-0.51,1.03-1.03,2.05-1.54,3.07h-4.61c-0.51,1.03-1.02,2.05-1.53,3.07h-3.07v1.54h-4.61v1.54h-3.07v1.53h-7.68v1.54H1828v1.53h-3.07v1.54l-7.68,1.53v1.54h-4.6v1.54h-7.68v1.53c-2.05.51-4.1,1.03-6.14,1.54v1.53h-4.61v1.54h-4.61v1.53h-7.68v1.54q-3.06.765-6.14,1.54v1.53q-6.135.765-12.28,1.54v1.53c-3.08.51-6.15,1.03-9.22,1.54v1.53h-3.07v1.54q-9.975.765-19.96,1.54c-6.86,2.14-16.06,5.49-23.04,7.67h-9.21v1.54h-10.75v1.54h-4.61v1.53h-9.21v1.54h-12.29v1.53h-18.43v1.54h-18.43V1760h-9.21v1.54h-10.75v1.53h-50.68c-14.48.01-27.62,0.03-38.39-3.07h-16.89v-1.53h-10.75v-1.54h-16.89v-1.53h-9.22v-1.54h-7.68v-1.53h-9.21v-1.54q-6.15-.765-12.29-1.54v-1.53h-4.6v-1.54h-4.61v-1.53h-9.21v-1.54l-12.29-1.53v-1.54h-4.61v-1.54h-4.6v-1.53q-5.385-.765-10.75-1.54v-1.53h-3.07v-1.54h-4.61c-0.51-1.02-1.03-2.05-1.54-3.07q-4.605-1.53-9.21-3.07v-1.54q-6.915-1.53-13.82-3.07-1.545-2.295-3.07-4.61h-3.08c-0.51-1.02-1.02-2.04-1.53-3.07h-3.07v-1.53h-3.07v-1.54h-3.08v-1.53h-4.6c-0.51-1.03-1.03-2.05-1.54-3.08h-3.07v-1.53h-3.07v-1.54h-3.07v-1.53c-5.59-2.68-5.51,1.85-7.68-6.15a12.3,12.3,0,0,1-6.14-3.07v-1.53q-6.915-2.31-13.82-4.61v-1.53c-1.03-.52-2.05-1.03-3.08-1.54v-3.07c-1.53-.51-3.07-1.03-4.6-1.54q-2.31-3.84-4.61-7.68h-3.07c-1.02-2.04-2.05-4.09-3.07-6.14h-3.07v-1.53c-1.03-.52-2.05-1.03-3.07-1.54v-3.07c-1.03-.51-2.05-1.03-3.08-1.54v-1.53c-1.53-.51-3.07-1.03-4.6-1.54v-3.07c-1.03-.51-2.05-1.02-3.08-1.54v-1.53h-3.07q-2.3-4.605-4.6-9.22h-3.07c-1.19-4.66-3.67-5.91-6.15-9.21h-1.53c-0.51-2.56-1.03-5.12-1.54-7.68q-3.84-3.075-7.68-6.14-0.765-3.075-1.53-6.14c-1.54-1.03-3.07-2.05-4.61-3.07v-4.61h-1.54v-3.07h-1.53v-3.07h-1.54v-3.08h-1.53v-3.07h-1.54v-3.07h-1.53v-3.07h-1.54v-3.07h-1.54v-3.07h-1.53v-3.07h-1.54v-3.08h-1.53c-0.51-2.04-1.03-4.09-1.54-6.14-1.02-.51-2.05-1.02-3.07-1.53v-3.07h-1.54c-2.41-5.94,1.4-7.69,0-12.29h-1.53v-4.61c-1.54-1.02-3.07-2.04-4.61-3.07l-1.53-7.68h-1.54q0.765-3.84,1.54-7.68h-1.54q-0.765-6.9-1.53-13.82h-1.54V1497.4h-1.54v-3.07h-1.53V1454.4l1.53-50.67h1.54v-3.08h1.54v-4.6h1.53c1.08-3.62-.92-3.65-1.53-4.61v-1.54h1.53v-7.67h1.54v-7.68h1.53v-3.07h1.54v-6.15h1.53v-6.14h1.54v-3.07h1.53q0.78-7.68,1.54-15.36h1.54v-3.07c1.02-.51,2.04-1.02,3.07-1.53l1.53-7.68h1.54v-3.07h1.53c0.52-3.07,1.03-6.15,1.54-9.22h1.54v-3.07h1.53v-6.14h1.54v-3.07h1.53v-4.61c1.03-.51,2.05-1.02,3.07-1.54q0.78-3.84,1.54-7.67c1.02-.52,2.05-1.03,3.07-1.54v-3.07h1.54v-3.07h1.53v-4.61h1.54v-3.07c1.02-.51,2.05-1.03,3.07-1.54q2.31-6.9,4.61-13.82h3.07c1.02-1.53,2.05-3.07,3.07-4.61h1.54v-3.07h1.53v-6.14c1.02-.51,2.05-1.02,3.07-1.53v-3.08c1.54-1.02,3.07-2.04,4.61-3.07q2.295-6.9,4.61-13.82,5.37-4.6,10.75-9.21v-3.07c1.53-1.03,3.07-2.05,4.6-3.08v-3.07c1.03-.51,2.05-1.02,3.07-1.53v-3.07c1.54-1.03,3.08-2.05,4.61-3.08v-4.6c1.03-.51,2.05-1.03,3.07-1.54l7.68-9.21h3.07c2.19-1.79,4.14-8.35,4.61-12.29-1.54-.51-3.07-1.02-4.61-1.53-2.96-2.63-11.47-1.54-16.89-1.54h-46.07q-0.765-2.3-1.54-4.61c3.58-2.22,4.47-6.81,7.68-9.21h3.07v-1.54c1.03-.51,2.05-1.02,3.08-1.53v-3.07h3.07q2.3-3.84,4.6-7.68h3.07v-1.54c1.03-.51,2.05-1.02,3.08-1.53,0.51-1.54,1.02-3.07,1.53-4.61h3.07l6.15-7.68q3.06-.765,6.14-1.53,7.68-8.445,15.36-16.9h3.07c1.53-2.04,3.07-4.09,4.6-6.14h3.08c1.53-2.05,3.07-4.09,4.6-6.14h3.07l6.15-7.68q4.605-1.53,9.21-3.07c0.51-1.02,1.02-2.05,1.54-3.07a18.407,18.407,0,0,1,9.21-4.61v-3.07q3.84-.765,7.68-1.54c1.02-1.53,2.05-3.07,3.07-4.6h3.07q1.545-2.31,3.07-4.61c1.54-.51,3.07-1.02,4.61-1.54v-7.67l-9.21-6.15v-3.07c-1.54-1.02-3.08-2.05-4.61-3.07v-3.07h-1.54c-2.67-4.2,1.47-2.79-4.6-4.61-1.22-5.42-3.94-6.92-6.15-10.75v-3.07c-1.02-.51-2.04-1.02-3.07-1.54q-0.765-3.06-1.53-6.14c-1.54-1.02-3.08-2.05-4.61-3.07q-2.31-6.915-4.61-13.821c-1.02-.511-2.05-1.023-3.07-1.535v-4.607c-1.02-.512-2.05-1.024-3.07-1.536q-0.765-3.838-1.54-7.679c-1.02-.511-2.04-1.023-3.07-1.535v-3.072h-1.53q-1.545-9.213-3.07-18.428c-1.03-.512-2.05-1.024-3.08-1.535V950.7h-1.53V938.415h-1.54v-3.072h-1.53q-0.765-8.445-1.54-16.892h-1.53V915.38h-1.54V892.344h-1.54q0.78-26.871,1.54-53.748h1.54V824.774h1.53v-4.606h1.54v-6.143h1.53q0.765-7.679,1.54-15.357h1.53V795.6h1.54v-3.072h1.54q1.53-4.606,3.07-9.214h1.53v-10.75h1.54l1.53-6.142h1.54v-3.072h1.54v-3.071h1.53v-3.071h1.54v-3.072h1.53v-3.071h1.54l1.53-6.143h1.54v-3.071c1.02-.512,2.05-1.024,3.07-1.536,0.98-1.859,2.63-10.078,3.07-12.285h3.07q1.545-2.3,3.07-4.607h1.54v-3.072c1.02-.512,2.05-1.024,3.07-1.535v-3.072h1.54V712.67h1.53v-4.607q5.385-4.606,10.75-9.214v-3.072h1.54v-3.071h1.53v-3.071h1.54v-3.072c1.54-1.023,3.07-2.047,4.61-3.071v-1.536c1.02-.512,2.04-1.024,3.07-1.535v-3.072h1.53c2.95-3.514,6.27-5.72,7.68-10.749h3.07c4.54-7.729,16-12.552,18.43-21.5h3.07c1.86-3.268,3.46-3.343,4.61-7.679h3.07c4.44-7.31,11.46-11.958,18.43-16.892,1.02-1.535,2.05-3.071,3.07-4.607q3.075-.768,6.14-1.536l7.68-9.214h3.07c0.52-1.023,1.03-2.047,1.54-3.071h1.53c0.52-1.024,1.03-2.048,1.54-3.071q3.075-.768,6.14-1.536c1.03-1.536,2.05-3.072,3.08-4.607q3.06-.768,6.14-1.536v-1.535h3.07V588.28h3.07c0.51-1.024,1.02-2.048,1.54-3.072l6.14-1.535,1.53-3.072,6.15-1.535,1.53-3.072,6.15-1.535q1.53-2.3,3.07-4.607,6.9-2.3,13.82-4.607l1.53-3.072q4.605-1.536,9.22-3.071v-1.536h3.07v-1.535l9.21-3.072v-1.536q6.915-.766,13.82-1.535v-1.536q4.62-1.535,9.22-3.071v-1.536h4.61l1.53-3.071h3.07v-1.536l18.43-3.071c0.51-1.024,1.02-2.048,1.54-3.072h3.07V531.46q3.06-.768,6.14-1.536v-1.536l19.96-1.535v-1.536h4.61v-1.536l6.14-1.535V520.71l13.82-1.536v-1.536h6.15V516.1h7.68v-1.536h9.21v-1.535h9.21V511.5h6.15V509.96h6.14v-1.536h7.68v-1.535h16.89c2.14-.363-0.54-0.909,1.54-1.536h7.67v-1.536h29.18v-1.535h9.22v-1.536h26.1V499.21h24.57v1.536h49.15v1.536h9.21v1.535h13.82v1.536h13.82v1.536l16.89,1.535v1.536h7.68V511.5h7.68v1.536h7.68v1.535h4.61V516.1h7.68v1.535h7.67v1.536l10.75,1.536v1.536h4.61v1.535h6.14v1.536h4.61v1.536h3.07v1.535q6.915,1.536,13.82,3.072V533l6.15,1.536v1.536l15.35,3.071c1.54,2.047,3.07,4.095,4.61,6.143h3.07c0.51,1.024,1.02,2.048,1.54,3.071q3.84,0.768,7.67,1.536c0.52,1.023,1.03,2.047,1.54,3.071h4.61l1.53,3.072h3.07v1.535h3.08V559.1l7.67,1.535q2.31,3.84,4.61,7.679h3.07c0.51,1.024,1.03,2.048,1.54,3.071l6.14,1.536c0.51,1.024,1.02,2.048,1.54,3.071q3.06,0.768,6.14,1.536,2.295,3.071,4.61,6.143c1.53,0.512,3.07,1.024,4.6,1.535q0.78,2.3,1.54,4.608h3.07v1.535c1.02,0.512,2.05,1.024,3.07,1.536v3.071q3.075,1.536,6.14,3.072C2105.1,604.018,2101.18,605.969,2109.03,608.244ZM1725.11,752.6c-2.73,3.036-3.04,1.284-6.14,3.071v1.536h-3.07v1.535c-1.02.512-2.05,1.024-3.07,1.536v4.607q-3.075,2.3-6.14,4.607v3.071c-1.03.512-2.05,1.024-3.08,1.536v6.143h-1.53v6.143h-1.54v15.356h-1.53v27.643h1.53V843.2h1.54v7.678h1.53c0.14,2.064-2.52,2.51-1.53,6.143,1.93,7.113,4.88,17.7,7.68,24.571a19.452,19.452,0,0,0,7.67,1.535c1.03-1.535,2.05-3.071,3.08-4.607h1.53v-4.607c1.54-1.023,3.07-2.047,4.61-3.071q1.53-9.213,3.07-18.428h1.54q1.53-4.606,3.07-9.214h1.53q0.765-6.91,1.54-13.821h1.53v-4.608h1.54v-4.606h1.54v-7.679h1.53v-6.143h1.54V800.2h1.53V780.24h1.54v-4.607c0.41-2.132,1.7.629,1.53-1.536h-1.53c-0.51-2.047-1.03-4.1-1.54-6.143h-1.53V757.205h-1.54c-1.75-1.749,0-.612-3.07-1.536C1737.34,752.444,1731.65,752.477,1725.11,752.6Zm147.43,391.6c1.69-6.66,5.07-5.34,7.68-9.22q2.295-6.135,4.6-12.28h3.08c0.94-5.33,2.53-7.94,7.67-9.22,1.27-5.26,5.66-7.89,7.68-12.28,0.51-2.56,1.03-5.12,1.54-7.68,1.53-.51,3.07-1.03,4.6-1.54,0.52-1.53,1.03-3.07,1.54-4.6,1.54-1.03,3.07-2.05,4.61-3.08q2.3-6.9,4.6-13.82,3.84-2.3,7.68-4.6v-3.08c1.54-.51,3.07-1.02,4.61-1.53q0.765-6.15,1.54-12.29c-5.37,1.05-8.43,3.91-12.29,6.15h-3.07l-7.68,9.21h-3.07c-1.54,2.05-3.07,4.1-4.61,6.14h-3.07v1.54h-3.07c-1.02,1.53-2.05,3.07-3.07,4.61q-3.075.765-6.14,1.53c-0.52,1.03-1.03,2.05-1.54,3.07h-3.07c-1.03,1.54-2.05,3.07-3.07,4.61q-3.075.765-6.15,1.54c-1.02,1.53-2.04,3.07-3.07,4.6h-3.07v1.54h-3.07v1.53h-4.61c-0.51,1.03-1.02,2.05-1.53,3.08h-3.07v1.53q-3.075.765-6.15,1.54v1.53c-6.49,2.41-10.68-1.62-15.35,3.07h-1.54v7.68c6.3,4.05,1.75,2.61,4.61,7.68,1.02,0.51,2.05,1.02,3.07,1.54q1.53,4.6,3.07,9.21c1.02,0.51,2.05,1.02,3.07,1.54v3.07c1.54,1.02,3.07,2.05,4.61,3.07v3.07l6.14,4.61v1.53h7.68A12.738,12.738,0,0,1,1872.54,1144.2Zm-262.6,311.74c4.74,1.08,6.53,2.99,7.68,7.68,5.2,1.46,6.95,4.82,10.75,7.68v1.53c3.07,0.51,6.14,1.03,9.21,1.54,1.02,1.53,2.05,3.07,3.07,4.6q3.075,0.78,6.14,1.54v1.54h7.68v1.53h4.61v1.54h4.61v1.53q6.135,0.765,12.28,1.54v1.53q24.57,0.78,49.14,1.54v-1.54h6.15v-1.53h6.14v-1.54h9.21v-1.53h6.15v-1.54h7.67v-1.53c6.86-2.72,8.63-1.75,9.22-10.75-1.75-1.75-.61-0.01-1.54-3.08-2.88-1.26-4.02-2.27-7.68-3.07-1.03-5.16-3.38-7.41-6.14-10.75h-1.53c-0.52-1.53-1.03-3.07-1.54-4.6-1.54-1.03-3.07-2.05-4.61-3.08v-3.07c-1.02-.51-2.05-1.02-3.07-1.53v-3.07h-1.53v-3.08q-3.075-1.53-6.15-3.07v-3.07h-1.53c-2.12-2.24-.76-2.06-4.61-3.07-1.07-5.17-3.37-7.4-6.14-10.75h-1.54q-0.765-2.295-1.53-4.61-2.31-1.53-4.61-3.07v-3.07c-1.02-.51-2.05-1.02-3.07-1.53v-3.08c-2.05-1.53-4.1-3.07-6.14-4.6v-3.07c-1.03-.52-2.05-1.03-3.08-1.54v-1.54h-3.07c-2-1.64-1.66-5.56-3.07-7.67-1.53-1.03-3.07-2.05-4.61-3.08v-4.6q-5.37-4.6-10.75-9.22v-3.07c-2.04-1.53-4.09-3.07-6.14-4.6-3.05-5.02,2.53-5.32-6.14-7.68v-3.07a23.875,23.875,0,0,1-7.68-7.68v-3.07q-5.37-4.62-10.75-9.22v-3.07c-1.54-1.02-3.07-2.05-4.61-3.07q-0.765-3.075-1.53-6.14c-1.54-.52-3.07-1.03-4.61-1.54q-0.765-2.3-1.54-4.61c-2.04-1.53-4.09-3.07-6.14-4.6l-1.53-6.15q-5.385-4.6-10.75-9.21c-0.51-1.54-1.03-3.07-1.54-4.61h-7.68q-3.06,3.84-6.14,7.68h-1.54v4.61h-1.53v3.07h-1.54v4.61c-1.02.51-2.04,1.02-3.07,1.53v3.07h-1.53q-1.545,4.6-3.08,9.22h-1.53v4.6h-1.54c-0.18,2,2.74,2.6,1.54,6.15h-1.54v3.07h-1.53q-2.31,6.915-4.61,13.82h-1.54c-0.19,2.03,2.52,2.52,1.54,6.14h-1.54q-0.765,9.21-1.53,18.43c-0.74,2.62-2.94,10.41-1.54,15.36h1.54v19.96h1.53q1.545,4.6,3.08,9.22h1.53v10.75h1.54q0.765,3.06,1.53,6.14h1.54v3.07c1.02,0.51,2.05,1.02,3.07,1.53v3.08c2.05,1.53,4.1,3.07,6.14,4.6v3.07c1.54,0.52,3.07,1.03,4.61,1.54v1.54C1608.07,1452.21,1608.72,1451.59,1609.94,1455.94Z"/>
</svg>
