<svg xmlns="http://www.w3.org/2000/svg" width="4200" height="2301" viewBox="0 0 4200 2301">
  <defs>
    <style>
      .cls-1 {
        fill-rule: evenodd;
      }
    </style>
  </defs>
  <path id="Color_Fill_1" data-name="Color Fill 1" class="cls-1" d="M3341,440c0.72,2.762.28,2.237,3,3v1c1.54,0.808,1.94-.988,2-1h1v1h3c0.67,1,1.33,2,2,3h2v1h3v1h2v1h3c0.33,0.667.67,1.333,1,2h2v1h2v1h2c0.33,0.667.67,1.333,1,2h3v1c0.67,0.333,1.33.667,2,1v2c0.67,0.333,1.33.667,2,1v3h2c1.18,5.38,5.83,8.443,9,12,0.67,0.333,1.33.667,2,1v9h1a19.685,19.685,0,0,1,2,9c-3.38,2.3-2.79,6.5-5,10h-1c-0.33,1-.67,2-1,3-0.67.333-1.33,0.667-2,1-0.33,1.333-.67,2.667-1,4l-3,2c-0.33,1.333-.67,2.667-1,4-1.33,1-2.67,2-4,3v2c-0.67.333-1.33,0.667-2,1-0.67,1-1.33,2-2,3h-1v2h-1a8.043,8.043,0,0,0-2,4h-2c-1.67,3.623-4.41,6.263-7,9-0.67.333-1.33,0.667-2,1-0.33,1-.67,2-1,3-1.33,1-2.67,2-4,3v2c-0.67.333-1.33,0.667-2,1-0.33,1-.67,2-1,3h-1v2c-0.67.333-1.33,0.667-2,1v2l-3,2v2c-0.67.333-1.33,0.667-2,1v1c-0.67.333-1.33,0.667-2,1v2h-1c-1.44,1.746-2.28,2.415-3,5h-2a22.528,22.528,0,0,1-4,7c-0.67.333-1.33,0.667-2,1v2c-1.33,1-2.67,2-4,3-0.33,1-.67,2-1,3-1.67,1.333-3.33,2.667-5,4v2c-0.67.333-1.33,0.667-2,1-0.33,1-.67,2-1,3-1.67,1.333-3.33,2.667-5,4v2c-1.67,1.333-3.33,2.667-5,4v2c-1.67,1.333-3.33,2.667-5,4v2l-3,2v2c-1.33,1-2.67,2-4,3v2l-3,2c-0.33,1.333-.67,2.667-1,4-0.67.333-1.33,0.667-2,1-0.33,1-.67,2-1,3l-3,2v2c-0.67.333-1.33,0.667-2,1v2h-1c-0.33,1-.67,2-1,3-0.67.333-1.33,0.667-2,1v2l-3,2v2c-0.67.333-1.33,0.667-2,1-0.33,1-.67,2-1,3h-1v2c-0.67.333-1.33,0.667-2,1v2c-0.67.333-1.33,0.667-2,1v2c-0.67.333-1.33,0.667-2,1v2h-1c-0.33,1-.67,2-1,3-0.67.333-1.33,0.667-2,1v2c-0.67.333-1.33,0.667-2,1v2l-3,2c-0.33,1.333-.67,2.667-1,4l-3,2v3l-3,2c-0.33,1-.67,2-1,3-0.67.333-1.33,0.667-2,1v3h-1c-0.33,1-.67,2-1,3-0.67.333-1.33,0.667-2,1v2c-0.67.333-1.33,0.667-2,1-0.33,1.333-.67,2.667-1,4l-3,2v2c-0.67.333-1.33,0.667-2,1v3c-0.67.333-1.33,0.667-2,1v2c-0.67.333-1.33,0.667-2,1v2c-0.67.333-1.33,0.667-2,1-0.33,1.333-.67,2.667-1,4l-3,2v3h-1c-0.33,1-.67,2-1,3-0.67.333-1.33,0.667-2,1v2c-0.67.333-1.33,0.667-2,1-0.33,1.333-.67,2.667-1,4-0.67.333-1.33,0.667-2,1-0.33,1.333-.67,2.667-1,4-0.67.333-1.33,0.667-2,1v2c-0.67.333-1.33,0.667-2,1v2c-0.67.333-1.33,0.667-2,1-0.33,1.333-.67,2.667-1,4-0.67.333-1.33,0.667-2,1-0.33,1.333-.67,2.667-1,4-0.67.333-1.33,0.667-2,1-0.33,1.333-.67,2.667-1,4l-3,2v3c-0.67.333-1.33,0.667-2,1-0.33,1.333-.67,2.667-1,4l-3,2v3c-0.67.333-1.33,0.667-2,1-0.33,1.333-.67,2.667-1,4-0.67.333-1.33,0.667-2,1v2h-1v2h-1v2c-0.67.333-1.33,0.667-2,1-0.33,1.333-.67,2.667-1,4-0.67.333-1.33,0.667-2,1-0.67,2-1.33,4-2,6-0.67.333-1.33,0.667-2,1v3c-0.67.333-1.33,0.667-2,1-0.33,1.333-.67,2.667-1,4-0.67.333-1.33,0.667-2,1-0.67,2-1.33,4-2,6-0.67.333-1.33,0.667-2,1-0.67,2-1.33,4-2,6-0.67.333-1.33,0.667-2,1v3c-0.67.333-1.33,0.667-2,1-0.33,1.333-.67,2.667-1,4-0.67.333-1.33,0.667-2,1-0.67,2-1.33,4-2,6-0.67.333-1.33,0.667-2,1-0.33,1.666-.67,3.333-1,5-0.67.333-1.33,0.667-2,1v2h-1v2h-1v2h-1v2h-1v2c-0.67.333-1.33,0.667-2,1-0.67,2-1.33,4-2,6-0.67.333-1.33,0.667-2,1v3c-0.67.333-1.33,0.667-2,1-0.67,2-1.33,4-2,6-0.67.333-1.33,0.667-2,1v3c-0.67.333-1.33,0.667-2,1-1.64,3.827,1.99,4.372,0,8-1.67,1.333-3.33,2.667-5,4v2c-0.67.333-1.33,0.667-2,1v2h-1v2c-0.67.333-1.33,0.667-2,1-0.67,2-1.33,4-2,6-0.67.333-1.33,0.667-2,1-0.33,1.666-.67,3.333-1,5-0.67.333-1.33,0.667-2,1v3h-1v2c-0.67.333-1.33,0.667-2,1v2h-1c-0.33,1.666-.67,3.333-1,5-0.67.333-1.33,0.667-2,1v3h-1c-0.33,1.333-.67,2.667-1,4h-1v3h-1v2c-0.67.333-1.33,0.667-2,1v3h-1c-0.33,1.333-.67,2.667-1,4h-1v3h-1v2h-1c-0.33,1.333-.67,2.667-1,4h-1v3h-1c-0.33,1.333-.67,2.667-1,4h-1v3h-1c-0.33,1.333-.67,2.667-1,4h-1v3c-0.67.333-1.33,0.667-2,1-0.67,2.333-1.33,4.667-2,7-0.67.333-1.33,0.667-2,1v3h-1v2h-1v2h-1v2h-1c-0.67,2-1.33,4-2,6h-1v3h-1c-0.33,1.33-.67,2.67-1,4h-1v3h-1c-0.33,1.33-.67,2.67-1,4h-1v3h-1c-0.33,1.33-.67,2.67-1,4h-1v4h-1v2c-0.67.33-1.33,0.67-2,1v4h-1v2h-1c-1.28,2.51-.82,5.31-2,8h-1v2h-1c-0.67,3-1.33,6-2,9-0.67.33-1.33,0.67-2,1v5h-1c-0.33,1.33-.67,2.67-1,4h-1v4h-1c-0.33,1.33-.67,2.67-1,4h-1v4h-1v3c-0.67.33-1.33,0.67-2,1-0.33,2.67-.67,5.33-1,8h-1v2h-1v3h-1v3h-1v3h-1c-0.67,3-1.33,6-2,9h-1v2h-1v5h-1v3h-1v2h-1c-0.33,2.33-.67,4.67-1,7h-1v2h-1v5h-1v3h-1v2h-1c-0.33,2.67-.67,5.33-1,8h-1v2h-1c-0.33,2.33-.67,4.67-1,7h-1v3h-1v3h-1v5h-1v2h-1c-0.33,2.67-.67,5.33-1,8h-1v3h-1v2h-1v5h-1v4h-1v2h-1c-0.33,2.67-.67,5.33-1,8h-1v3h-1v3h-1v5h-1v2h-1c-0.33,3-.67,6-1,9h-1v3h-1v3h-1v5h-1v3h-1v3h-1c-0.33,3.67-.67,7.33-1,11h-1v3h-1v7h-1v5h-1v4h-1v6h-1c-0.33,3.67-.67,7.33-1,11h-1q-0.495,7.005-1,14h-1v5h-1v4h-1v10c-4.73,15.85-4.24,37-9,53v9h-1v8h-1v6h-1v6h-1v3c-0.67.33-1.33,0.67-2,1-0.33,1.67-.67,3.33-1,5h-1c-0.33,1.33-.67,2.67-1,4h-1q-1.5,6.495-3,13h-1v2c-0.67.33-1.33,0.67-2,1v2c-0.67.33-1.33,0.67-2,1v2c-0.67.33-1.33,0.67-2,1q-3,3.495-6,7h-2c-1,1.33-2,2.67-3,4h-2c-0.33.67-.67,1.33-1,2h-2v1h-2c-0.67,1-1.33,2-2,3h-3v1a24.32,24.32,0,0,1-8-3v-1h-2v-1h-7s-3.89-5.8-4-6c-2.73,1.27-3.29,2.53-7,3-0.33-1-.67-2-1-3h-1v-2c-0.67-.33-1.33-0.67-2-1-0.33-1.33-.67-2.67-1-4-0.67-.33-1.33-0.67-2-1-0.33-1.67-.67-3.33-1-5-0.67-.33-1.33-0.67-2-1v-2h-1v-3c-0.67-.33-1.33-0.67-2-1v-2h-1v-5h-1q0.495-7.995,1-16h1q1.005-10.005,2-20h1v-4h1v-5h1v-8c0.89-2.94,1.86-4.5,2-9,1.8-.94,1.57-1.38,4-2,0.72-4.27.1-5.49,0-11h2c0.33-1,.67-2,1-3h-1v-4h-1c-1.21-4.4.05-6.11,3-7,0.33-1,.67-2,1-3h-1v-9c0.67-.33,1.33-0.67,2-1v-2h1v-8h1q0.495-6,1-12h1v-13c-0.05-.22-1.62-0.31-1-2,1.33-1,2.67-2,4-3v-11h1v-8h1v-4h1v-9h1v-6h1v-4h1v-5h1v-7h1v-3h1c0.33-3.33.67-6.67,1-10h1v-4h1v-4h1v-6h1v-4h1v-3h1v-6h1v-4h1v-3h1c0.33-3,.67-6,1-9h1v-3h1c0.33-3,.67-6,1-9h1v-3h1c0.33-3,.67-6,1-9h1v-3h1v-3h1v-6h1v-3h1v-3h1v-5h1v-3h1v-3h1v-5h1v-4h1v-3h1c0.33-2.67.67-5.33,1-8h1v-2h1q1.005-6,2-12h1v-2h1v-5h1c0.67-3.33,1.33-6.67,2-10h1v-1h3v-1h1q1.5-9.495,3-19h1c0.33-2.67.67-5.33,1-8h1v-2h1v-3h1v-4h1c0.33-1.33.67-2.67,1-4h1c0.33-2,.67-4,1-6h1v-2h1v-3h1c0.33-1.33.67-2.67,1-4h1v-2h1v-3h1c0.33-1.33.67-2.67,1-4h1v-3c0.67-.333,1.33-0.667,2-1v-3h1c0.33-1.333.67-2.667,1-4h1v-2h1v-3c0.67-.333,1.33-0.667,2-1,0.67-2,1.33-4,2-6h1c0.33-1.333.67-2.667,1-4h1v-8c0.67-.333,1.33-0.667,2-1v-3h1v-2h1c0.33-1.333.67-2.667,1-4h1v-3h1c0.33-1.333.67-2.667,1-4h1v-3h1v-3c0.67-.333,1.33-0.667,2-1v-3h1c0.33-1.333.67-2.667,1-4h1c1.18-2.676.72-5.5,2-8h1l3-10c-0.67-.333-1.33-0.667-2-1-0.71-3.135,5.47-4.706,3-8v-1h-4c-0.67,1.333-1.33,2.667-2,4-0.67.333-1.33,0.667-2,1-0.33,1.333-.67,2.667-1,4l-3,2v2l-3,2v2c-1.33,1-2.67,2-4,3v2l-3,2v2l-3,2v2c-1.33,1-2.67,2-4,3v2c-1.67,1.333-3.33,2.667-5,4v2l-6,5v2c-1.33,1-2.67,2-4,3v2h-1c-1.44,1.746-2.28,2.415-3,5h-2a7.843,7.843,0,0,1-2,4h-1v2c-0.67.333-1.33,0.667-2,1l-3,4c-0.67.333-1.33,0.667-2,1v2h-1l-3,4c-2.39,2.395-4.93,3.143-6,7h-2c-0.85,3.181-3.07,4.868-5,7-0.67.333-1.33,0.667-2,1v2h-2c-3.23,6.94-10.15,10.65-15,16-0.33,1-.67,2-1,3q-9.495,9-19,18c-1.67,2-3.33,4-5,6h-2c-0.33.67-.67,1.33-1,2h-1q-4.5,4.995-9,10h-2v1c-2.27,1.91-3.73,4.12-7,5v2c-1,.33-2,0.67-3,1-1.67,2-3.33,4-5,6h-2q-3,3.495-6,7h-2c-0.67,1-1.33,2-2,3h-2c-1.33,1.67-2.67,3.33-4,5h-2c-0.67,1-1.33,2-2,3h-2c-1.33,1.67-2.67,3.33-4,5h-2c-0.33.67-.67,1.33-1,2-1,.33-2,0.67-3,1v1h-2c-0.67,1-1.33,2-2,3h-2c-0.67,1-1.33,2-2,3h-2c-0.67,1-1.33,2-2,3h-2c-0.33.67-.67,1.33-1,2-1,.33-2,0.67-3,1v1c-2,.67-4,1.33-6,2-0.33.67-.67,1.33-1,2-1,.33-2,0.67-3,1v1h-3c-0.67,1-1.33,2-2,3h-3v1h-2c-0.33.67-.67,1.33-1,2h-3v1c-1.33.33-2.67,0.67-4,1v1c-2,.33-4,0.67-6,1v1h-2v1h-4c-4.77,1.7-17.58,6.43-26,4q-8.505-1.995-17-4v-1h-2v-1c-2-.33-4-0.67-6-1v-1c-1.33-.33-2.67-0.67-4-1v-1h-3v-1c-1.33-.33-2.67-0.67-4-1v-1h-3c-0.33-.67-0.67-1.33-1-2-2-.67-4-1.33-6-2-0.33-.67-0.67-1.33-1-2h-2v-1c-1-.33-2-0.67-3-1-1.01-4.12-3.9-5.04-5-9h-3c-1.34,6.28-5.37,7.26-9,11-2.25,2.32-3.13,5.23-5,8-0.67.33-1.33,0.67-2,1v2c-0.67.33-1.33,0.67-2,1v2c-1,.67-2,1.33-3,2v5h-1v2c-0.67.33-1.33,0.67-2,1v2c-1.33.67-2.67,1.33-4,2q-3,3.495-6,7h-2c-0.67,1-1.33,2-2,3h-2c-1.33,1.67-2.67,3.33-4,5h-2c-0.33.67-.67,1.33-1,2-1,.33-2,0.67-3,1v1h-2c-0.67,1-1.33,2-2,3h-2v1c-1.48,1.4-2.03.85-2,4h1v1h-1v2h-1v2c-1.33,1-2.67,2-4,3v1h-2c-0.33.67-.67,1.33-1,2h-2c-0.67,1-1.33,2-2,3h-2c-0.33.67-.67,1.33-1,2h-2c-0.33.67-.67,1.33-1,2-1,.33-2,0.67-3,1v1c-2,.67-4,1.33-6,2-0.33.67-.67,1.33-1,2-1.67.33-3.33,0.67-5,1-0.33.67-.67,1.33-1,2h-2c-2.35,1.33-3.93,3.21-7,4v2a7.589,7.589,0,0,0-4,2v1c-1.33.33-2.67,0.67-4,1-0.67,1-1.33,2-2,3-1.67.33-3.33,0.67-5,1-0.33.67-.67,1.33-1,2h-2v1h-2c-0.33.67-.67,1.33-1,2h-2v1h-2v1h-2v1h-2v1h-2c-0.33.67-.67,1.33-1,2-2,.67-4,1.33-6,2-0.33.67-.67,1.33-1,2h-2v1h-2v1h-2v1h-2v1h-2c-0.33.67-.67,1.33-1,2h-2v1h-2v1h-2v1h-2v1h-2v1h-2v1c-2,.67-4,1.33-6,2v1c-2.33.33-4.67,0.67-7,1-0.67,1-1.33,2-2,3-1.33.33-2.67,0.67-4,1-0.33.67-.67,1.33-1,2h-3v1h-2v1c-1.33.33-2.67,0.67-4,1v1c-1.67.33-3.33,0.67-5,1v1h-2v1h-4v1c-1.33.33-2.67,0.67-4,1v1h-4v1c-1.33.33-2.67,0.67-4,1v1h-4v1h-3v1h-3v1h-5v1q-7.995.495-16,1v1h-4v1h-3v1c-1,.33-2,0.67-3,1v-1h-6v-1h-9v-1h-5v-1h-3v-1h-4v-1h-5v-1h-3v-1h-3v-1h-5v-1h-3v-1h-2v-1h-3v-1c-1.33-.33-2.67-0.67-4-1v-1h-3v-1c-2.17-1.63-2.97-3.16-6-4-0.72-2.76-.28-2.24-3-3v-2q-4.005-3.495-8-7v-2c-1-.67-2-1.33-3-2-0.33-1.33-.67-2.67-1-4-1-.67-2-1.33-3-2v-2c-0.67-.33-1.33-0.67-2-1-0.67-2-1.33-4-2-6-0.67-.33-1.33-0.67-2-1v-3h-1c-0.33-1.33-.67-2.67-1-4h-1v-3h-1c-0.33-1.33-.67-2.67-1-4h-1v-3h-1c-0.33-1.33-.67-2.67-1-4h-1c-0.33-2.67-.67-5.33-1-8h-1v-2h-1v-4h-1v-5h-1v-2h-1v-3h-1v-7h-1v-4h-1v-4h-1v-22h1v-3h1v-3h1v-3h1c-0.33-3-.67-6-1-9h1c0.33-1.33.67-2.67,1-4h1c0.33-2,.67-4,1-6,0.67-.33,1.33-0.67,2-1,0.33-2,.67-4,1-6h1c0.33-1.33.67-2.67,1-4h1v-3h1c0.33-1.33.67-2.67,1-4h1c0.33-1.67.67-3.33,1-5,0.67-.33,1.33-0.67,2-1,0.33-1.67.67-3.33,1-5,0.67-.33,1.33-0.67,2-1v-3h1c0.33-1.33.67-2.67,1-4h1c0.33-1.33.67-2.67,1-4,0.67-.33,1.33-0.67,2-1,0.67-2,1.33-4,2-6,0.67-.33,1.33-0.67,2-1,0.33-1.33.67-2.67,1-4,0.67-.33,1.33-0.67,2-1,0.33-1.33.67-2.67,1-4,0.67-.33,1.33-0.67,2-1v-2c1.33-1,2.67-2,4-3v-2c1-.67,2-1.33,3-2v-2c0.67-.33,1.33-0.67,2-1,0.33-1,.67-2,1-3h1v-2c0.67-.33,1.33-0.67,2-1,0.33-1,.67-2,1-3h1c0.67-2,1.33-4,2-6,0.67-.33,1.33-0.67,2-1v-2c0.67-.33,1.33-0.67,2-1v-2c0.67-.33,1.33-0.67,2-1v-3c0.67-.33,1.33-0.67,2-1v-2c0.67-.33,1.33-0.67,2-1v-2c0.67-.33,1.33-0.67,2-1,0.33-1.33.67-2.667,1-4,0.67-.333,1.33-0.667,2-1,0.33-1.333.67-2.667,1-4,0.67-.333,1.33-0.667,2-1,0.33-1.333.67-2.667,1-4l3-2v-3c0.67-.333,1.33-0.667,2-1v-2c0.67-.333,1.33-0.667,2-1v-2c0.67-.333,1.33-0.667,2-1,0.33-1.333.67-2.667,1-4,0.67-.333,1.33-0.667,2-1v-2l3-2v-3c1.33-1,2.67-2,4-3v-3l3-2v-2c0.67-.333,1.33-0.667,2-1,0.33-1,.67-2,1-3h1v-2c0.67-.333,1.33-0.667,2-1,0.33-1.333.67-2.667,1-4l3-2v-2h1c0.33-1,.67-2,1-3,0.67-.333,1.33-0.667,2-1v-2l3-2v-2c0.67-.333,1.33-0.667,2-1v-2c1.33-1,2.67-2,4-3,0.33-1,.67-2,1-3,0.67-.333,1.33-0.667,2-1v-2c0.67-.333,1.33-0.667,2-1,0.33-1.333.67-2.667,1-4l3-2v-3l3-2c0.33-1.333.67-2.667,1-4,0.67-.333,1.33-0.667,2-1v-2c0.67-.333,1.33-0.667,2-1v-2c0.67-.333,1.33-0.667,2-1v-2c0.67-.333,1.33-0.667,2-1,0.33-1.333.67-2.667,1-4,0.67-.333,1.33-0.667,2-1v-2h1v-2l3-2c0.33-1.333.67-2.667,1-4,0.67-.333,1.33-0.667,2-1v-2c0.67-.333,1.33-0.667,2-1v-2c0.67-.333,1.33-0.667,2-1v-2c0.67-.333,1.33-0.667,2-1,0.33-1.333.67-2.667,1-4,0.67-.333,1.33-0.667,2-1v-2c0.67-.333,1.33-0.667,2-1v-2c0.67-.333,1.33-0.667,2-1,0.33-1.333.67-2.667,1-4h1c0.33-1,.67-2,1-3l3-2v-3c0.67-.333,1.33-0.667,2-1v-2c0.67-.333,1.33-0.667,2-1v-2c0.67-.333,1.33-0.667,2-1v-2c0.67-.333,1.33-0.667,2-1a16.253,16.253,0,0,0,3-8,12.673,12.673,0,0,0-5-1c-1.44,1.694-5.04,3.886-7,5h-2c-0.33.667-.67,1.333-1,2l-4,1c-0.33.667-.67,1.333-1,2l-4,1c-0.33.667-.67,1.333-1,2l-4,1c-0.33.666-.67,1.333-1,2l-4,1v1c-1.8,1.374-1.97,1.573-5,2v2c-3.53.74-4.53,2.54-7,4h-2l-3,4h-2c-0.33.667-.67,1.333-1,2h-2c-0.67,1-1.33,2-2,3h-2v1l-3,1c-0.33.667-.67,1.333-1,2h-2c-0.33.666-.67,1.333-1,2l-3,1c-0.67,1-1.33,2-2,3h-2l-3,4h-2c-0.33.667-.67,1.333-1,2l-3,1v1a8.2,8.2,0,0,1-4,2v2h-2l-3,4h-2c-0.33.666-.67,1.333-1,2h-1c-0.33.667-.67,1.333-1,2h-2v1a7.851,7.851,0,0,1-4,2v2h-2c-1.67,2-3.33,4-5,6h-2c-1.33,1.666-2.67,3.333-4,5h-2v1c-2.27,1.9-3.73,4.128-7,5v2h-2q-4.005,4.5-8,9h-2l-6,7c-2.14,2.15-4.04,2.455-5,6-2.76.723-2.24,0.279-3,3-3.37.979-1.91,1.212-4,3v1h-2c-0.72,2.762-.28,2.237-3,3-0.72,2.762-.28,2.237-3,3-1.98,7.344-13.96,11.624-16,19h-2c-1.88,4.015-5.11,6.945-8,10-0.67.333-1.33,0.667-2,1v2h-1l-3,4c-2.61,2.621-5.85,3.834-7,8h-2c-0.85,3.181-3.07,4.868-5,7-0.67.333-1.33,0.667-2,1v2h-2c-1.66,3.68-7.17,10.15-10,13-1.33,1-2.67,2-4,3v2c-2,1.67-4,3.33-6,5-0.33,1-.67,2-1,3h-2a7.851,7.851,0,0,1-2,4h-1v2h-1c-0.67,1-1.33,2-2,3-0.67.33-1.33,0.67-2,1-0.33,1-.67,2-1,3-1.33,1-2.67,2-4,3v2c-2,1.67-4,3.33-6,5v2c-1.33,1-2.67,2-4,3v2c-2,1.67-4,3.33-6,5v2c-2,1.67-4,3.33-6,5v2c-1,.67-2,1.33-3,2-0.67,1-1.33,2-2,3h-1v2c-0.67.33-1.33,0.67-2,1-2.19,2.32-5.04,4.55-6,8h-2c-2.83,6.07-8.54,9.54-13,14q-3.495,4.005-7,8c-1.08,1-1.95.72-3,2-4.89.02-20.87,0.48-22,0-0.67-1-1.33-2-2-3-3.35-1.38-4.98,1.63-8,2-4.38-7.5-17.66-14.38-20-23h-2c-0.33-1-.67-2-1-3h-1v-2h-1v-2h-1v-3h-1v-2h-1v-10h-1c-1.23-4.46-.09-26.8,1-30h1v-3h1v-7q7.995-24,16-48h1v-2l3-2v-2l3-2v-3c0.67-.333,1.33-0.667,2-1,0.33-1.333.67-2.667,1-4l3-2c0.33-1.667.67-3.334,1-5,0.67-.333,1.33-0.667,2-1,0.33-1.333.67-2.667,1-4,0.67-.333,1.33-0.667,2-1v-3c0.67-.333,1.33-0.667,2-1v-2h1v-2h1v-2h1v-2h1v-2h1v-2c0.67-.333,1.33-0.667,2-1,0.67-2,1.33-4,2-6,0.67-.333,1.33-0.667,2-1,0.33-1.333.67-2.667,1-4,0.67-.333,1.33-0.667,2-1,0.33-1.333.67-2.667,1-4,0.67-.333,1.33-0.667,2-1,0.33-1.333.67-2.667,1-4,0.67-.333,1.33-0.667,2-1,0.33-1.333.67-2.667,1-4,0.67-.333,1.33-0.667,2-1,0.33-1.333.67-2.667,1-4,0.67-.333,1.33-0.667,2-1v-2h1v-2l3-2v-3c0.67-.333,1.33-0.667,2-1v-2c0.67-.333,1.33-0.667,2-1v-2c0.67-.333,1.33-0.667,2-1,0.67-2,1.33-4,2-6,0.67-.333,1.33-0.667,2-1,0.33-1.333.67-2.667,1-4,0.67-.333,1.33-0.667,2-1,0.33-1,.67-2,1-3h1c0.67-2,1.33-4,2-6,0.67-.333,1.33-0.667,2-1v-2c0.67-.333,1.33-0.667,2-1v-2c0.67-.333,1.33-0.667,2-1v-2c0.67-.333,1.33-0.667,2-1,0.33-1.333.67-2.667,1-4,0.67-.333,1.33-0.667,2-1v-2h1v-2l3-2c0.33-1.333.67-2.667,1-4,0.67-.333,1.33-0.667,2-1v-2l3-2c0.33-1.333.67-2.667,1-4l3-2v-2c0.67-.333,1.33-0.667,2-1,0.33-1.333.67-2.667,1-4l3-2c0.33-1.333.67-2.667,1-4,0.67-.333,1.33-0.667,2-1v-2c0.67-.333,1.33-0.667,2-1v-2c0.67-.333,1.33-0.667,2-1v-2c0.67-.333,1.33-0.667,2-1,0.33-1.333.67-2.667,1-4,0.67-.333,1.33-0.667,2-1,0.33-1.333.67-2.667,1-4h1c0.33-1.333.67-2.667,1-4h1c0.61-1.409-.5-4.171,1-5l8,1v-1c1.03-.631,2.11-2.617,4-2v1c4.3,0.536,5.1,2.36,8,4h2c0.33,0.667.67,1.333,1,2l4,1c0.33,0.667.67,1.333,1,2h7v1h2c0.33,0.667.67,1.333,1,2h2c0.67,1,1.33,2,2,3h2v1c0.67,0.333,1.33.667,2,1v2c1.67,1.333,3.33,2.667,5,4v2l3,2c0.33,1.666.67,3.333,1,5,0.67,0.333,1.33.667,2,1v2h1v4h1v3h1c1.47,4.658-.78,10.8,2,14v1h5c2.32-3.528,5.96-2.541,10-4,0.53-1.312.45,0.3,1-1v-4c0.73-1.2,5.69-2.129,7-3,0.67-1,1.33-2,2-3h2q6.495-7,13-14h3c0.33-.667.67-1.333,1-2,1.67-.333,3.33-0.667,5-1,0.33-.667.67-1.334,1-2h2c0.67-1,1.33-2,2-3h2c0.33-.667.67-1.333,1-2h1v-2c0.67-.333,1.33-0.667,2-1v-1c2.61-1.367,5.85.378,8-1,0.33-.667.67-1.333,1-2h1c0.33-.667.67-1.333,1-2h2c0.67-1,1.33-2,2-3h2c0.33-.667.67-1.333,1-2h2v-1l3-1c0.33-.667.67-1.333,1-2h2c0.67-1,1.33-2,2-3l4-1c0.33-.667.67-1.334,1-2l4-1c0.33-.667.67-1.333,1-2l4-1c0.33-.667.67-1.333,1-2l4-1c0.33-.667.67-1.333,1-2h2v-1h2c0.67-1,1.33-2,2-3,1.67-.333,3.33-0.667,5-1,0.33-.667.67-1.333,1-2h2v-1h2v-1h2v-1h2v-1l4-1c0.33-.667.67-1.333,1-2h3c0.33-.667.67-1.333,1-2l6-2c0.33-.667.67-1.333,1-2h3v-1h2v-1h2v-1l6-2v-1h3v-1l4-1v-1h2v-1h2v-1h2v-1h2v-1h2v-1h3c0.33-.667.67-1.334,1-2h3v-1l4-1v-1h2v-1h3c0.33-.667.67-1.333,1-2h2v-1l6-1v-1h2v-1l6-1v-1h2v-1h8v-1h5v-1h13c1.4-.18-0.41-1.072,1-1v1h3c0.33,0.667.67,1.333,1,2h2c0.67,1,1.33,2,2,3l6,1c0.33,0.667.67,1.333,1,2h3v1h2v1l4,1v1l9,3c0.33,1,.67,2,1,3q3.495,3,7,6c0.67,1,1.33,2,2,3h2c1.33,1.666,2.67,3.333,4,5h2q5.505,6,11,12c0.33,1.333.67,2.667,1,4h1c2.52,5.8.5,15.3-1,20v5h-1v3h-1v3h-1v3h-1v3c-0.67.333-1.33,0.667-2,1v3h-1c-0.33,1.333-.67,2.667-1,4h-1c-0.67,2-1.33,4-2,6h-1c-0.33,1.333-.67,2.667-1,4-1.73,3.15-3.39,3.044-4,8h-2c-0.24,2.243-.09,2.656-1,4h-1v2c-0.67.333-1.33,0.667-2,1v2h-1v2h-1v2h-1v2l-3,2c-0.33,1.333-.67,2.667-1,4-0.67.333-1.33,0.667-2,1-0.33,1.333-.67,2.667-1,4-0.67.333-1.33,0.667-2,1v2c-0.67.333-1.33,0.667-2,1v2c-0.67.333-1.33,0.667-2,1v2c-0.67.333-1.33,0.667-2,1v2h-1c-0.33,1-.67,2-1,3-0.67.333-1.33,0.667-2,1v2c-0.67.333-1.33,0.667-2,1v2c-0.67.333-1.33,0.667-2,1v2c-0.67.333-1.33,0.667-2,1v2h-1c-0.33,1-.67,2-1,3-0.67.333-1.33,0.667-2,1v2l-3,2v2c-0.67.333-1.33,0.667-2,1v2h-1c-0.33,1-.67,2-1,3-0.67.333-1.33,0.667-2,1v2l-3,2c-0.33,1.333-.67,2.667-1,4-0.67.333-1.33,0.667-2,1-0.33,1-.67,2-1,3l-3,2v2c-0.67.333-1.33,0.667-2,1v2h-1c-0.33,1-.67,2-1,3-0.67.333-1.33,0.667-2,1v2l-3,2v2c-0.67.333-1.33,0.667-2,1v2c-1.33,1-2.67,2-4,3v2c-0.67.333-1.33,0.667-2,1-0.33,1-.67,2-1,3h-1v2l-3,2v2h-1c-0.33,1-.67,2-1,3-0.67.333-1.33,0.667-2,1v2l-3,2v2c-0.67.333-1.33,0.667-2,1v2h-1c-0.33,1-.67,2-1,3-0.67.333-1.33,0.667-2,1v2l-3,2c-0.33,1.333-.67,2.667-1,4-0.67.333-1.33,0.667-2,1v2l-3,2c-0.33,1.333-.67,2.667-1,4l-3,2v2c-0.67.333-1.33,0.667-2,1-0.33,1.333-.67,2.667-1,4-0.67.333-1.33,0.667-2,1v2c-0.67.333-1.33,0.667-2,1v2c-0.67.333-1.33,0.667-2,1v2c-0.67.333-1.33,0.667-2,1v2h-1c-0.33,1-.67,2-1,3-0.67.33-1.33,0.67-2,1v2c-0.67.33-1.33,0.67-2,1v2c-0.67.33-1.33,0.67-2,1v2c-0.67.33-1.33,0.67-2,1-0.33,1.33-.67,2.67-1,4-1,.67-2,1.33-3,2v2h-1v2c-0.67.33-1.33,0.67-2,1-0.33,1.33-.67,2.67-1,4-1,.67-2,1.33-3,2-0.33,1.33-.67,2.67-1,4-0.67.33-1.33,0.67-2,1v2c-0.67.33-1.33,0.67-2,1-0.33,1.33-.67,2.67-1,4-0.67.33-1.33,0.67-2,1v2c-0.67.33-1.33,0.67-2,1-0.33,1-.67,2-1,3h-1c-0.33,1.33-.67,2.67-1,4h-1c-0.33,1-.67,2-1,3-0.67.33-1.33,0.67-2,1-0.33,1.33-.67,2.67-1,4-0.67.33-1.33,0.67-2,1v2c-0.67.33-1.33,0.67-2,1v2c-0.67.33-1.33,0.67-2,1-0.33,1.33-.67,2.67-1,4-1,.67-2,1.33-3,2v3c-0.67.33-1.33,0.67-2,1v2c-0.67.33-1.33,0.67-2,1v2c-0.67.33-1.33,0.67-2,1-0.33,1.33-.67,2.67-1,4-0.67.33-1.33,0.67-2,1-0.33,1.33-.67,2.67-1,4-0.67.33-1.33,0.67-2,1-0.33,1.33-.67,2.67-1,4-0.67.33-1.33,0.67-2,1-0.33,1.33-.67,2.67-1,4-1,.67-2,1.33-3,2v3c-0.67.33-1.33,0.67-2,1v2c-0.67.33-1.33,0.67-2,1v2c-0.67.33-1.33,0.67-2,1-0.33,1.33-.67,2.67-1,4-0.67.33-1.33,0.67-2,1-0.33,1.33-.67,2.67-1,4-0.67.33-1.33,0.67-2,1-0.67,2-1.33,4-2,6-0.67.33-1.33,0.67-2,1v4h-1c-0.33,1.33-.67,2.67-1,4h-1v3h-1c-0.33,1.33-.67,2.67-1,4h-1c-0.33,2-.67,4-1,6a108.935,108.935,0,0,0-9,41c2.44,1.55.62,1.19,2,3,0.8,1.05,3.01,1.76,4,3,4.98,0.39,5.63,1.34,10,0h5v-1h2v-1h3v-1h5v-1h3v-1h2v-1c2,0.33,4,.67,6,1,1.05-.41-0.12-2,3-2,1.26,0,1.79,1.88,4,1,0.33-.67.67-1.33,1-2h2v-1h2v-1h3c0.33-.67.67-1.33,1-2h3v-1h2v-1c1.33-.33,2.67-0.67,4-1v-1h3v-1h2c0.33-.67.67-1.33,1-2h3v-1c1.33-.33,2.67-0.67,4-1v-1h3v-1h2c0.33-.67.67-1.33,1-2,2-.33,4-0.67,6-1,0.33-.67.67-1.33,1-2h2v-1h3v-1h2v-1h2c0.33-.67.67-1.33,1-2,3.33-.33,6.67-0.67,10-1v-1h2v-1h2c0.33-.67.67-1.33,1-2h3v-1c1.33-.33,2.67-0.67,4-1v-1h3v-1h2v-1h2v-1h2v-1c2-.67,4-1.33,6-2v-1c1.67-.33,3.33-0.67,5-1v-1h2v-1h3v-1h2v-1h3v-1h3c1.33-1.67,2.67-3.33,4-5,0.9-.41,1.93,1.91,4,1,0.33-.67.67-1.33,1-2,1.33-.33,2.67-0.67,4-1,0.33-.67.67-1.33,1-2,1-.33,2-0.67,3-1v-1c1.33-.33,2.67-0.67,4-1v-1c2-.67,4-1.33,6-2v-1h3v-1h2c0.33-.67.67-1.33,1-2h4v-1c1.33-.33,2.67-0.67,4-1v-1h3v-1h2v-1c3.51-1.8,5.78-.62,8-4h1v-3a39.242,39.242,0,0,1,8-1c2.02-3.19,4.87-3.89,8-6,0.33-.67.67-1.33,1-2h2c0.33-.67.67-1.33,1-2h2c0.33-.67.67-1.33,1-2h2v-1h3c0.33-.67.67-1.33,1-2h2c0.33-.67.67-1.33,1-2h2c0.33-.67.67-1.33,1-2h3c0.67-1,1.33-2,2-3,1.33-.33,2.67-0.67,4-1,0.33-.67.67-1.33,1-2h3v-1c1-.33,2-0.67,3-1,0.33-.67.67-1.33,1-2h2c0.67-1,1.33-2,2-3h2c0.33-.67.67-1.33,1-2h2v-1c1.22-.62,3.31.19,4-1v-4c-1.82-1.52-.93-1.89-2-4h-1v-3c-0.67-.33-1.33-0.67-2-1v-2h-1v-4h-1c-0.33-1.33-.67-2.67-1-4h-1v-5h-1v-3h-1c-0.92-2.94,1.16-9.06,1-10h-1c-2.21-11.84,2.47-27.23,5-35v-5h1c0.33-1.333.67-2.667,1-4h1c0.33-2,.67-4,1-6,0.67-.333,1.33-0.667,2-1,0.33-2,.67-4,1-6h1v-2c0.67-.333,1.33-0.667,2-1v-3c0.67-.333,1.33-0.667,2-1,0.33-1.333.67-2.667,1-4,0.67-.333,1.33-0.667,2-1v-2h1v-2h1v-2c0.67-.333,1.33-0.667,2-1q1.995-6,4-12c0.67-.333,1.33-0.667,2-1,0.67-2,1.33-4,2-6,0.67-.333,1.33-0.667,2-1,0.33-1.333.67-2.667,1-4,0.67-.333,1.33-0.667,2-1,0.33-1.333.67-2.667,1-4,0.67-.333,1.33-0.667,2-1v-2c0.67-.333,1.33-0.667,2-1v-2h1c0.33-1,.67-2,1-3,0.67-.333,1.33-0.667,2-1v-2c0.67-.333,1.33-0.667,2-1,0.33-1,.67-2,1-3h1c0.33-1.333.67-2.667,1-4l3-2v-2c0.67-.333,1.33-0.667,2-1v-2c0.67-.333,1.33-0.667,2-1v-2c0.67-.333,1.33-0.667,2-1v-2c0.67-.333,1.33-0.667,2-1,0.33-1.333.67-2.667,1-4,0.67-.333,1.33-0.667,2-1v-2c0.67-.333,1.33-0.667,2-1v-2c0.67-.333,1.33-0.667,2-1,0.33-1.333.67-2.667,1-4l3-2v-2c0.67-.333,1.33-0.667,2-1,0.33-1.333.67-2.667,1-4,0.67-.333,1.33-0.667,2-1,0.33-1.333.67-2.667,1-4,0.67-.333,1.33-0.667,2-1v-2c0.67-.333,1.33-0.667,2-1v-2l3-2v-2l3-2v-2l3-2v-2l3-2v-2l3-2v-2l3-2v-2l3-2v-2l3-2v-2c0.67-.333,1.33-0.667,2-1v-2c1.67-1.333,3.33-2.667,5-4v-2l3-2v-2c1.33-1,2.67-2,4-3v-2l6-5v-2l6-5v-2c1.33-1,2.67-2,4-3v-2h1c2.15-2.557,5-4.387,6-8h2c0.84-3.181,3.07-4.868,5-7,0.67-.333,1.33-0.667,2-1v-2h2c1.04-3.882,3.65-4.577,6-7v-1c0.67-.333,1.33-0.667,2-1v-2l3-2c1.67-2,3.33-4,5-6,2.85-2.848,6.76-4.532,8-9h2c2.47-5.346,7.11-8.11,11-12q4.995-5.5,10-11h2c0.67-1,1.33-2,2-3l4-1c0.67-1,1.33-2,2-3,1.67-.333,3.33-0.667,5-1v-1h2v-1h12v-1h2c0.33-.667.67-1.333,1-2h2v-1l13,2c1.93-.119,5.16-2.34,8-1l3,4c1.67,0.333,3.33.667,5,1v1h10v-1l13,2c0.33,0.667.67,1.333,1,2h3c0.33,0.667.67,1.333,1,2h2c0.33,0.667.67,1.333,1,2h2c1.67,2,3.33,4,5,6h2c0.33,1,.67,2,1,3,1.67,1.333,3.33,2.667,5,4v2l3,2v2c0.67,0.333,1.33.667,2,1v2l3,2q2.505,7.5,5,15c-0.33,3-.67,6-1,9,2,7.847-2.16,17.627-3,26l6,2c-0.33,2-.67,4-1,6h1v1h3c0.67-2,1.33-4,2-6l4,1v-1c3.42-2.513,1.11-3.921,3-7,0.67-.333,1.33-0.667,2-1v-2h1l3-4c2.79-1.7,1.28,1.549,4-2h1c2.72-5.177-4.35-8.352,6-9,0.67-2.666,1.33-5.334,2-8h2c0.09-.167,4-6,4-6h2c0.33-1,.67-2,1-3,1.67,0.333,3.33.667,5,1q1.005-5.5,2-11c0.87,0.308,2.21,1.912,4,1v-1c1.99-1.762.83-2.179,2-4,0.67-.333,1.33-0.667,2-1v-2h1v-2l3-2v-2l3-2v-2l3-2v-3h1v-2c0.67-.333,1.33-0.667,2-1,0.33-1.667.67-3.334,1-5l3-1v-1a25.554,25.554,0,0,0,7-9c0.87,0.308,2.21,1.912,4,1v-1h1c0.33-2,.67-4,1-6h1c0.33-1,.67-2,1-3h2v-1h2c0.67-1,1.33-2,2-3h1c0.33-1,.67-2,1-3l3-1v-5h-1v-4l6,1a7.921,7.921,0,0,1,2-4h1c0.33-1.333.67-2.667,1-4,0.67-.333,1.33-0.667,2-1,0.33-1.333.67-2.667,1-4,0.67-.333,1.33-0.667,2-1v-2h1c0.33-1,.67-2,1-3h2c0.33-1.333.67-2.667,1-4h2c1.08-4.1.56-1.11,3-3,0.67-1,1.33-2,2-3h1v-2c0.67-.333,1.33-0.667,2-1v-2h1c0.73-1.84-1.37-3.463-1-4h1v-1h6a21.333,21.333,0,0,1,3-8c0.67-.333,1.33-0.667,2-1,0.33-1,.67-2,1-3,1.45-.991,2.99.317,4-1,0.67-2.333,1.33-4.667,2-7,1.7-1.142,3.95.724,5-1v-7c1.33-2.333,2.67-4.667,4-7,4.3-.227,4.63-1.146,7-3v-1c2.33-.667,4.67-1.333,7-2,0.58-2.816,6.22-13.02,8-14,3.08-1.693,1.88,1.853,5-2h1v-4l3-2v-3c1.33-1,2.67-2,4-3v-2c0.67-.333,1.33-0.667,2-1,1.67-2,3.33-4,5-6h2c0.33-.667.67-1.333,1-2h1v-2c0.97-1.175,3.93-1.249,5-2v-1c0.67-.333,1.33-0.667,2-1v-2c0.81-.964,8.48-3.637,10-4v-2l3-2v-2h1v-2h1v-2h1c1.48-3.077-.88-1.744,2-4v-1h4c0.58,0.416.15,1.633,2,1v-1c3.47-2.533.3-1.849,2-5l3-2c2.3-3.275,2.35-5.769,7-7v-2l3-1v-1c1.77-1.645,2.32-2.068,3-5,2.35,0.464,3.1,1.663,5,2v-1l3-1c1.01-3.983,13.85-15.939,18-17v-2h2q4.005-5,8-10h2c1.67-2,3.33-4,5-6h2c0.67-1,1.33-2,2-3h2l3-4h2c0.33-.667.67-1.333,1-2h2v-1c1.33-1,2.67-2,4-3v-2c0.67-.333,1.33-0.667,2-1v-2c0.67-.333,1.33-0.667,2-1v-2l3-2v-2c1.33-1,2.67-2,4-3v-1h2c0.33-.667.67-1.333,1-2h2c0.67-1,1.33-2,2-3C3328.33,444.755,3332.69,440.223,3341,440ZM1796,617c-0.98,3.374-1.21,1.913-3,4h-1v2h-2c-1.67,2-3.33,4-5,6-0.67.333-1.33,0.667-2,1v2c-0.67.333-1.33,0.667-2,1v2l-3,2v2c-1.85,2.578-3.81,1.671-5,6h-2q-2.505,3.5-5,7c-0.67.333-1.33,0.667-2,1v2q-3.495,3-7,6v2q-3.495,3-7,6l-15,16q-3.495,3-7,6v2c-1.67,1.333-3.33,2.667-5,4v2c-1.33,1-2.67,2-4,3v2c-1.67,1.333-3.33,2.667-5,4v6l6-1v-1h1v1h3v1h6v1h18v1h5v-1h4v1l10,1v1h17v1h22v1h4v-1l18,1c4.86,1.378,13.51-.55,19,1v1h31v1l22,1c1.67-.333,3.33-0.667,5-1v1h8c1.79,0.519,5.82,1.6,8,2-0.87,3.428-2.07,2.575-3,6,3.8,0.6,3.49.481,7,1v2c-2.06.336-2,1-2,1h-7v1h-2v1h-3v1h-3v1l-4,1v1h-3v1l-4,1v1l-4,1v1h-2v1l-6,2v1h-6v1h-2v1h-7c-0.33.666-.67,1.333-1,2-0.67.333-1.33,0.667-2,1v6c-1.2,2.265-4.5,1.877-8,2v-1h-3l-3,5h-27c-0.94,1.8-1.38,1.574-2,4l-41,2v1h-4v1h-3v1l-11-1c-5.91,1.515-21.62-.2-31,0-12.06.258-28.15,1-44,1h-21c-2.37.709-4.4,1.8-8,2-0.67,1-1.33,2-2,3h-1v2l-3,2v2l-3,2v2c-0.67.333-1.33,0.667-2,1v2c-0.67.333-1.33,0.667-2,1v2c-0.67.333-1.33,0.667-2,1v2c-0.67.333-1.33,0.667-2,1-0.33,1.333-.67,2.667-1,4l-3,2v3c-0.67.333-1.33,0.667-2,1-0.33,1.333-.67,2.667-1,4-0.67.333-1.33,0.667-2,1-0.67,2-1.33,4-2,6-0.67.333-1.33,0.667-2,1v3h-1c-0.33,1.333-.67,2.667-1,4h-1c-0.33,2.666-.67,5.334-1,8-0.67.333-1.33,0.667-2,1v2c-0.67.333-1.33,0.667-2,1v2l-3,2v2h-1c0.67,2,1.33,4,2,6h-1c-1.68,2.055-2.32.839-4,2l-3,4h-1v2h-1c-0.67,2-1.33,4-2,6h-1c-0.33,2-.67,4-1,6h-1v3h-1c-0.33,1-.67,2-1,3-0.67.333-1.33,0.667-2,1v2c-0.67.333-1.33,0.667-2,1v2h-1v3c-0.67.333-1.33,0.667-2,1v2h-1v3c-0.67.333-1.33,0.667-2,1v2h-1v3h-1l-3,9h-1c-0.33,1.333-.67,2.667-1,4h-1v3c-0.67.333-1.33,0.667-2,1-0.33,2-.67,4-1,6-0.67.333-1.33,0.667-2,1v3h-1v3h-1c-0.33,1.333-.67,2.667-1,4h-1v3h-1v2c-0.67.333-1.33,0.667-2,1-0.33,2-.67,4-1,6-0.67.333-1.33,0.667-2,1-0.33,1.666-.67,3.333-1,5h-1c-0.33,1.333-.67,2.667-1,4h-1v3h-1v3c-0.67.333-1.33,0.667-2,1v4h-1c-0.33,1.333-.67,2.667-1,4h-1c-0.33,2-.67,4-1,6h-1v2h-1v4h-1v3h-1v2h-1c-0.33,2.666-.67,5.334-1,8h-1v3h-1v3h-1c-0.67,3.33-1.33,6.67-2,10h-1c-0.33,2.33-.67,4.67-1,7h-1v2h-1v8h-1v2c-0.67.33-1.33,0.67-2,1-0.33,2.33-.67,4.67-1,7h-1v2h-1v4h-1v3h-1v3h-1q-1.5,7.005-3,14h-1v5h-1v4h-1v3h-1v5h-1v4h-1v3h-1c-0.33,3.33-.67,6.67-1,10h-1v3h-1v5h-1v5h-1v3h-1v4h-1v6h-1v3h-1v4h-1v6h-1v4h-1v4h-1v6h-1c-0.33,1.33-.67,2.67-1,4h-1c-0.33,2-.67,4-1,6-0.67.33-1.33,0.67-2,1-0.33,3-.67,6-1,9h-1v3h-1v5h-1c-0.33,3-.67,6-1,9h-1v6h-1v8h-1v3h-1c-0.33,1.33-.67,2.67-1,4h-1v3c-0.67.33-1.33,0.67-2,1-0.33,2-.67,4-1,6-0.67.33-1.33,0.67-2,1v4h-1c-0.33,1.33-.67,2.67-1,4h-1c-0.67,3-1.33,6-2,9-1,.67-2,1.33-3,2v2c-0.67.33-1.33,0.67-2,1v3h-1v2h-1v1h-1v1h-4c-0.33.67-.67,1.33-1,2h-2c-0.33.67-.67,1.33-1,2h-2v1c-1.35.91-1.76,0.74-4,1-2.37-4.19-3.13-2.03-7-1v-3h-1v-1h-6v1c-1.67.33-3.33,0.67-5,1v-1h-1v-3h-1c-0.33-1.33-.67-2.67-1-4h-1v-3h-1v-3h-1v-2h-1v-3h-1c-0.33-1.33-.67-2.67-1-4h-1c-0.33-2.33-.67-4.67-1-7h-1v-2h-1c-1.67-4.78,1.14-14.1,2-17v-6h1v-9h1v-6h1v-6h1v-9h1v-6h1v-5h1v-9h1v-4h1v-4h1v-7h1v-5h1v-4h1v-7h1v-5h1v-4h1v-6h1v-6h1v-4h1v-4h1v-6h1v-3h1v-4h1c0.33-3.33.67-6.67,1-10h1v-3h1v-6h1v-4h1v-3h1c0.33-3.33.67-6.67,1-10h1v-3h1c0.33-3,.67-6,1-9h1v-3h1q1.5-7,3-14h1c0.33-2.67.67-5.33,1-8h1v-2h1v-6h1v-3h1v-3h1c0.33-2.666.67-5.334,1-8h1v-2h1v-5h1v-4h1v-2h1v-3h1c0.33-2.333.67-4.667,1-7h1v-2h1v-5h1c0.33-1.333.67-2.667,1-4h1v-5h1v-3h1v-2h1c0.33-2.333.67-4.667,1-7h1v-2h1c0.67-3,1.33-6,2-9h1c0.33-2,.67-4,1-6h1v-2h1v-3h1v-4h1c0.33-1.333.67-2.667,1-4h1v-4h1v-2h1c1.28-2.511.82-5.308,2-8h1v-2h1c0.33-2,.67-4,1-6,0.67-.333,1.33-0.667,2-1,0.33-2,.67-4,1-6,0.67-.333,1.33-0.667,2-1,0.33-1.667.67-3.334,1-5h1c0.33-1.333.67-2.667,1-4h1c0.33-3.333.67-6.667,1-10,0.67-.333,1.33-0.667,2-1,0.33-1.333.67-2.667,1-4,0.67-.333,1.33-0.667,2-1v-2h1v-2h1v-2h1v-2h1v-2h1v-2c0.67-.333,1.33-0.667,2-1,0.33-1.667.67-3.334,1-5,0.67-.333,1.33-0.667,2-1,0.33-1.667.67-3.334,1-5,0.67-.333,1.33-0.667,2-1v-3h1v-2h1v-2h1v-2h1v-2h1v-2h1v-2h1v-3c0.67-.333,1.33-0.667,2-1,0.67-2.333,1.33-4.667,2-7h2a10.04,10.04,0,0,1,2-4h1c1.53-3.521-1.46-6.6-2-9-8.68-.064-19.09,1-26,3h-20v1h-1v-1l-6-1v1h-2v1h-3v1l-28,1v-1l-3-1c-1.67-2-3.33-4-5-6h-2c-0.33-.667-0.67-1.333-1-2h-2v-1c-3.03-1.831-.73.8-3-2h-1v-3h-1c-0.33-1.333-.67-2.667-1-4h-1v-5h-1v-3h-1v-3h-1c0.33-2.666.67-5.334,1-8-0.09-2.047-1-2-1-2q0.495-8,1-16c-4.08-1.726-5.14-2.881-5-9l10-1c3.2,0.9,9.68,3.679,15,2v-1h3v-1l11,1v-1l10-1v-1c0.67,0.333,1.33.667,2,1,5.21,0.477,8.59-1.011,12-2h14v-1h11v-1h25v-1h38v-1h3v-1l6-2c1.33-1.667,2.67-3.334,4-5,0.67-.333,1.33-0.667,2-1v-2c1.33-1,2.67-2,4-3v-2c0.67-.333,1.33-0.667,2-1v-3h1v-2c0.67-.333,1.33-0.667,2-1,0.33-1.333.67-2.667,1-4l3-1c1.33-1.667,2.67-3.334,4-5,0.67-.333,1.33-0.667,2-1v-2c0.67-.333,1.33-0.667,2-1,0.33-1,.67-2,1-3,1.33-1,2.67-2,4-3v-2l3-2c0.33-1.333.67-2.667,1-4l3-2v-2c0.67-.333,1.33-0.667,2-1v-2l3-2v-2q4.005-3.5,8-7v-2h1c1.91-2.277,4.11-3.728,5-7h2c1.01-3.858,2.93-3.142,4-7h2c1.04-3.882,3.66-4.579,6-7v-1c0.67-.333,1.33-0.667,2-1v-2c0.67-.333,1.33-0.667,2-1,2.32-2.455,7.07-6.66,8-10,2.76-.723,2.24-0.279,3-3h2l6-7h2c0.33-.667.67-1.334,1-2h1v-2l6-5v-2c0.67-.333,1.33-0.667,2-1l3-4c1.67-1.333,3.33-2.667,5-4,0.33-.667.67-1.333,1-2l3-1v-2h2q4.005-4.5,8-9h2c0.33-.667.67-1.334,1-2l3-2v-1h2v-1a7.874,7.874,0,0,1,4-2v-2h2c1.77-3.933,5.95-9.16,7-13,2.76-.723,2.24-0.279,3-3,9.04-1.79,10.33.184,17,3h3c0.33,0.667.67,1.333,1,2l4,1c0.33,0.666.67,1.333,1,2l6,2c0.33,0.666.67,1.333,1,2h2l3,4h2c0.33,0.667.67,1.333,1,2,1.33,1,2.67,2,4,3v2l3,2c0.67,2,1.33,4,2,6,0.67,0.333,1.33.667,2,1v3h1v4c1.01,3.058,4,14.5,2,20h-1v2h-1c-0.33,1.666-.67,3.333-1,5-0.67.333-1.33,0.667-2,1-0.33,1.333-.67,2.667-1,4-1.33,1-2.67,2-4,3C1799.8,613.23,1799.56,615.988,1796,617ZM916,652v2c3.534,0.745,4.53,2.544,7,4h2l2,3h2q0.5,1,1,2h2v1l3,1q0.5,1,1,2h2l3,4h2l3,4h2l6,7h2l2,3h2l2,3h2q0.5,1,1,2l3,2v1h2v1a8.135,8.135,0,0,0,4,2v2c3.227,1.393,6.064,3.264,7,7,2.762,0.723,2.237.279,3,3,2.762,0.723,2.237.279,3,3a10.1,10.1,0,0,1,7,7,7.537,7.537,0,0,1,6,6c2.76,0.723,2.24.279,3,3h2c0.33,1,.67,2,1,3l6,5v2l6,5v2c1.67,1.333,3.33,2.667,5,4v2h1c1.9,2.269,4.12,3.73,5,7h2v2a19.188,19.188,0,0,1,6,6v2c1.33,1,2.67,2,4,3v2c0.67,0.333,1.33.667,2,1,0.33,1,.67,2,1,3h1v2c0.67,0.333,1.33.667,2,1v2l3,2v2l3,2c0.33,1.333.67,2.667,1,4l3,2v2l3,2c0.33,1.333.67,2.667,1,4,0.67,0.333,1.33.667,2,1,0.33,1,.67,2,1,3h1c0.33,1.333.67,2.667,1,4h1v2c0.67,0.333,1.33.667,2,1,0.33,1.333.67,2.667,1,4,0.67,0.333,1.33.667,2,1,0.33,1.333.67,2.667,1,4,0.67,0.333,1.33.667,2,1v2h1v2c0.67,0.333,1.33.667,2,1,0.67,2,1.33,4,2,6,0.67,0.333,1.33.667,2,1v2h1v2h1v2h1v2h1v2h1v2h1v2h1v2h1v2h1v2h1v2h1v3c0.67,0.333,1.33.667,2,1v3h1v2h1v2h1v2h1c0.67,2,1.33,4,2,6h1c0.33,1.666.67,3.333,1,5h1v2h1v3h1v3h1v3h1v3h1v3c0.67,0.333,1.33.667,2,1v4h1v2h1c0.33,1.666.67,3.333,1,5h1v4h1c0.33,1.333.67,2.667,1,4h1v5h1v3h1v4h1v4c3.29,9.682,5.92,21,9,31q0.495,8,1,16h1v4h1v6h1v9h1v9h1v16c1.69,6.1,1,16.26,1,24,0.01,17.15.85,35.76-3,49q-0.495,8.505-1,17h-1c-0.33,3.33-.67,6.67-1,10h-1v5h-1v4h-1v6q-7.005,21-14,42h-1c-0.33,1.33-.67,2.67-1,4h-1v3h-1v2h-1c-0.33,1.33-.67,2.67-1,4h-1v3h-1c-0.33,1.33-.67,2.67-1,4h-1v2h-1v3c-0.67.33-1.33,0.67-2,1-0.67,2-1.33,4-2,6h-1v2c-0.67.33-1.33,0.67-2,1l-3,9c-1.33.33-2.67,0.67-4,1-2.32-14.53.34-35.48-2-50q-0.495-14.505-1-29h-1v-10h-1v-14c-2.36-7.96-3.65-19.12-6-27-0.33-3.67-.67-7.33-1-11h-1v-3h-1v-4h-1v-4h-1v-2h-1c-0.33-2-.67-4-1-6-0.67-.33-1.33-0.67-2-1v-3h-1v-3h-1v-3h-1v-4h-1v-23h-1v-14h-1q-0.495-6-1-12h-1v-4h-1v-5h-1q-0.495-6-1-12h-1v-3h-1c-0.33-2.666-.67-5.334-1-8h-1v-3h-1v-4h-1c-0.33-2.666-.67-5.334-1-8h-1q-1.005-5.5-2-11h-1c-0.33-1.667-.67-3.334-1-5h-1v-2h-1c-0.33-2-.67-4-1-6h-1c-0.33-1.333-.67-2.667-1-4h-1c-0.33-2-.67-4-1-6h-1v-2h-1v-3h-1c-0.67-2-1.33-4-2-6h-1v-2h-1v-2h-1v-2h-1v-2h-1v-2h-1v-2h-1v-2h-1v-2c-0.67-.333-1.33-0.667-2-1v-3c-0.67-.333-1.33-0.667-2-1v-2h-1v-3c-0.67-.333-1.33-0.667-2-1-0.33-1.333-.67-2.667-1-4l-3-2c-0.33-1.333-.67-2.667-1-4-0.67-.333-1.33-0.667-2-1-0.33-1.333-.67-2.667-1-4-0.67-.333-1.33-0.667-2-1v-2c-0.67-.333-1.33-0.667-2-1v-2c-0.67-.333-1.33-0.667-2-1v-2c-0.67-.333-1.33-0.667-2-1-0.33-1.333-.67-2.667-1-4-0.67-.333-1.33-0.667-2-1v-2l-4-3v-2l-3-2v-2l-3-2v-2l-4-3v-2l-3-2v-2l-3-2v-2l-7-6v-2l-10-9c-2.068-2.121-1.535-4-5-5v-2l-7-6v-1h-2l-6-7c-2.121-2.067-4-1.535-5-5-4.509-1.118-6.061-5.351-9-8l-9-5-4-5h-2v-1l-3-1q-0.5-1-1-2h-2l-3-4h-2q-0.5-1-1-2h-2q-0.5-1-1-2h-2q-0.5-1-1-2h-2l-1-2-4-1-2-3-6-2v-1l-3-1q-0.5-1-1-2l-4-1q-0.5-1-1-2l-6-2q-0.5-1-1-2h-3q-0.5-1-1-2h-2v-1h-2v-1h-2v-1h-2v-1h-2v-1h-2v-1h-2v-1h-2v-1h-2v-1h-2v-1h-2v-1l-4-1v-1h-2v-1h-3v-1h-3v-1h-3v-1h-3v-1l-4-1v-1h-3v-1h-3v-1h-3v-1h-3v-1h-3v-1h-2v-1l-8-1v-1h-3v-1h-4v-1h-4v-1h-2v-1h-5v-1h-4v-1h-3v-1h-4v-1h-9v-1h-5v-1h-5v-1H734v-1l-14-1v-1H697v-1c-4.566-1.3-16.863.107-20,1H654c-10.334,2.993-23.934,3.054-34,6h-9v1h-4v1l-11,2v1h-3v1l-11,2v1l-8,1v1l-4,1v1h-4q-0.5,1-1,2l-6,1v1l-4,1v1l-6,1v1h-2v1l-6,1q-0.5,1-1,2h-3v1l-4,1v1h-2v1h-3q-0.5,1-1,2h-2v1h-3q-0.5,1-1,2h-3v1l-4,1v1h-2v1h-3l-1,2h-2l-1,2h-2l-1,2-4,1-1,2h-2v1h-2l-2,3h-2l-1,2-4,1-2,3h-2v1l-4,1-1,2h-1l-1,2h-2l-2,3h-2v1l-3,1-1,2h-2l-4,5h-2l-1,2h-2l-2,3h-2l-1,2c-2.773,2.622-8.4,9-12,10v2h-2l-8,9h-2l-6,7-3,2-1,3c-2.54,2.808-5.8,3.586-7,8h-2c-1.784,4.021-5.146,6.976-8,10l-2,1v2l-3,2v2l-2,1v2l-5,4v2l-3,2v2l-3,2v2l-3,2v2l-3,2v2h-1v2l-2,1q-0.5,2-1,4l-2,1-1,4-2,1-1,3h-1v2h-1v2h-1v2l-2,1q-0.5,2-1,4l-2,1-1,4h-1v2h-1v2h-1v2h-1v2h-1l-1,4h-1l-1,4h-1v2h-1v2h-1v2l-2,1v2h-1q-1,4.5-2,9h-1q-0.5,2-1,4h-1q-0.5,3-1,6h-1q-0.5,2.5-1,5h-1v2h-1v3h-1v2h-1v3h-1v3h-1v5h-1v3h-1v3h-1v3h-1v5h-1v3h-1v3h-1v5h-1v4h-1v5h-1q-0.5,6.5-1,13h-1v5h-1q-1,21.495-2,43h-1v5h-1v2h-1v3h-1v2h-1v3c-0.667.33-1.333,0.67-2,1-0.334,2.33-.667,4.67-1,7h-1c-0.333,2.33-.667,4.67-1,7h-1v6h-1v6h-1v4h-1q-0.5,7.5-1,15h-1v4h-1v8h-1v10h-1v8h-1v10h-1v13c-4.43,15.6-1.917,41.9-2,61h-3l-2-6h-1v-2c-0.667-.33-1.333-0.67-2-1v-3c-0.667-.33-1.333-0.67-2-1-0.334-1.33-.667-2.67-1-4h-1v-2h-1v-2h-1v-2h-1v-2h-1v-3c-0.667-.33-1.334-0.67-2-1v-3h-1c-0.333-1.33-.667-2.67-1-4h-1v-3h-1v-2h-1v-3h-1v-2h-1v-3h-1v-2h-1v-3h-1v-2h-1v-3h-1v-2h-1v-3h-1v-3h-1v-3h-1v-4h-1v-3h-1v-3h-1v-3h-1q-0.5-4.5-1-9h-1l-1-10h-1v-4h-1v-5h-1v-7h-1v-6h-1v-5h-1v-9h-1v-11h-1v-7h-1v-30q0.5-13.5,1-27h1v-15h1v-7h1v-4h1q0.5-7,1-14h1v-5h1v-4h1v-8h1v-3h1v-3h1v-5h1v-3h1v-3h1v-5h1v-3h1q1-6,2-12h1v-3h1v-3h1v-3h1v-2h1q1-4.5,2-9h1v-2h1v-3h1v-2h1q0.5-3,1-6h1v-3h1v-2h1v-3h1v-3h1v-2l2-1v-3h1v-2h1v-2h1v-2h1l2-6h1v-3l2-1q0.5-2.5,1-5l2-1v-3h1q0.5-2,1-4h1v-2h1v-3l2-1,1-4,2-1,2-6,2-1v-2h1v-2h1v-2h1l1-3,2-1v-3h1v-2l3-2q0.5-2.5,1-5l2-1v-2l2-1v-2l2-1v-2l2-1,1-3,4-3v-2l2-1v-2l3-2v-2l3-2v-2h1l1-3,2-1v-2l5-4v-2l2-1v-2l3-2,2-3h1v-2l5-4v-2l5-4v-2l6-5v-2l18-17,18-19h2l6-7h2l2-3h2v-1a7.938,7.938,0,0,1,4-2v-2h2c2.108-3.434,3.02-2.881,6-5l2-3h2l5-6h2l1-2,4-1,2-3h2v-1h2l1-2,4-1,2-3h2l1-2,4-1,2-3,4-1,1-2,3-1v-1l6-2,1-2,6-2,1-2h2v-1h2v-1h2v-1h2v-1h2v-1l4-1,1-2,6-2,1-2h2v-1h3v-1l4-1v-1h3v-1l4-1v-1h3v-1l4-1v-1h3v-1l5-1v-1l4-1v-1h3v-1l4-1v-1l10-2v-1h3v-1h3v-1h5v-1h3v-1h3v-1l13-3v-1h5v-1h3v-1l14-1v-1h4v-1h4v-1h8v-1h4v-1h5v-1h20v-1h16v-1c4.725-1.348,24.576.025,28,1h16v1h19v1l9,1v1h8v1h5v1h4v1l13,1v1l11,2v1h2v1l8,1v1l7,1v1h3v1h3v1h3v1l10,2v1l4,1v1l5,1v1h3v1h2v1h3v1l4,1v1h2v1h3v1l4,1v1l10,3v1h2q0.5,1,1,2l5,1q0.5,1,1,2l6,2q0.5,1,1,2l5,1q0.5,1,1,2h2v1h2v1h2v1h2q0.5,1,1,2h2v1h2v1h2v1h2q0.5,1,1,2h2q0.5,1,1,2h2q0.5,1,1,2A19.949,19.949,0,0,0,916,652Zm2686-48v2a7.54,7.54,0,0,1,6,6h1c0.33,2,.67,4,1,6h1v2h1l3,19h-1c-0.33,2-.67,4-1,6h-1c-0.33,1.333-.67,2.667-1,4h-1v2h-1v3c-0.67.333-1.33,0.667-2,1v2h-1v3l-3,2v3c-0.67.333-1.33,0.667-2,1-0.33,1.333-.67,2.667-1,4-0.67.333-1.33,0.667-2,1-0.33,1.333-.67,2.667-1,4l-3,2v3l-3,2v2c-0.67.333-1.33,0.667-2,1v2h-1c-0.33,1-.67,2-1,3-0.67.333-1.33,0.667-2,1v2c-1.33,1-2.67,2-4,3-0.33,1.333-.67,2.667-1,4l-3,2v2l-3,2v2l-3,2v2l-3,2v2c-0.67.333-1.33,0.667-2,1v1c-0.67.333-1.33,0.667-2,1v2h-1a8.16,8.16,0,0,0-2,4h-2c-0.33,1-.67,2-1,3h-1c-0.33,1-.67,2-1,3-0.67.333-1.33,0.667-2,1v2c-0.67.333-1.33,0.667-2,1v2c-0.67.333-1.33,0.667-2,1-0.33,1.333-.67,2.667-1,4l-3,2v3c-0.67.333-1.33,0.667-2,1v2c-0.67.333-1.33,0.667-2,1-0.33,1-.67,2-1,3h-1c-0.33,1.333-.67,2.667-1,4-0.67.333-1.33,0.667-2,1-0.33,1.333-.67,2.667-1,4-0.67.333-1.33,0.667-2,1-0.33,1.333-.67,2.667-1,4l-3,2c-0.33,1.666-.67,3.333-1,5h-1c-0.33,1-.67,2-1,3-0.67.333-1.33,0.667-2,1-0.67,2-1.33,4-2,6-0.67.333-1.33,0.667-2,1-0.33,1.666-.67,3.333-1,5-0.67.333-1.33,0.667-2,1-0.33,1.333-.67,2.667-1,4-0.67.333-1.33,0.667-2,1-0.67,2-1.33,4-2,6-0.67.333-1.33,0.667-2,1v3c-0.67.333-1.33,0.667-2,1v2h-1v2h-1v2h-1v2h-1v2h-1v2c-0.67.333-1.33,0.667-2,1-0.33,1.333-.67,2.667-1,4l-3,2v2h-1v2h-1v2h-1v2h-1v2c-0.67.333-1.33,0.667-2,1-0.33,1.333-.67,2.667-1,4-0.67.333-1.33,0.667-2,1-0.33,1.333-.67,2.667-1,4-0.67.333-1.33,0.667-2,1-0.33,1.333-.67,2.667-1,4-0.67.333-1.33,0.667-2,1-0.33,1.666-.67,3.333-1,5h-1c-0.33,1.333-.67,2.667-1,4h-1v3h-1c-0.33,1.333-.67,2.667-1,4h-1v3h-1c-0.33,1.333-.67,2.667-1,4h-1v3h-1v2h-1v2h-1v2h-1c-0.33,1.666-.67,3.333-1,5-0.67.333-1.33,0.667-2,1v2c-1.67,1.333-3.33,2.667-5,4-0.33,2-.67,4-1,6h-1v2c-0.67.333-1.33,0.667-2,1v2h-1v2h-1v2h-1v2h-1v2c-0.67.333-1.33,0.667-2,1-0.33,1.666-.67,3.333-1,5h-1c-0.52.982-5,13-5,13h1v1h3a47.786,47.786,0,0,1,7-6c4.58-1.6,2.3,3.832,6-1h1c0.33-2,.67-4,1-6,3.06-.794,3.81-2.4,6-4v-1h4v-1c0.67-.333,1.33-0.667,2-1v-2l3-1c0.67-1,1.33-2,2-3l4-1c0.67-1,1.33-2,2-3h2c0.33-.667.67-1.334,1-2h2v-1h3c0.67-1,1.33-2,2-3h2c0.67-1.333,1.33-2.667,2-4h1c0.67-1,1.33-2,2-3h2c0.67-1,1.33-2,2-3h3c0.67-1,1.33-2,2-3l3-1v-1h6v-1c1.95-1.356,2.29-2.244,5-3v-2h2c2.06-3.435,3.05-2.9,6-5,0.67-1,1.33-2,2-3h2c0.67-1,1.33-2,2-3h2v-1l3-1c0.33-.667.67-1.333,1-2h2c0.67-1,1.33-2,2-3h2c0.33-.667.67-1.333,1-2h2c0.33-.667.67-1.333,1-2l3-1c0.67-1,1.33-2,2-3h2q3.495-4,7-8l3-2c0.93-1.5-.41-3.089,1-4h4c0.67-1,1.33-2,2-3,1.67,0.333,3.33.667,5,1v-1c3.03-1.424,4.05-1.479,5-5a21.1,21.1,0,0,0,9-5c0.33-.667.67-1.333,1-2h2c0.33-.667.67-1.333,1-2h2c1.33-1.667,2.67-3.334,4-5h2c1.67-2,3.33-4,5-6l4-1c0.33-1,.67-2,1-3l3-2v-2c-1.14-1.139-.4,0-1-2,1.61-.232,8.01-1.088,9-2l3-1v-1l3-1c0.33-.667.67-1.333,1-2h2c1.33-1.667,2.67-3.334,4-5h2q7.005-7.5,14-15c3.05-3.047,7.75-5.24,9-10,3.37-.979,1.91-1.213,4-3v-1h2v-2h2c2.09-3.14,6.8-4.839,10-7,0.33-.667.67-1.334,1-2h2c0.33-.667.67-1.333,1-2h2c0.67-1,1.33-2,2-3h2v-1l3-1c0.33-.667.67-1.333,1-2h2c0.67-1,1.33-2,2-3h2v-1h2v-1h2v-1h2v-1h2c0.33-.667.67-1.334,1-2h3c0.33-.667.67-1.333,1-2h2v-1l7-1v-1h2v-1h5v-1c1.41-.129-0.37.644,1,1l9,2v-2h4c1.5,3.424,3.49,5.539,8,6,0.8,4.453,3,6.25,4,10l3,1c0.33,0.666.67,1.333,1,2h1c0.61,1.681-1.82,2.86,0,6h1c0.33,1,.67,2,1,3,0.67,0.333,1.33.667,2,1,0.57,1.185,2.64,15.993,2,18h-1c-0.33,2-.67,4-1,6h-1c0.33,1.666.67,3.333,1,5h-1v1h-3c-0.33.667-.67,1.333-1,2h-2c-0.67,1-1.33,2-2,3l-4,1v1l-3,1c-0.33.667-.67,1.333-1,2h-2c-0.33.667-.67,1.333-1,2h-2c-0.67,1-1.33,2-2,3h-2c-0.67,1-1.33,2-2,3h-2v1a12.922,12.922,0,0,1-6,3v2h-2c-1.97,3.231-4.94,3.838-8,6-0.67,1-1.33,2-2,3h-2c-0.67,1-1.33,2-2,3h-2c-1.33,1.666-2.67,3.333-4,5h-2c-0.67,1-1.33,2-2,3h-2c-1.33,1.666-2.67,3.333-4,5h-2c-1.67,2-3.33,4-5,6h-2c-0.33.667-.67,1.333-1,2l-3,2v1h-2v1a8.027,8.027,0,0,1-4,2v2c-5.62,1.447-7.08,6.612-13,8v2h-2c-1.66,2.472-3.55,2.29-6,4-0.67,1-1.33,2-2,3h-2c-0.67,1-1.33,2-2,3h-2c-1.67,2-3.33,4-5,6h-2c-0.67,1-1.33,2-2,3h-2c-1.33,1.666-2.67,3.333-4,5-2.89,2.616-5.8,2.486-7,7-3.04.7-2.17,1.609-3,2h-4v1h-2c-0.33.666-.67,1.333-1,2h-2c-0.33.667-.67,1.333-1,2h-2c-1.33,1.666-2.67,3.333-4,5h-2c-1.67,2-3.33,4-5,6h-2c-0.33.666-.67,1.333-1,2l-4,1c-0.33.666-.67,1.333-1,2l-4,1v2h-2c-1.65,2.477-3.55,2.292-6,4-0.67,1-1.33,2-2,3h-2c-0.33.667-.67,1.333-1,2h-2c-0.67,1-1.33,2-2,3h-2c-0.33.667-.67,1.333-1,2h-2c-0.67,1-1.33,2-2,3h-2l-3,4-3,1c-0.33.667-.67,1.333-1,2h-2c-0.67,1-1.33,2-2,3h-2l-3,4-3,1c-0.33.666-.67,1.333-1,2h-2l-3,4h-2l-3,4h-2c-0.33.667-.67,1.333-1,2h-1c-0.33.667-.67,1.333-1,2h-2c-0.33.667-.67,1.333-1,2h-2c-1.67,2-3.33,4-5,6h-2l-3,4h-2c-0.67,1-1.33,2-2,3h-2c-0.67,1-1.33,2-2,3h-2c-1.33,1.666-2.67,3.333-4,5h-2c-1.33,1.666-2.67,3.333-4,5h-2c-0.67,1-1.33,2-2,3h-2c-1.33,1.666-2.67,3.333-4,5h-2c-1.33,1.666-2.67,3.33-4,5h-2c-0.33.67-.67,1.33-1,2-2.41,2.28-5.56,6.04-9,7-0.72,2.76-.28,2.24-3,3-0.98,3.37-1.21,1.91-3,4h-1v2c-2.76.72-2.24,0.28-3,3h-2v1a20.907,20.907,0,0,0-3,4h-1v2h-2c-0.33,1-.67,2-1,3h-1c-0.33,1-.67,2-1,3-0.67.33-1.33,0.67-2,1-1.61,2.26-1.9,4.33-4,6,0.57,2.01-.12.87,1,2v1h4c2.54-2.05,7.27.24,11-1v-1h3v-1h2v-1h6v-1h3v-1h3v-1h4v-1h3v-1h3v-1h3v-1h4v-1c1.33-.33,2.67-0.67,4-1v-1h4c0.33-.67.67-1.33,1-2h3v-1h4v-1h2v-1h3v-1h4v-1c1.33-.33,2.67-0.67,4-1v-1h4v-1c1.33-.33,2.67-0.67,4-1v-1c2.33-.33,4.67-0.67,7-1,0.33-.67.67-1.33,1-2h8v-1h3v-1c1.33-.33,2.67-0.67,4-1v-1h4v-1h2v-1h3v-1h4v-1c1.33-.33,2.67-0.67,4-1v-1c2-.33,4-0.67,6-1v-1h2v-1c2-.33,4-0.67,6-1v-1h2v-1c2-.33,4-0.67,6-1v-1h2v-1c2.69-1.176,5.49-.725,8-2v-1h2v-1h4v-1l4-1v-1h4v-1l4-1v-1l6-1c0.33-.667.67-1.333,1-2l9-2v-1h2v-1h3v-1l4-1v-1h4v-1l4-1v-1h3v-1l4-1v-1h4v-1l4-1v-1l6-1c0.33-.667.67-1.333,1-2l6-1v-1l4-1v-1h4c0.33-.667.67-1.333,1-2l6-1c0.33-.667.67-1.333,1-2l6-1v-1l4-1v-1h3v-1l4-1v-1l6-1v-1h2c0.33-.667.67-1.333,1-2h4v1l3-1c0.72-2.762.28-2.237,3-3,3.26-3.693,11.83-4.057,15-5,0.33-1,.67-2,1-3q7.005-2,14-4v-1h4v-1h2v-1h3v-1h4v-1l4-1v-1h4v-1h2v-1l6-1v-1l4-1v-1l6-1v-1h2v-1l6-1v-1h2v-1c1.29-.569.48,0.479,1,1,3.51,0.8,3.9,1.772,4,6h-3v1c-6.56,1.613-14.3,11.874-18,17-1.67,1.333-3.33,2.667-5,4v2h-1c-1.9,2.265-4.13,3.731-5,7a7.851,7.851,0,0,0-4,2v1c-1.82,1.162-6.23,1-8,2v1l-3,2c0.33,1.666.67,3.333,1,5h1c-0.33,1-.67,2-1,3-1.88.823-2.62,1.481-5,2v7c-1.95.715-6.06,0.983-8,2-0.33.667-.67,1.333-1,2h-2v1h-3c-0.67,1-1.33,2-2,3h-3c-0.67,1-1.33,2-2,3h-2c-0.33.667-.67,1.333-1,2l-3,1v1c-1.75,1.442-2.42,2.27-5,3v2c-3.43.871-2.57,2.068-6,3v2h-6v1c-2.59,1.78-2.57,2.65-7,3-0.72,2.76-.28,2.24-3,3-1.14,1.14,0,.4-2,1v2c-1,.67-2,1.33-3,2-0.33,1-.67,2-1,3h-2c-0.67,1-1.33,2-2,3h-3c-0.33.67-.67,1.33-1,2-1.33.33-2.67,0.67-4,1-0.33.67-.67,1.33-1,2-1.33.33-2.67,0.67-4,1v1h-4v1c-1.33.33-2.67,0.67-4,1v1h-4c-0.33.67-.67,1.33-1,2-3,.67-6,1.33-9,2v1c-1.67.33-3.33,0.67-5,1v1a8.723,8.723,0,0,1-4,2c-0.33,1-.67,2-1,3a21.612,21.612,0,0,0-8,2v1h-4c-1,1.33-2,2.67-3,4h-8c-0.67,1-1.33,2-2,3h-3c-0.67,1-1.33,2-2,3-1.33.33-2.67,0.67-4,1-0.33.67-.67,1.33-1,2h-2c-0.33.67-.67,1.33-1,2h-2c-0.33.67-.67,1.33-1,2h-3c-0.33.67-.67,1.33-1,2-1.33.33-2.67,0.67-4,1-0.33.67-.67,1.33-1,2h-2v1h-2v1h-2v1h-2v1h-2v1h-2c-0.33.67-.67,1.33-1,2-1.67.33-3.33,0.67-5,1-0.33.67-.67,1.33-1,2-1.67.33-3.33,0.67-5,1-0.33.67-.67,1.33-1,2-1.67.33-3.33,0.67-5,1v1c-1.33.33-2.67,0.67-4,1v1h-4c-0.33.67-.67,1.33-1,2h-2v1h-4c-0.33.67-.67,1.33-1,2h-2v1h-4v1h-2v1c-3,.67-6,1.33-9,2v1h-2v1c-2.33.33-4.67,0.67-7,1v1h-2v1h-3v1h-3v1h-3v1h-3v1h-4v1h-3v1h-3v1c-2.33.33-4.67,0.67-7,1v1h-4v1h-6v1h-6v1h-4v1h-8v1q-11.505.495-23,1v1c-6.44,1.86-18.02-.81-22-2h-10v-1h-3v-1h-2v-1h-3v-1c-2-.67-4-1.33-6-2v-1c-1.33-.33-2.67-0.67-4-1-0.33-.67-0.67-1.33-1-2-1-.33-2-0.67-3-1-0.67-1-1.33-2-2-3h-2c-1-1.33-2-2.67-3-4h-1v-2c-0.67-.33-1.33-0.67-2-1-0.33-1-.67-2-1-3h-1c-0.33-1-.67-2-1-3h-2v-2c-3.15-1.87-2.84-3.7-8-4-0.99,1.92-3.22,4.09-4,6-0.33,2.33-.67,4.67-1,7h-1v2h-1c-0.33,2.33-.67,4.67-1,7-0.67.33-1.33,0.67-2,1-0.33,2.67-.67,5.33-1,8-0.67.33-1.33,0.67-2,1-0.33,2.67-.67,5.33-1,8h-1v3h-1v3h-1c-0.33,2.33-.67,4.67-1,7h-1v2h-1c-0.33,3-.67,6-1,9h-1v3h-1q-1.005,6-2,12h-1v4h-1v5h-1v4h-1v6h-1v5h-1c-0.33,2-.67,4-1,6h-1c-0.27,2.03.47,1.2,1,2,0.87,3.43,2.07,2.57,3,6h-1v4h-1v2h-1v4h-1v6h-1v2h-1c-0.33,3-.67,6-1,9h-1v3h-1v3h-1v6h-1v4h-1c-0.17.94,1.12,6.08,1,9v3h-1v16h1c-0.33,1.67-.67,3.33-1,5-5.32,2.16-7.82,2.45-9,9-2.84.62-4.95,3.18-9,2v-1c-2.33-.33-4.67-0.67-7-1-0.33.67-.67,1.33-1,2-1.33-.33-2.67-0.67-4-1v-2c-3.84-2.26-5.26-6.72-10-8v-2c-5.41-1.49-4.99-5.04-7-10h-1v-3h-1c-0.33-1.33-.67-2.67-1-4h-1v-4c-0.67-.33-1.33-0.67-2-1v-3h-1v-3h-1c-0.33-1.33-.67-2.67-1-4h-1v-4h-1c-0.33-1.33-.67-2.67-1-4h-1c-0.33-2-.67-4-1-6h-1c0.33-2.67.67-5.33,1-8,0.35-8.12-.86-18.51,1-25v-23h1v-9h1v-7h1v-9h1v-5h1v-5h1v-7h1v-5h1v-3h1c0.69-2.16-1-7-1-7h1c0.67-2,1.33-4,2-6h1c1.33-3.47-.28-7.49,2-10,0.61,2.72,1.14,2.69,3,4v-1h1v-3c-1.04-.89-2.68-2.54-2-5h1v-2h1v-6h-1c-0.33-1.69,2.27-10.25,3-11,3.35-3.3,3.93.82,4-7h-1v-4c1.67-1,3.33-2,5-3v-5h1v-2c0.67-.33,1.33-0.67,2-1,0.33-1.33.67-2.67,1-4,0.67-.33,1.33-0.67,2-1,0.33-2,.67-4,1-6,0.67-.33,1.33-0.67,2-1,0.33-2.67.67-5.33,1-8h1v-2h1v-7c1-.67,2-1.33,3-2,0.67-2,1.33-4,2-6,0.67-.33,1.33-0.67,2-1v-4h1c0.33-1.33.67-2.67,1-4h1c0.33-2,.67-4,1-6,0.67-.333,1.33-0.667,2-1v-3h1v-2h1c0.33-1.333.67-2.667,1-4h1v-3h1c0.33-1.333.67-2.667,1-4h1v-3h1c0.33-1.333.67-2.667,1-4h1c0.33-1.667.67-3.334,1-5,0.67-.333,1.33-0.667,2-1,0.33-2,.67-4,1-6h1c0.33-1.333.67-2.667,1-4h1c0.33-1.667.67-3.334,1-5,0.67-.333,1.33-0.667,2-1,0.33-2,.67-4,1-6,0.67-.333,1.33-0.667,2-1v-4c0.67-.333,1.33-0.667,2-1q1.995-6,4-12h1c0.67-2,1.33-4,2-6h1c0.33-1.333.67-2.667,1-4,0.67-.333,1.33-0.667,2-1v-3h1v-2h1c0.33-1.333.67-2.667,1-4h1v-3c0.67-.333,1.33-0.667,2-1v-3h1v-2c0.67-.333,1.33-0.667,2-1,0.33-1.667.67-3.334,1-5,0.67-.333,1.33-0.667,2-1,0.33-1.667.67-3.334,1-5,0.67-.333,1.33-0.667,2-1v-2h1c0.33-1.667.67-3.334,1-5,0.67-.333,1.33-0.667,2-1,0.33-1.667.67-3.334,1-5,0.67-.333,1.33-0.667,2-1,0.33-1.667.67-3.334,1-5,0.67-.333,1.33-0.667,2-1,0.33-1.667.67-3.334,1-5,0.67-.333,1.33-0.667,2-1,0.67-2,1.33-4,2-6,0.67-.333,1.33-0.667,2-1,0.33-1.667.67-3.334,1-5,0.67-.333,1.33-0.667,2-1v-3h1v-2c0.67-.333,1.33-0.667,2-1,0.33-1.667.67-3.334,1-5,0.67-.333,1.33-0.667,2-1,0.67-2,1.33-4,2-6,0.67-.333,1.33-0.667,2-1v-3c0.67-.333,1.33-0.667,2-1v-2c0.67-.333,1.33-0.667,2-1v-2c0.67-.333,1.33-0.667,2-1v-5c0.67-.333,1.33-0.667,2-1,0.67-2.333,1.33-4.667,2-7,0.67-.333,1.33-0.667,2-1v-3h1v-2h1v-2h1v-2h1c0.33-1.333.67-2.667,1-4,0.67-.333,1.33-0.667,2-1v-3h1v-2c0.67-.333,1.33-0.667,2-1v-3c0.67-.333,1.33-0.667,2-1,0.33-1.667.67-3.334,1-5,0.67-.333,1.33-0.667,2-1v-2h1q1.995-6,4-12c0.67-.333,1.33-0.667,2-1,0.33-1.333.67-2.667,1-4,0.67-.333,1.33-0.667,2-1,0.33-1.333.67-2.667,1-4l3-2v-3c0.67-.333,1.33-0.667,2-1v-2c0.67-.333,1.33-0.667,2-1v-2c0.67-.333,1.33-0.667,2-1,0.33-1.333.67-2.667,1-4,0.67-.333,1.33-0.667,2-1v-2h1v-2l3-2,3-9h1c0.33-1.333.67-2.667,1-4h1c0.33-1.333.67-2.667,1-4,0.67-.333,1.33-0.667,2-1v-6h1v-1h4l3-8h2c-0.06-3.577.13-5.715,1-8l3,1v-1h1v-5c1.33-1,2.67-2,4-3q1.995-6.5,4-13c1.67-.333,3.33-0.667,5-1v-4h-1v-1h1c0.33-1.333.67-2.667,1-4h1v-2c0.67-.333,1.33-0.667,2-1v-2c0.67-.333,1.33-0.667,2-1v-2c0.67-.333,1.33-0.667,2-1v-2c0.67-.333,1.33-0.667,2-1v-2c0.67-.333,1.33-0.667,2-1v-2c0.67-.333,1.33-0.667,2-1,0.33-1,.67-2,1-3h1c0.33-1.333.67-2.667,1-4l3-2c0.33-1.333.67-2.667,1-4,0.67-.333,1.33-0.667,2-1v-2c1.33-1,2.67-2,4-3v-2l3-2v-2c0.67-.333,1.33-0.667,2-1v-2c0.67-.333,1.33-0.667,2-1v-2h1a8.254,8.254,0,0,0,2-4h2a7.657,7.657,0,0,1,2-4h1v-2c1.33-1,2.67-2,4-3v-2q3.495-3,7-6c2.33,0.666,4.67,1.333,7,2v1h5v1h3v1h3v1h5l15,5c0.33,0.666.67,1.333,1,2l3,2C3599.14,601.948,3597.64,602.738,3602,604ZM2097,786c1.67,0.333,3.33.667,5,1,1.09-1.339,2.74-1.846,4-3,0.33-.667.67-1.334,1-2l4-1c0.33-.667.67-1.334,1-2h2c0.33-.667.67-1.333,1-2l3-1v-1c1.95-1.529,2.45-1.768,6-2,1.77,1.976,1.95.843,4,2v1h2c0.33,0.667.67,1.333,1,2l4,1c0.33,0.666.67,1.333,1,2,1.67,0.333,3.33.667,5,1v1h2v1l9,2c1.33,2.666,2.67,5.334,4,8h1l3,4h2v1c1.24,0.963,1.94.71,3,2h4a39,39,0,0,0,3,8h1v4h1v2h1v3c0.37,1.364,1.08-.412,1,1h-1v3h1q-0.495,7-1,14h-1v2h-1c-0.33,2.666-.67,5.334-1,8-0.67.333-1.33,0.667-2,1-0.33,2-.67,4-1,6h-1v2c-0.67.333-1.33,0.667-2,1v3h-1v2h-1v2h-1v2h-1v3c-0.67.333-1.33,0.667-2,1-0.33,1.666-.67,3.333-1,5-0.67.333-1.33,0.667-2,1-0.67,2-1.33,4-2,6-0.67.333-1.33,0.667-2,1v2h-1v2h-1v2h-1v2c-0.67.333-1.33,0.667-2,1v2h-1v2l-3,2v3h-1c-0.33,1-.67,2-1,3-0.67.333-1.33,0.667-2,1-0.67,2-1.33,4-2,6h-1c-0.33,1-.67,2-1,3-0.67.333-1.33,0.667-2,1-0.33,1.333-.67,2.667-1,4-0.67.333-1.33,0.667-2,1v2l-3,2v3h-1c-0.33,1-.67,2-1,3-0.67.333-1.33,0.667-2,1v2c-0.67.333-1.33,0.667-2,1v2h-1c-0.33,1-.67,2-1,3-0.67.333-1.33,0.667-2,1v2l-3,2c-0.33,1.333-.67,2.667-1,4-0.67.333-1.33,0.667-2,1-0.33,1-.67,2-1,3h-1c-0.67,2.333-1.33,4.667-2,7-0.67.333-1.33,0.667-2,1v3h-1v2c-0.67.333-1.33,0.667-2,1v2h-1v3c-0.67.333-1.33,0.667-2,1v2h-1v3c-0.67.333-1.33,0.667-2,1v3h-1v2h-1v2h-1v2h-1c-0.33,1.333-.67,2.667-1,4-0.67.333-1.33,0.667-2,1-0.33,1.666-.67,3.333-1,5-0.67.333-1.33,0.667-2,1-0.33,1.666-.67,3.33-1,5-0.67.33-1.33,0.67-2,1v3h-1v2c-0.67.33-1.33,0.67-2,1v3h-1v2h-1v2h-1v2h-1v2h-1v2h-1v2h-1v2h-1v2h-1v2h-1v2h-1v2h-1v2h-1c-0.33,1.33-.67,2.67-1,4h-1v2h-1v2h-1v2h-1v2h-1c-0.67,2-1.33,4-2,6-0.67.33-1.33,0.67-2,1v2h-1c0.33,2.33.67,4.67,1,7-1.33,1-2.67,2-4,3-0.33,1.33-.67,2.67-1,4h-1v2h-1c-0.67,2-1.33,4-2,6h-1c-0.33,2-.67,4-1,6h-1v2h-1v4h-1c-0.33,1.33-.67,2.67-1,4h-1v5h-1v3h-1v2h-1c-0.33,2.67-.67,5.33-1,8h-1v2h-1v5h-1c-0.33,2-.67,4-1,6h-1v2h-1v2c-0.67.33-1.33,0.67-2,1v2h-1c-0.67,2-1.33,4-2,6h-1c-0.33,2-.67,4-1,6-0.67.33-1.33,0.67-2,1v4h-1v3h-1v2h-1c-0.33,2.33-.67,4.67-1,7h-1v2h-1c-0.33,2.33-.67,4.67-1,7h-1c-0.33,1.33-.67,2.67-1,4h-1v2c-0.67.33-1.33,0.67-2,1-0.33,1.33-.67,2.67-1,4-1,.67-2,1.33-3,2-0.33,1.33-.67,2.67-1,4-1,.67-2,1.33-3,2v2c-0.67.33-1.33,0.67-2,1v1h-2v1c-3.3-.59-8.74-2-12,0-0.67,1-1.33,2-2,3h-5c-0.33-.67-0.67-1.33-1-2h-5c-0.38-2.87-.63-4.24-2-6-0.67-.33-1.33-0.67-2-1v-12c0-10.3.21-22.26,1-31,0.48-5.24.83-8.91,2-13v-15h1v-4h1v-4h1q0.495-6.495,1-13h1q1.005-6,2-12h1v-3h1v-3h1v-5h1v-3h1c0.45-2.21-2.08-3.83-1-7h1v-2h1v-5h1v-3h1v-2h1c0.33-2.33.67-4.67,1-7h1v-2h1v-5h1v-3h1v-2h1v-4h1v-3h1v-2h1v-3h1v-5h1c0.33-1.33.67-2.67,1-4h1v-4h1v-3h1v-2h1c0.33-2.33.67-4.667,1-7h1v-2h1c0.33-2.333.67-4.667,1-7,0.67-.333,1.33-0.667,2-1v-3c1.12-2.672,2.53-4.251,3-8-4.83.564-2.94,1.879-7,3-1.05,4.112-3.03,3.895-6,6-0.67,1-1.33,2-2,3l-3,1c-0.33.667-.67,1.333-1,2h-24a59.419,59.419,0,0,1-4,6l-3,1c-0.67,1-1.33,2-2,3h-2c-0.33.67-.67,1.33-1,2-1.33.33-2.67,0.67-4,1-0.33.67-.67,1.33-1,2h-2c-0.33.67-.67,1.33-1,2-1,.33-2,0.67-3,1v1c-1.67.33-3.33,0.67-5,1-0.33.67-.67,1.33-1,2h-2v1h-2v1h-2v1h-2v1h-2v1h-2c-0.33.67-.67,1.33-1,2h-3c-0.33.67-.67,1.33-1,2-2,.67-4,1.33-6,2-0.33.67-.67,1.33-1,2-1.67.33-3.33,0.67-5,1-0.33.67-.67,1.33-1,2-1.33.33-2.67,0.67-4,1-0.33.67-.67,1.33-1,2h-3v1c-1.33.33-2.67,0.67-4,1v1h-2v1h-3c-0.33.67-.67,1.33-1,2-1.67.33-3.33,0.67-5,1v1c-1.33.33-2.67,0.67-4,1v1h-3v1h-2v1h-2v1h-2v1h-4v1h-3v1h-3v1c-2.67.33-5.33,0.67-8,1v1h-5c-6.3,1.88-17.02,1-25,1h-10v-1h-4v-1h-2v-1h-3v-1h-3c-0.33-.67-0.67-1.33-1-2h-3v-1c-2.15-1.63-2.98-3.17-6-4a8.263,8.263,0,0,0-2-4h-1c-0.67-2-1.33-4-2-6-0.67-.33-1.33-0.67-2-1v-2h-1v-2c-0.67-.33-1.33-0.67-2-1-0.33-1.67-.67-3.33-1-5-0.67-.33-1.33-0.67-2-1-0.33-2-.67-4-1-6h-1c-0.33-1.33-.67-2.67-1-4h-1V986h-1q-0.495-9-1-18h1v-2h1v-5h1v-3h1v-3h1v-5h1v-2h1v-3h1v-4h1v-3h1v-2h1v-3h1v-2h1v-2c0.67-.333,1.33-0.667,2-1v-2c1.67-1.333,3.33-2.667,5-4,0.33-1.333.67-2.667,1-4l3-2v-2c0.67-.333,1.33-0.667,2-1v-2l6-5c0.67-1,1.33-2,2-3h1v-2q4.005-3.5,8-7l15-15c2.6-2.6,3.84-5.887,8-7,0.98-3.374,1.21-1.913,3-4h1v-2h2l15-16h2q4.995-5.5,10-11h2c0.67-1,1.33-2,2-3h2c1.67-2,3.33-4,5-6h2l3-4h2c1.67-2,3.33-4,5-6h2c1.67-2,3.33-4,5-6h2l3-4h2c0.67-1,1.33-2,2-3h2l3-4h2c0.33-.667.67-1.334,1-2l3-1v-1a8.035,8.035,0,0,1,4-2v-2h2c0.67-1,1.33-2,2-3h2c0.67-1,1.33-2,2-3l4-1c0.67-1,1.33-2,2-3h2l3-4h2c0.33-.667.67-1.334,1-2h2c0.67-1,1.33-2,2-3h2v-1l3-1c0.33-.667.67-1.333,1-2h2c0.67-1,1.33-2,2-3l4-1c0.33-.667.67-1.333,1-2h2c0.67-1,1.33-2,2-3l4-1c0.33-.667.67-1.334,1-2l4-1c0.67-1,1.33-2,2-3h2c0.33-.667.67-1.333,1-2h2c0.67-1,1.33-2,2-3l3-1c1.67-2,3.33-4,5-6h2l3-4c3.57,0.626,8.09,3.5,13,2v-1h3v-1h4v-1h9c0.2-.04.34-1.388,2-1v1h2v1h3v1h2c0.33,0.667.67,1.333,1,2l6,1v1l4,1v1h3v1h2v1h7v1h2c0.33,0.667.67,1.333,1,2l4,1c0.67,1,1.33,2,2,3h3c1.33,1.666,2.67,3.333,4,5q3.495,3,7,6v2l3,2v3c0.67,0.333,1.33.667,2,1,0.33,1.666.67,3.333,1,5h1v1h-1C2096.33,782.666,2096.67,784.333,2097,786Zm803,12c-1.16,5.312-4.82,6.821-8,10q-5.505,6-11,12l-6,5v1c-0.67.333-1.33,0.667-2,1v2l-6,5v2l-6,5v2q-3.495,3-7,6v2l-6,5v2l-3,2v2c-1.33,1-2.67,2-4,3-0.33,1-.67,2-1,3-1.67,1.333-3.33,2.667-5,4v2l-3,2v2c-1.33,1-2.67,2-4,3v2c-1.67,1.333-3.33,2.667-5,4v2l-3,2v2c-0.67.333-1.33,0.667-2,1v2h-1a8.147,8.147,0,0,0-2,4h-2c-0.33,1-.67,2-1,3h-1v2c-0.67.333-1.33,0.667-2,1v2l-3,2v2l-3,2v2l-3,2v2l-3,2v2l-3,2v3c-0.67.333-1.33,0.667-2,1-0.33,1-.67,2-1,3l-3,2c-0.33,1.333-.67,2.667-1,4l-3,2v2l-3,2v3c-0.67.333-1.33,0.667-2,1v2c-0.67.333-1.33,0.667-2,1v2c-0.67.333-1.33,0.667-2,1-0.33,1.333-.67,2.667-1,4-0.67.333-1.33,0.667-2,1-0.33,1.333-.67,2.667-1,4-0.67.333-1.33,0.667-2,1-0.33,1.333-.67,2.667-1,4l-3,2v3h-1v2c-0.67.333-1.33,0.667-2,1v3c-0.67.333-1.33,0.667-2,1v2h-1v2h-1v2c-0.67.333-1.33,0.667-2,1-0.33,1.333-.67,2.667-1,4-0.67.333-1.33,0.667-2,1-0.33,1.666-.67,3.333-1,5-0.67.333-1.33,0.667-2,1-0.33,2-.67,4-1,6-0.67.33-1.33,0.67-2,1-0.33,1.67-.67,3.33-1,5h-1v2h-1v2h-1c-0.67,2-1.33,4-2,6h-1c-0.33,2-.67,4-1,6-0.67.33-1.33,0.67-2,1v4h-1v3h-1v2h-1c-0.33,2-.67,4-1,6h-1c-0.87,2.78.76,5.54,1,7v10h-1c-0.81,3.02.64,4.86,1,7h5c0.33-.67.67-1.33,1-2,1.67-.33,3.33-0.67,5-1v-1h2v-1h2c0.33-.67.67-1.33,1-2,2-.67,4-1.33,6-2,0.67-1,1.33-2,2-3,1.67,0.33,3.33.67,5,1,0.67-1,1.33-2,2-3h2v-1h2c0.33-.67.67-1.33,1-2h3v-1c1.29-.59,3.32.18,4-1v-4h2q3-4.005,6-8h4v1h3v-1h1c-0.11-4.64-.31-5.54,4-6,1.26,1.91,1.01,1.66,4,2,2.5-2.93,5.37-2.9,6-8h-1c-1.04-1.9.68-4.16,1-5,5,1.96,7.45-.01,12-1,0.85-3.14,1.98-3.23,4-5v-1c1-.33,2-0.67,3-1v-2h2c1.67-2,3.33-4,5-6h2c0.33-.67.67-1.33,1-2h2c0.67-1,1.33-2,2-3h1v-4l-7,1v-1h1c1.85-2.761,5.22-3.054,7-6h1c0.33,1,.67,2,1,3l4-1v-1h3c0.33-1.333.67-2.667,1-4h-1v-4h1v-2c0.67-.333,1.33-0.667,2-1v-4c0.54-1.3.47,0.312,1-1l4,1v2h5a7.206,7.206,0,0,1,1-4h-1v-1h-3v-4c2.76-.723,2.24-0.279,3-3,5.1,0.255,3.49,1.393,8,2,0.67-1,1.33-2,2-3h2c0.67-1,1.33-2,2-3,2.33-.667,4.67-1.333,7-2,0.16-5.052,2.01-6.238,3-10h2v-2l3-1c0.33-.667.67-1.333,1-2h1v-5h-1c-0.14-.968,1-6.171,1-9,1.8-.945,1.57-1.385,4-2a95.635,95.635,0,0,0,1-14v-9h1V891h1v-7h1v-5h1v-4h1c0.33-3.666.67-7.334,1-11h1v-3h1v-6h1v-3h1v-3h1c0.33-2.333.67-4.667,1-7h1v-2h1v-4h1c-0.33-3-.67-6-1-9h1v-2l3-2c2.21-3.363,2.46-9.013,4-13l3-1q-0.495-6-1-12c0.67-.333,1.33-0.667,2-1v-2h1v-9h-5c-1.74,2.718-4.36,3.135-7,5-0.67,1-1.33,2-2,3h-2c-0.67,1-1.33,2-2,3C2905.72,797.489,2903.43,797.828,2900,798Zm-945,80v2h-1l-6,7h-2c-0.33.667-.67,1.333-1,2h-2c-0.33.666-.67,1.333-1,2h-2c-0.33.667-.67,1.333-1,2l-3,1c-1.67,2-3.33,4-5,6h-2l-3,4h-2c-1.67,2-3.33,4-5,6h-2q-4.995,5.5-10,11h-2c-0.33.667-.67,1.333-1,2-2.39,2.262-5.58,6.067-9,7v2l-3,1c-1.67,2-3.33,4-5,6h-2v2l-3,1v1c-2.03,1.772-3.13,1.859-4,5-2.74.644-2.28,1.309-5,2v4c2.72-.031,5.3.018,7-1,0.33-.667.67-1.333,1-2l4-1c0.33-.667.67-1.334,1-2l4-1c0.33-.667.67-1.333,1-2l4-1c0.33-.667.67-1.333,1-2h2v-1h2c0.33-.667.67-1.333,1-2l6-2c0.33-.667.67-1.333,1-2h2c0.67-1,1.33-2,2-3l4-1c0.67-1,1.33-2,2-3h2c0.33-.667.67-1.334,1-2l3-1v-1h2c0.33-.667.67-1.334,1-2h2c0.33-.667.67-1.333,1-2h2c0.33-.667.67-1.333,1-2h2c0.33-.667.67-1.333,1-2h2c0.33-.667.67-1.333,1-2h2c0.33-.667.67-1.333,1-2l4-1c0.33-.667.67-1.333,1-2l4-1c0.33-.667.67-1.333,1-2h3c0.67-1,1.33-2,2-3h2v-1a13.154,13.154,0,0,1,6-3v-2c6.59-1.628,8.56-8.221,15-10v-2h1a21.117,21.117,0,0,1,4-3v-1h2v-2h2l9-10h2c0.33-.667.67-1.334,1-2h1q1.995-5.5,4-11c0.67-.333,1.33-0.667,2-1,0.33-1.667.67-3.334,1-5,0.67-.333,1.33-0.667,2-1,0.33-1.333.67-2.667,1-4,0.67-.333,1.33-0.667,2-1,0.33-1.667.67-3.334,1-5-2.08-1.094-1.77-1.611-5-2-1.67,2-3.33,4-5,6h-2l-3,4-4,1c-0.33.667-.67,1.333-1,2l-3,1v1l-4,1c-0.67,1-1.33,2-2,3l-4,1c-0.67,1-1.33,2-2,3h-2c-0.33.666-.67,1.333-1,2h-2c-0.67,1-1.33,2-2,3h-2l-3,4h-2c-0.67,1-1.33,2-2,3h-2v1C1959.71,874.914,1958.28,877.092,1955,878ZM581,1464c-2.763.72-2.237,0.28-3,3h-2c-3.13,5.21-10.956,9.64-17,12q-5.5,1.005-11,2v1c-3.843,3.66.891,6.66-1,13q-2,5.505-4,11h-2c-0.684,2.93-1.113,3.27-4,4v2c-2,.67-4,1.33-6,2v1h-6v1c-1.736.65-2.61,0.42-4,1-1.591,4.33-1,12.09-1,18v34c-2.239,2.51-1,11.62-1,16v49h1v47h1v7h1v5h1v4h1v3h1v3c0.666,0.33,1.333.67,2,1,0.333,1.67.667,3.33,1,5,0.666,0.33,1.333.67,2,1,0.333,1.33.667,2.67,1,4l4,3c0.333,0.67.666,1.33,1,2h2l2,3h2v1h2v1h3v1h3v1h2v1q6.5,0.495,13,1v-1h11v-1h4v-1c3.666-.33,7.334-0.67,11-1v-1h2v-1h4v-1c2-.33,4-0.67,6-1v-1c1.333-.33,2.667-0.67,4-1v-1h3v-1c2-.67,4-1.33,6-2v-1h2v-1h2v-1h3c0.333-.67.667-1.33,1-2h3v-1h2v-1h2v-1h2v-1h2v-1c1.333-.33,2.667-0.67,4-1v-1h3c0.333-.67.667-1.33,1-2,1-.33,2-0.67,3-1v-1h2v-1h2v-1h2c0.333-.67.667-1.33,1-2h2v-1h2v-1h2v-1h2v-1c1-.33,2-0.67,3-1,0.333-.67.667-1.33,1-2h2v-1h2v-1h2v-1h2c0.333-.67.667-1.33,1-2,2-.67,4-1.33,6-2,0.333-.67.667-1.33,1-2h2v-1h2v-1h2c0.333-.67.667-1.33,1-2h2v-1h2v-1h2v-1h2c0.333-.67.667-1.33,1-2,2-.67,4-1.33,6-2,0.333-.67.667-1.33,1-2,1.333-.33,2.667-0.67,4-1,0.333-.67.667-1.33,1-2,2-.67,4-1.33,6-2,0.333-.67.667-1.33,1-2h2v-1h2v-1h2v-1h2c0.333-.67.667-1.33,1-2,2-.67,4-1.33,6-2v-1c1-.33,2-0.67,3-1,0.333-.67.667-1.33,1-2,1.333-.33,2.667-0.67,4-1v-1h2c0.333-.67.667-1.33,1-2,1.333-.33,2.667-0.67,4-1,0.333-.67.667-1.33,1-2,2-.67,4-1.33,6-2,0.333-.67.667-1.33,1-2,1-.33,2-0.67,3-1v-1h3c0.333-.67.667-1.33,1-2h2c0.333-.67.667-1.33,1-2,2-.67,4-1.33,6-2,0.333-.67.667-1.33,1-2h2v-1h2v-1h2v-1h2c0.333-.67.667-1.33,1-2h2v-1h3c0.333-.67.667-1.33,1-2,2-.67,4-1.33,6-2,0.333-.67.667-1.33,1-2h3v-1h2c0.333-.67.667-1.33,1-2h2v-1h3c0.333-.67.667-1.33,1-2,2-.67,4-1.33,6-2,0.333-.67.667-1.33,1-2,1.666-.33,3.333-0.67,5-1,0.333-.67.667-1.33,1-2,1.666-.33,3.333-0.67,5-1,0.333-.67.667-1.33,1-2h3v-1c1.333-.33,2.667-0.67,4-1v-1h3v-1h2v-1c1.333-.33,2.667-0.67,4-1v-1h3v-1c1.333-.33,2.667-0.67,4-1v-1c3-.67,6-1.33,9-2v-1h2v-1c2-.33,4-0.67,6-1v-1h3v-1h2v-1c2.333-.33,4.667-0.67,7-1v-1h5v-1h3v-1h3v-1c2.666-.33,5.333-0.67,8-1,7.815-2.77,17.771-4.58,26-7h10v-1h13v-1h16v-1h22v-1c5.794-1.64,14.593.63,19,1h14v1h18v1h8v1h6v1h8v1h7v1h4v1h6v1h7v1h3v1h3v1c3,0.33,6,.67,9,1v1h3v1h3v1h3v1h3v1c2,0.33,4,.67,6,1v1h2v1c3,0.67,6,1.33,9,2v1c1.33,0.33,2.67.67,4,1v1h3v1h2v1l9,3c0.33,0.67.67,1.33,1,2,2,0.67,4,1.33,6,2,0.33,0.67.67,1.33,1,2,2,0.67,4,1.33,6,2,1,1.33,2,2.67,3,4h2c0.33,0.67.67,1.33,1,2h2c0.67,1,1.33,2,2,3h2c0.33,0.67.67,1.33,1,2,1,0.33,2,.67,3,1,1.67,2,3.33,4,5,6h2c1,1.33,2,2.67,3,4h2c1.3,1.06,1.09,3.58,2,5,0.67,0.33,1.33.67,2,1v2h1v2c1.46,3,2.81,5.45,3,10h-1c-0.33,1.67-.67,3.33-1,5h-1c-2.6,3.35-5,4.92-11,5v-1h-6v-1h-2v-1c-1.67-.33-3.33-0.67-5-1-0.67-1-1.33-2-2-3h-2c-0.67-1-1.33-2-2-3-1-.33-2-0.67-3-1-1.67-2-3.33-4-5-6h-2c-0.67-1-1.33-2-2-3h-2c-0.67-1-1.33-2-2-3h-2c-0.67-1-1.33-2-2-3-1.33-.33-2.67-0.67-4-1-0.33-.67-0.67-1.33-1-2-2-.67-4-1.33-6-2-0.33-.67-0.67-1.33-1-2h-3v-1h-2c-0.33-.67-0.67-1.33-1-2h-3v-1c-1.33-.33-2.67-0.67-4-1v-1h-4v-1h-2v-1h-3v-1h-2v-1c-2-.33-4-0.67-6-1v-1h-4v-1h-3v-1h-3v-1h-3v-1c-2.67-.33-5.33-0.67-8-1v-1h-6v-1h-5v-1h-5v-1h-7v-1h-10v-1h-6v-1h-6v-1h-19v-1h-10c-3.467-.3-10.183-2.38-15-1,0,0-.033.83-2,1-7.548.64-17-.71-23,1H945v1H935v1h-9c-5.962,1.76-13.234,3.18-19,5h-5v1q-5,1.005-10,2v1h-3v1h-3v1c-2.333.33-4.667,0.67-7,1v1h-2v1h-3v1c-3,.67-6,1.33-9,2v1c-1.333.33-2.667,0.67-4,1v1h-4v1c-1.333.33-2.667,0.67-4,1v1h-3v1h-2v1c-2,.67-4,1.33-6,2v1h-3v1c-2,.67-4,1.33-6,2v1h-2v1h-2v1h-2v1h-2v1h-2v1h-2c-0.334.67-.667,1.33-1,2-1.667.33-3.334,0.67-5,1-0.333.67-.667,1.33-1,2-1.333.33-2.667,0.67-4,1v1h-2v1h-2v1h-2v1h-2v1h-2v1h-2v1h-2v1h-2v1h-2c-0.333.67-.667,1.33-1,2-2,.67-4,1.33-6,2-0.333.67-.667,1.33-1,2-1.333.33-2.667,0.67-4,1-0.333.67-.667,1.33-1,2-2,.67-4,1.33-6,2-0.333.67-.667,1.33-1,2h-2v1h-2v1h-2v1h-2c-0.333.67-.667,1.33-1,2-2,.67-4,1.33-6,2v1c-1,.33-2,0.67-3,1-0.333.67-.667,1.33-1,2h-2v1h-2v1h-2c-0.333.67-.667,1.33-1,2-1.333.33-2.667,0.67-4,1-0.333.67-.667,1.33-1,2h-2v1h-2v1h-2c-0.333.67-.667,1.33-1,2h-2v1h-2v1h-2v1h-2c-0.333.67-.667,1.33-1,2h-2v1h-2v1h-2c-0.333.67-.667,1.33-1,2-2,.67-4,1.33-6,2-0.333.67-.667,1.33-1,2-1.333.33-2.667,0.67-4,1-0.333.67-.667,1.33-1,2h-3c-0.333.67-.667,1.33-1,2h-2c-0.333.67-.667,1.33-1,2h-2c-0.333.67-.667,1.33-1,2h-3c-0.333.67-.667,1.33-1,2-1.333.33-2.667,0.67-4,1-0.333.67-.667,1.33-1,2-2,.67-4,1.33-6,2-0.333.67-.667,1.33-1,2-2,.67-4,1.33-6,2-0.333.67-.667,1.33-1,2h-2v1h-2v1h-2v1h-2c-0.333.67-.667,1.33-1,2-2,.67-4,1.33-6,2-0.333.67-.667,1.33-1,2-1.333.33-2.667,0.67-4,1v1c-1.333.33-2.667,0.67-4,1v1h-3c-0.333.67-.667,1.33-1,2-1.667.33-3.334,0.67-5,1-0.333.67-.667,1.33-1,2-1.667.33-3.334,0.67-5,1v1h-2v1c-1.333.33-2.667,0.67-4,1v1h-3v1h-2v1c-2,.33-4,0.67-6,1v1c-1.333.33-2.667,0.67-4,1v1h-3v1h-3v1h-3v1h-4v1h-4v1h-3v1c-3,.33-6,0.67-9,1v1h-9v1c-4.528,1.29-16.906-.09-20-1q-6.5-.495-13-1v-1h-4c-0.333-.67-0.667-1.33-1-2h-3v-1c-2-.33-4-0.67-6-1-0.333-.67-0.667-1.33-1-2h-2v-1h-2l-2-3h-2l-2-3c-1-.33-2-0.67-3-1v-2c-3.374-.98-1.913-1.21-4-3v-1h-2a7.963,7.963,0,0,0-2-4h-1v-2c-0.667-.33-1.333-0.67-2-1v-2c-0.667-.33-1.334-0.67-2-1v-2h-1q-3-7.995-6-16v-4h-1v-3h-1v-3h-1v-7c-4.219-14.64-1.782-37.14-2-55v-5h-1q0.5-56.49,1-113c-1.135-.84-0.146.13-1-1-3.666-.33-7.334-0.67-11-1-0.334-.67-0.667-1.33-1-2h-2v-1h-3v-1a9.012,9.012,0,0,0-4-2,8.308,8.308,0,0,0-2-4h-1v-2h-1v-6c-1.689-5.78-.981-15.58-1-23a10.331,10.331,0,0,1-2-2q-6-.495-12-1c-0.333-.67-0.667-1.33-1-2h-3v-1h-2c-0.334-.67-0.667-1.33-1-2-2-.67-4-1.33-6-2-1-1.33-2-2.67-3-4h-2c-0.334-.67-0.667-1.33-1-2-1.667-1.33-3.334-2.67-5-4v-2c-0.667-.33-1.334-0.67-2-1l-2-6c-0.667-.33-1.333-0.67-2-1v-2h-1v-4h-1v-3h-1v-12h-1v-1c-0.168-2.16,1-2,1-2,1.107-4.47-.143-11.08-2-13-4.17-3.63-21.336.86-28-1v-1h-9v-1c-1.333-.33-2.667-0.67-4-1-0.333-.67-0.667-1.33-1-2h-2c-0.334-.67-0.667-1.33-1-2h-2l-2-3h-2v-1c-0.667-.33-1.334-0.67-2-1v-2c-1-.67-2-1.33-3-2v-2c-0.667-.33-1.334-0.67-2-1-0.334-1.33-.667-2.67-1-4h-1v-2h-1l-2-6h-1v-4h-1v-3h-1v-3h-1v-3h-1v-3h-1v-6h-1v-4h-1q-0.5-6-1-12h-1v-5h-1v-5h-1v-8h-1v-6h-1v-7h-1v-11h-1q-0.5-7.005-1-14v-11c-2.317-8.37-1-21.89-1-32,0-12.76-2.01-32.35,1-43v-16h1v-9h1v-11h1v-8h1v-5h1v-8c2.3-7.76,3.682-18.33,6-26v-6h1c0.333-2.33.667-4.67,1-7h1v-2h1v-4h1v-2h1v-3h1c0.333-1.33.667-2.67,1-4h1q1-3,2-6h1v-2c0.666-.33,1.333-0.67,2-1v-2h1a8.237,8.237,0,0,0,2-4,7.743,7.743,0,0,0,4-2v-1c1-.33,2-0.67,3-1,0.333-.67.666-1.33,1-2,1.666-.33,3.333-0.67,5-1,0.333-.67.667-1.33,1-2,3.333-.33,6.667-0.67,10-1v-1c6.626-1.9,24.129,2.07,27,0,1-.33,2-0.67,3-1v-28c1.758-1.56.956-1.83,2-4h1v-4h1v-2c0.666-.33,1.333-0.67,2-1q1-3,2-6c0.667-.33,1.333-0.67,2-1q3.5-4,7-8h2l2-3h2l1-2,9-3v-1h2v-1h3v-1h11c3.187-.889,15.381-2.3,20-1v1l16,1v-1h2v-1l6-2,1-2,12-2v-1h4v-1h21v1h4v1h6v1h4v1h3q0.5,1,1,2l4,1q0.5,1,1,2h2l5,6,3,1v2c0.666,0.33,1.333.67,2,1v1l4,3v3h1v2c0.666,0.33,1.333.67,2,1q1,4.5,2,9h1v2h1v418h-1v3h-1v2h-1v4h-1q-1,3-2,6h-1c-0.333,1.33-.667,2.67-1,4h-1A8.246,8.246,0,0,0,581,1464Zm380-404c8,1.24,22.246-.23,30,2h8v1h3c0.33,0.67.67,1.33,1,2h2c0.33,0.67.67,1.33,1,2,3.08,2.07,4.75.6,6,5,4.02,1.13,5.27,3.7,7,7v2c0.67,0.33,1.33.67,2,1v3h1c0.33,1.33.67,2.67,1,4h1v3h1v3h1v3h1v3h1v3h1c0.33,2.33.67,4.67,1,7h1v4h1v6h1v3h1v3h1v9h1v5h1v5h1v12h1v9h1v8h1v23h1v31c0.41,1.5,1.85,5.98,1,9h-1v33h-1v22h-1v9h-1v10h-1v11h-1v5h-1v4h-1q-0.495,6.495-1,13h-1v3h-1v6h-1v3h-1v5h-1v3h-1v3h-1v3h-1v3h-1v3h-1c-0.33,1.67-.67,3.33-1,5h-1c-0.33,1.33-.67,2.67-1,4h-1v2h-1v3c-0.67.33-1.33,0.67-2,1v2c-1.33,1-2.67,2-4,3-0.67,1-1.33,2-2,3-1.33.33-2.67,0.67-4,1-0.67,1-1.33,2-2,3h-2v1h-3v1h-4v1h-4v1H981c-7.024,0-14.35.53-20,1,0.174,23.09-2.484,37.52-14,49-1,1.33-2,2.67-3,4h-2c-1.333,1.67-2.667,3.33-4,5-2,.67-4,1.33-6,2-0.333.67-.667,1.33-1,2h-2v1h-4v1h-3v1h-5v1H884v-1c-2.333-.33-4.667-0.67-7-1v1c-1.667.33-3.334,0.67-5,1-0.333.67-.667,1.33-1,2h-2v1h-3c-0.333.67-.667,1.33-1,2h-3v1h-4v1h-6v1h-4v1c-5.41,1.6-23.973-.78-28-2v-1h-5v-1h-3c-0.333-.67-0.667-1.33-1-2h-2v-1c-1.333-.33-2.667-0.67-4-1v-1c-2.065-1.67-3.034-3.17-6-4v-2c-23.879-11.27-18-70.84-18-107V1097c0-22.71-2.564-53.21,3-71q0.5-4.5,1-9h1v-2h1v-2c0.666-.33,1.333-0.67,2-1v-3c0.666-.33,1.333-0.67,2-1v-2c1-.67,2-1.33,3-2v-2l4-3v-1h2l2-3,3-1q0.5-1,1-2l5-1q0.5-1,1-2h3v-1l6-1v-1h10v-1h1v1c2.023,0.309,1.211-.448,2-1l2,1,10-1v1h8v1h5v1h5v1h2v1h2q0.5,1,1,2l5,1q0.5,1,1,2l44-1v1l7,1v1l6,2v1h2v1c1.333,0.33,2.667.67,4,1,0.333,0.67.667,1.33,1,2h2l2,3h2v1c1,0.67,2,1.33,3,2v2c1,0.67,2,1.33,3,2,0.333,1.33.667,2.67,1,4,0.666,0.33,1.333.67,2,1,0.333,1.67.666,3.33,1,5h1c0.333,1.33.667,2.67,1,4h1v3h1v6C961.01,1043.73,961.051,1050.75,961,1060Zm1853-47v-3c1-.67,2-1.33,3-2v-1h1v1h1v3c-1,.33-2,0.67-3,1C2814.86,1013.14,2816,1012.4,2814,1013Zm-2,1c1.14,1.14.4,0,1,2h-1v-2ZM1758,1783c1,0.33,2,.67,3,1v1h2v1c2,0.33,4,.67,6,1v1h13c3.35-3.68,8.42-2.96,10-9h1c1.96-3.77-3.69-11.08-5-12h-2c-0.33-.67-0.67-1.33-1-2h-5v-1h-4v-1h-3v-1h-7v-1h-2v-1c-2.33-.33-4.67-0.67-7-1v-1h-3v-1c-2-.67-4-1.33-6-2-0.33-.67-0.67-1.33-1-2h-2v-1h-2c-1-1.33-2-2.67-3-4-0.67-.33-1.33-0.67-2-1-0.33-1.67-.67-3.33-1-5-0.67-.33-1.33-0.67-2-1v-3h-1v-8h-1c-0.89-3.31,1.78-12.69,3-14,0.83-3.77,5.3-9.08,9-10v-2c1-.33,2-0.67,3-1v-1h3c0.33-.67.67-1.33,1-2h2v-1h6v-1q10.005-.495,20-1v1h5v1h3v1h4v1h2c0.33,0.67.67,1.33,1,2h2v1h2q3.495,3,7,6v2c0.67,0.33,1.33.67,2,1,0.33,1.67.67,3.33,1,5h1q1.5,5.505,3,11h-1c-2.19,1.98-16.44,1.09-21,1-1.78-4.48-2.95-10.7-8-12-1.53-1.58-11.64-4.42-16-3v1a55.024,55.024,0,0,1-8,2c-2.63,4.5-3.96,3.16-4,11,1.36,1.17,1.53,1.82,2,4,1.33,0.67,2.67,1.33,4,2,0.33,0.67.67,1.33,1,2,2,0.33,4,.67,6,1v1h2v1c2.67,0.33,5.33.67,8,1v1c2.67,0.33,5.33.67,8,1v1h4v1h3v1h3v1h3v1c1.33,0.33,2.67.67,4,1v1h2c1,1.33,2,2.67,3,4,1,0.67,2,1.33,3,2v2c0.67,0.33,1.33.67,2,1v3h1v2h1v8h1c1.1,4.07-2.94,11.52-4,14v3c-1,.67-2,1.33-3,2v2c-1.33,1-2.67,2-4,3v1h-2c-0.33.67-.67,1.33-1,2h-2v1h-2v1h-3v1h-2v1c-2.33.33-4.67,0.67-7,1v1h-7c-1.62.36-13.7,1.09-17,0v-1h-3v-1c-2.67-.33-5.33-0.67-8-1-0.33-.67-0.67-1.33-1-2-1.33-.33-2.67-0.67-4-1-0.67-1-1.33-2-2-3h-2c-1.67-2-3.33-4-5-6v-2c-0.67-.33-1.33-0.67-2-1-0.33-2-.67-4-1-6h-1c-1.01-2.31-1-4.62-1-8,5.03-1.87,14.32-1.05,21-1a8.945,8.945,0,0,0,2,2v4c0.67,0.33,1.33.67,2,1C1757.33,1780.33,1757.67,1781.67,1758,1783Zm892-25c0.72,2.76.28,2.24,3,3,0.72,2.76.28,2.24,3,3v2c2.53,1.38,3.82,3.18,7,4v-1h1c0.33-1.67.67-3.33,1-5h1v-2h1v-2h1v-2h1v-2h1v-2h1v-4c0.2-4.77.74-7.47,3-10,0.33-.67.67-1.33,1-2h16c1.08,2.87,1.04,7.69,1,12-4.31,3.95-1.04,6.86-3,12h-1v2c-0.67.33-1.33,0.67-2,1v3h-1c-0.33,1.33-.67,2.67-1,4h-1v2h-1v3c-0.67.33-1.33,0.67-2,1a16.509,16.509,0,0,0-3,8q8.505,7.995,17,16v1h-1c-3.23,2.83-4.53-.73-8,0v1h-16v-1h-2c-1.33-1.67-2.67-3.33-4-5h-5c-2.06,2.47-4.58,2.71-8,4v1h-7c-3.66,1.05-14.17,3.77-20,2v-1h-5v-1h-1v1c-1.39-.27.34-0.54-1-1h-3v-1c-1.33-.33-2.67-0.67-4-1v-1h-2c-0.33-.67-0.67-1.33-1-2h-2q-3.495-3-7-6v-3c-0.67-.33-1.33-0.67-2-1q-1.5-7.005-3-14c1.06-4.07,2.69-8.16,3-13,2.33-1.44,2.9-4.46,5-6h2c1-1.33,2-2.67,3-4h2v-1h2c0.33-.67.67-1.33,1-2,1-.33,2-0.67,3-1v-4c-2.87-1.65-3.52-3.91-5-7h-1v-6h-1v-2h-1c0.33-1.67.67-3.33,1-5h1c0.56-1.89-.47-1.36-1-2,0.15-1.41.64,0.37,1-1v-4h1v-3h1v-2h1a8.486,8.486,0,0,0,2-4h2c0.33-1,.67-2,1-3,1-.33,2-0.67,3-1v-1h3c0.33-.67.67-1.33,1-2h2v-1h5c2.63-.8,6.79-2.8,11-2v1c1-.33,2-0.67,3-1v1c2,0.33,4,.67,6,1v1h3c0.33,0.67.67,1.33,1,2,1.67,0.33,3.33.67,5,1,0.67,1.33,1.33,2.67,2,4,1.33,1,2.67,2,4,3,0.55,0.97,3.38,13.52,3,15h-1v6h-1v3h-1v2h-1v2c-1,.67-2,1.33-3,2-0.33,1-.67,2-1,3h-2c-0.67,1-1.33,2-2,3h-2c-0.33.67-.67,1.33-1,2-4.24,2.63-5.92-1.02-7,6,1.3,1.05,1.49,2.04,3,3C2649.14,1758.14,2648,1757.4,2650,1758Zm675-45h2c0.33,1,.67,2,1,3,1.67,1.33,3.33,2.67,5,4v2c0.67,0.33,1.33.67,2,1v3h1v2c0.67,0.33,1.33.67,2,1,0.33,2.33.67,4.67,1,7h1v3h1q0.495,9,1,18h-1v7h-1v2h-1v6h-1v2c-0.67.33-1.33,0.67-2,1-0.33,1.33-.67,2.67-1,4-0.67.33-1.33,0.67-2,1-0.67,2-1.33,4-2,6-2.76.72-2.24,0.28-3,3-2.76.72-2.24,0.28-3,3-3.02.84-3.85,2.37-6,4v1h-3c-0.33.67-.67,1.33-1,2h-3v1h-2c-0.33.67-.67,1.33-1,2h-2v1h-5v1h-3v1c-1-.33-2-0.67-3-1v1h-6v1h-6v-1h-8v-1h-4v-1h-3v-1h-4v-1c-1.33-.33-2.67-0.67-4-1v-1h-2c-0.33-.67-0.67-1.33-1-2h-3c-1-1.33-2-2.67-3-4h-2q-4.995-5.505-10-11v-2c-0.67-.33-1.33-0.67-2-1-0.33-1.33-.67-2.67-1-4h-1v-2h-1v-4h-1v-3h-1v-3h-1v-9h-1q0.495-7.995,1-16h1v-3h1c0.97-2.46.73-5.91,2-8,0.67-.33,1.33-0.67,2-1v-2h1c0.33-1.33.67-2.67,1-4,1.67-1.33,3.33-2.67,5-4,0.33-1,.67-2,1-3,2.27-1.92,1.76,1.06,3-3,3.03-.86,3.83-2.37,6-4v-1h3v-1h2v-1c2-.67,4-1.33,6-2v-1h3c4.48-1.69,16.6-4.98,24-3v1c1-.33,2-0.67,3-1v1h4v1h2v1h6c0.33,0.67.67,1.33,1,2h2v1h3v1c1.33,0.33,2.67.67,4,1,1.33,1.67,2.67,3.33,4,5,1,0.33,2,.67,3,1v2Zm-1819-6v2c4.43,1.92,8.77,4.85,10,10h2c0.33,1,.67,2,1,3h1v2h1v2h1c0.67,2,1.33,4,2,6h1v4h1v5h1v9h1q-1.005,7.5-2,15h-1v2h-1c0.33,1,.67,2,1,3h-1c-0.67,2-1.33,4-2,6h-1c-0.33,1.33-.67,2.67-1,4-0.67.33-1.33,0.67-2,1v1c-0.67.33-1.33,0.67-2,1v2h-1c-1.43,1.73-2.32,2.41-3,5a7.851,7.851,0,0,0-4,2v1c-1,.33-2,0.67-3,1-0.33.67-.67,1.33-1,2-1.67.33-3.33,0.67-5,1-0.33.67-.67,1.33-1,2-2.13,1.25-4.26-.03-7,1v1h-2v1h-3v1q-27,.495-54,1c-1.1-6.81,0-19.24,0-29,0-24.68,1.11-51.99-1-75,4.09-1.5,11.36-1,17-1h33v1h8c0.33,0.67.67,1.33,1,2,2.67,0.33,5.33.67,8,1,0.33,0.67.67,1.33,1,2C1501.33,1705.67,1503.67,1706.33,1506,1707Zm95,89c-0.78-2.97-2.35-3.94-4-6h-1v-2c-3.46-6.09-4.9-11.24-5-21h21c2.19,5.95,2.8,11.95,8,15v1h4v1h3v1c2.15,0.62,5.73-.41,7-1v-1c1.67-.33,3.33-0.67,5-1,0.67-1,1.33-2,2-3h1v-2h1v-2c0.67-.33,1.33-0.67,2-1v-7c2.44-2.78,1-13.25,1-18v-49c5.03-1.87,14.32-1.05,21-1a3.978,3.978,0,0,0,2,2c-1.62,4.63-1,12.78-1,19v55h-1v3h-1c-0.33,2.33-.67,4.67-1,7-0.67.33-1.33,0.67-2,1-0.33,1.67-.67,3.33-1,5-2,1.67-4,3.33-6,5-0.67,1-1.33,2-2,3-1.33.33-2.67,0.67-4,1-0.33.67-.67,1.33-1,2-2.33.33-4.67,0.67-7,1v1h-3v1c-3.03.95-15.5,0.74-18,0v-1c-3-.33-6-0.67-9-1-0.33-.67-0.67-1.33-1-2-2-.67-4-1.33-6-2v-1A8.4,8.4,0,0,0,1601,1796Zm359-77v-19c6.58-2.41,18.65-1,27-1h58c1.51,4.05,1.05,11.39,1,17h-1v3h-1v1c-5.66-1.14-25.34-2.68-29,1-2.07,2.36-1,16.28-1,21v60c-5.1,2.67-13.08,2.08-21,2-2.41-6.58-1-18.65-1-27v-56c-6.09-3.17-18.79-2.08-28-2v1C1962.67,1719.67,1961.33,1719.33,1960,1719Zm216,67c-12.16-2.23-30.79-1.17-43,0-0.33,1.33-.67,2.67-1,4h-1v5c-0.67.33-1.33,0.67-2,1-0.33,2.33-.67,4.67-1,7h-1c-2.23,2.01-17.33,1.09-22,1-0.33-1-.67-2-1-3,4.89-3.2,1.87-5.02,4-10h1v-2h1v-4h1v-3h1v-2h1c0.33-2,.67-4,1-6h1v-3h1v-2h1v-4h1v-3h1v-2h1v-3h1c0.67-3,1.33-6,2-9h1v-2c0.67-.33,1.33-0.67,2-1v-5h1v-3h1v-2h1v-3h1v-3h1v-3h1v-3c2.59-6.52,7.09-15.21,8-23,8.02-1.43,19.41-1.01,29-1a8.571,8.571,0,0,0,2,2v3h1c0.33,2.33.67,4.67,1,7h1v2h1c0.33,2.33.67,4.67,1,7h1v2h1c0.33,2.33.67,4.67,1,7,0.67,0.33,1.33.67,2,1,0.33,2.33.67,4.67,1,7h1v2h1c0.33,1.67.67,3.33,1,5h1v4h1v2h1c0.33,2,.67,4,1,6h1v2h1v3h1v4h1v2h1c0.33,2.33.67,4.67,1,7,0.67,0.33,1.33.67,2,1v3h1v5h1c0.33,1.33.67,2.67,1,4h1v5c0.67,0.33,1.33.67,2,1l3,9c-5.1,2.67-13.08,2.08-21,2v-1h-3v-1c-2.91-2.65-.55-3.32-2-7h-1v-2c-0.67-.33-1.33-0.67-2-1C2176.67,1790,2176.33,1788,2176,1786Zm115-40h3c1.38-2.47,3.74-3.25,5-5v-2c0.67-.33,1.33-0.67,2-1,0.33-1,.67-2,1-3,1.33-1,2.67-2,4-3v-2c0.67-.33,1.33-0.67,2-1v-2c1-.67,2-1.33,3-2v-2c1.67-1.33,3.33-2.67,5-4v-2c0.67-.33,1.33-0.67,2-1v-1c0.67-.33,1.33-0.67,2-1,0.33-1.33.67-2.67,1-4,1.33-1,2.67-2,4-3v-2c1-.67,2-1.33,3-2,0.33-1,.67-2,1-3h2c2.31-2.08,19.1-1.09,24-1-0.67,5.5-4.57,5.71-6,11h-2c-0.87,3.43-2.07,2.57-3,6h-2a7.851,7.851,0,0,1-2,4h-1v2c-0.67.33-1.33,0.67-2,1v2c-2,1.67-4,3.33-6,5v2c-1,.67-2,1.33-3,2v2c-1.33,1-2.67,2-4,3v2c-0.67.33-1.33,0.67-2,1-0.67,1-1.33,2-2,3h-1v2c-1,.67-2,1.33-3,2v4c3.39,2.06,3.78,4.91,6,8q3.495,3,7,6v2c0.67,0.33,1.33.67,2,1v2c2,1.67,4,3.33,6,5v2q3.495,3,7,6v2c0.67,0.33,1.33.67,2,1v2c0.67,0.33,1.33.67,2,1v1c0.67,0.33,1.33.67,2,1v2h1a8.051,8.051,0,0,1,2,4c3.22,0.74,3.64,1.36,4,5h-28c-1.39-2.47-3.74-3.25-5-5v-2c-0.67-.33-1.33-0.67-2-1-0.33-1-.67-2-1-3-1.67-1.33-3.33-2.67-5-4v-2c-0.67-.33-1.33-0.67-2-1-0.33-1-.67-2-1-3-1.33-1-2.67-2-4-3v-2c-1.33-1-2.67-2-4-3v-2c-0.67-.33-1.33-0.67-2-1v-1c-0.67-.33-1.33-0.67-2-1v-2c-0.67-.33-1.33-0.67-2-1-2.25-3.28-2.5-5.82-7-7v1c-1.59,1.83-1,6.63-1,10v23c0.02,3.7.98,6.58,0,8-2.44,3.55-14.2,2.15-20,2-1.14-1.14,0-.4-2-1V1700c5.03-1.87,14.32-1.05,21-1a3.978,3.978,0,0,0,2,2C2289.7,1713.89,2290.99,1731.42,2291,1746Zm151,57c-6.21.56-14.38,0.99-22,1-1.92-10.75-1-25.61-1-38v-66c5.28-1.96,15.05-1.05,22-1,2.68,7.34,1,23.55,1,33v71Zm430-58v-3c3.81-2.27,4.57-5.42,7-9,0.67-.33,1.33-0.67,2-1v-2c1.67-1.33,3.33-2.67,5-4v-2c1-.67,2-1.33,3-2v-2c0.67-.33,1.33-0.67,2-1v-2c1.33-1,2.67-2,4-3,0.33-1,.67-2,1-3,0.67-.33,1.33-0.67,2-1v-2c0.67-.33,1.33-0.67,2-1,0.33-1,.67-2,1-3h1a8.051,8.051,0,0,0,2-4c7.12-1.28,17.33-1.01,26-1v3c-3.05,1.84-2.97,4.13-5,7-1.67,1.33-3.33,2.67-5,4v2c-1.67,1.33-3.33,2.67-5,4v2c-1,.67-2,1.33-3,2v2c-0.67.33-1.33,0.67-2,1-0.33,1-.67,2-1,3h-1c-0.33,1-.67,2-1,3-2.76.72-2.24,0.28-3,3h-2a7.811,7.811,0,0,1-2,4h-1v2c-0.67.33-1.33,0.67-2,1v2c-0.67.33-1.33,0.67-2,1v2c-2.05,2.92-3.2.46-4,6a6.759,6.759,0,0,1,4,5h2c0.33,1,.67,2,1,3,0.67,0.33,1.33.67,2,1v2c1.67,1.33,3.33,2.67,5,4v3h2c0.33,1,.67,2,1,3,1.67,1.33,3.33,2.67,5,4v2c0.67,0.33,1.33.67,2,1,0.67,1,1.33,2,2,3h1v2h1a7.811,7.811,0,0,1,2,4h2v2c1.33,1,2.67,2,4,3v2c1.83,2.53,3.94,1.93,5,6h-1v1h-4c-2.62-2.01-18.07,2.4-22-1h-2v-1c-0.67-.33-1.33-0.67-2-1v-2c-1-.67-2-1.33-3-2v-1c-0.67-.33-1.33-0.67-2-1v-2c-0.67-.33-1.33-0.67-2-1v-2h-1a7.811,7.811,0,0,1-2-4h-2v-2c-1-.67-2-1.33-3-2v-2c-1.67-1.33-3.33-2.67-5-4v-2c-0.67-.33-1.33-0.67-2-1-1.67-2.3,1.07-1.8-3-3v-2c-3.47-2.37-2.66-6.27-8-7-2.93,7.97-1.05,31.31-1,42-5.2.84-15.16,0.76-23,0V1700c5.28-1.96,15.05-1.05,22-1,1.41,3.84,1,10.62,1,16v30h1v1C2869.33,1745.67,2870.67,1745.33,2872,1745Zm123-45c5.67-1.02,13.85-1.01,21-1,2.68,7.34,1,23.55,1,33v71a10.587,10.587,0,0,1-4,1c-1.68-1.26-12.34-.35-16,0-3.57-6.97-2-21.79-2-32v-72Zm155,50c1.67,0.33,3.33.67,5,1,0.67,1,1.33,2,2,3h2c0.33,0.67.67,1.33,1,2h2c0.33,0.67.67,1.33,1,2h1v3c0.67,0.33,1.33.67,2,1v2h1v4c0.59,1.78,3.01,5.71,2,9h-1v3h-1v6h-1a7.929,7.929,0,0,1-2,4h-1v2c-0.67.33-1.33,0.67-2,1-1,1.33-2,2.67-3,4h-2c-0.33.67-.67,1.33-1,2h-2v1c-2.33.33-4.67,0.67-7,1v1h-2v1h-13v1a2.651,2.651,0,0,1-3-1h-13c-9.89,0-20.55.64-29,1-2.68-7.34-1-23.55-1-33v-71c4.09-1.5,11.36-1,17-1h33q7.5,2.505,15,5c0.33,0.67.67,1.33,1,2h2c0.33,1,.67,2,1,3,1,0.67,2,1.33,3,2v2h1c0.96,1.24.73,1.93,2,3,0.26,3.85,2.75,15.94,0,19C3158.25,1741.64,3150.98,1743.13,3150,1750Zm-514-37v1h-5q-3,3.495-6,7c-0.37,9.29,1.92,18.04,11,18,2.02-2.83,4.41-2.15,7-4,1.67-2.33,3.33-4.67,5-7v-4h1a20.583,20.583,0,0,1-1-4c-3.02-1.98-.54-1.12-2-3C2644.14,1714.61,2639.53,1713.66,2636,1713Zm475,4v1h-3v1c-1.98,2.19-1.09,16.44-1,21,6.03,2.23,17.24,1.05,25,1,1.14-1.14,0-.4,2-1,1-1.33,2-2.67,3-4h1c1.16-1.68-.02-2.29,2-4a39.242,39.242,0,0,1-1-8c-1.33-1-2.67-2-4-3v-1C3129.83,1716.64,3119.57,1716.99,3111,1717Zm198,9c-1-.33-2-0.67-3-1v-1h-3c-1-1.33-2-2.67-3-4-2.67-.33-5.33-0.67-8-1v-1h-3v-1h-5v1q-6,1.005-12,2c-0.67,1-1.33,2-2,3h-2c-0.67,1-1.33,2-2,3h-2c-0.67,1.33-1.33,2.67-2,4-1,.67-2,1.33-3,2v3c-0.67.33-1.33,0.67-2,1v2h-1v5h-1v2h-1c-1.05,3.07.53,8.43,1,10,0.33,3,.67,6,1,9h1v3c0.67,0.33,1.33.67,2,1v2c0.67,0.33,1.33.67,2,1v2q3.495,3,7,6v1h3c0.33,0.67.67,1.33,1,2h2v1h6v1c3.33,0.33,6.67.67,10,1v-1h6v-1h3v-1h2c0.33-.67.67-1.33,1-2h2c0.67-1,1.33-2,2-3h2v-1c1.33-1,2.67-2,4-3v-3c0.67-.33,1.33-0.67,2-1v-2h1c1.85-2.39,1.92-2.68,2-7h1v-6h1q-1.005-7.995-2-16c-0.67-.33-1.33-0.67-2-1v-2h-1v-2c-0.67-.33-1.33-0.67-2-1v-2h-1A8.4,8.4,0,0,1,3309,1726Zm-1852-7v1c-1,.33-2,0.67-3,1v61c5.28,1.96,15.05,1.05,22,1v-1h9v-1h2v-1h2c1.33-1.67,2.67-3.33,4-5h2c0.33-.67.67-1.33,1-2h1v-2c0.67-.33,1.33-0.67,2-1,1.58-2.32,1.93-4.28,4-6,0.22-6.04,4.04-11.23,2-18h-1v-4h-1v-3h-1v-3h-1a22.627,22.627,0,0,0-2-2v-2c-0.67-.33-1.33-0.67-2-1-0.33-1-.67-2-1-3h-2c-0.33-.67-0.67-1.33-1-2h-2c-0.67-1-1.33-2-2-3-1.33-.33-2.67-0.67-4-1v-1h-4C1474.59,1718.94,1465.83,1718.91,1457,1719Zm697,7c-1.1,1.99-3.21,3.72-4,6v6c-0.67.33-1.33,0.67-2,1v2h-1v6c-0.67.33-1.33,0.67-2,1v2h-1v6h-1v2c-0.67.33-1.33,0.67-2,1v6c6.28,2.32,17.97,1.05,26,1a12.6,12.6,0,0,0,1-5h-1v-5c-0.67-.33-1.33-0.67-2-1v-3h-1v-5h-1v-2c-0.67-.33-1.33-0.67-2-1v-6h-1v-2c-0.67-.33-1.33-0.67-2-1-0.92-2.08-.28-7.06-1-9h-3Zm467,35v2h-2c-1,1.33-2,2.67-3,4h-1v3h-1v2h-1c0.33,2,.67,4,1,6h1v3c1.67,1.33,3.33,2.67,5,4,1.8,1.76,14.79,4.92,20,3v-1c2-.67,4-1.33,6-2,0.33-1,.67-2,1-3-1.14-1.14-.4,0-1-2-2.76-.72-2.24-0.28-3-3-2.76-.72-2.24-0.28-3-3-3.37-.98-1.91-1.21-4-3v-1h-2c-0.72-2.76-.28-2.24-3-3v-2c-3.18-1.89-3.3-4.39-8-5C2621.86,1761.14,2623,1760.4,2621,1761Zm487-1c-2.05,5.53-1.05,15.78-1,23,5.7,2.96,17.25,2.08,26,2v-1h5v-1h2c0.33-.67.67-1.33,1-2,2.58-1.84,1.84,1.08,3-3,2.31-1.98,2.11-5.57,2-10-3-1.99-.67-1.4-2-3-1-.33-2-0.67-3-1v-1c-1.92-1.53-2.47-1.79-6-2C3132.58,1758.83,3113.24,1759.91,3108,1760Z"/>
</svg>
