<svg width="50%" fill="none"  viewBox="0 0 4000 2250" fill="none" xmlns="http://www.w3.org/2000/svg">
  <defs>
    <mask id="mask">
      <rect id="mask-rect" x="0" y="0" width="100%" height="100%" fill="#ffffff"/>
    </mask>
  </defs>
<path fill-rule="evenodd" clip-rule="evenodd" d="M1594,835c-16.67-3.077-40.18-2-60-2H1431c-16.47,0-36.26,1.639-51-1a12.638,12.638,0,0,1-1-5h1q1.005-5.5,2-11h1c-0.33-1.667-.67-3.334-1-5h1v-2c0.67-.333,1.33-0.667,2-1v-8h1c0.33-1.333.67-2.667,1-4h1v-9h1v-2h1c0.33-3.333.67-6.667,1-10h1v-4h1v-4h1v-3h1c0.33-2.667.67-5.334,1-8h1V746c0.67-.333,1.33-0.667,2-1v-2h1v-7h1v-3h1v-2h1a1.6,1.6,0,0,0-1-2q1.005-5.5,2-11h1v-2h1c0.33-1.667.67-3.334,1-5h1c-0.33-1.667-.67-3.334-1-5h1v-3h1v-4h1c0.33-3,.67-6,1-9h1v-8h1v-2h1l3-9v-9h1c0.33-1.333.67-2.667,1-4h1v-7h1v-2h1v-8h1c0.33-2.666.67-5.334,1-8a21.966,21.966,0,0,0,5-4h699c0.33,1,.67,2,1,3,1.72,1.88,1.05,5.845,0,8h-1v2h-1v9h-1v2h-1v5h-1v4h-1v4h-1v8c-0.67.333-1.33,0.667-2,1v7h-1v3h-1v2h-1v8h-1v3h-1c-0.33,3-.67,6-1,9h-1v5h-1c-0.25,1.2,1.78,1.728,1,4h-1c-0.33,1.333-.67,2.667-1,4h-1v7h-1v2h-1v3h-1v8h-1v3h-1c-0.33,3-.67,6-1,9h-1v4h-1v4h-1v3h-1q-1.005,6.5-2,13h-1c0.33,1.666.67,3.333,1,5h-1v4h-1c-0.33,2.333-.67,4.667-1,7h-1v2h-1v3h-1a1.642,1.642,0,0,0,1,2c-0.33,2-.67,4-1,6h-1q-1.995,12-4,24l-3,2c-0.33.667-.67,1.333-1,2H1873v1c-1.67.333-3.33,0.667-5,1-0.33,1-.67,2-1,3h-1v2h-1v8h-1v2h-1v5h-1v4h-1v4h-1v8h-1v2h-1v3h-1v1h1c-0.33,1.666-.67,3.333-1,5h-1v2h-1v9h-1v3h-1v4h-1v4h-1v4h-1v8c-0.67.333-1.33,0.667-2,1v7h-1v3h-1v2h-1v9h-1v2h-1v5h-1v4h-1v5h-1c0.33,1.666.67,3.333,1,5h-1v2c-0.67.333-1.33,0.667-2,1v7h-1v3h-1v2h-1v9h-1v2h-1v5h-1v4h-1v4h-1c-0.66,2.25,1.11,4.47,1,5h-1c-0.33,1.33-.67,2.67-1,4h-1v7h-1v3c-0.67.33-1.33,0.67-2,1v9h-1v3h-1c-0.33,3-.67,6-1,9h-1v9h-1v2c-0.67.33-1.33,0.67-2,1v8h-1c-0.33,1.33-.67,2.67-1,4h-1v4h1c-0.33,1.33-.67,2.67-1,4h1v2c1.29,1.87,7.97,1,11,1h33c0.87,2.32,1.02,4.41,1,8h-1v7h-1c-0.33,1.33-.67,2.67-1,4h-1c-0.3,1.1,1.67,1.77,1,4h-1v3h-1v2h-1v9h-1v2h-1v5h-1v4h-1v3h-1v8h-1v2h-1v7h-1v3h-1v2h-1v8h-1v2h-1v5h-1c-0.33,3-.67,6-1,9h-1c0.33,1.67.67,3.33,1,5h-1c-0.33,1.33-.67,2.67-1,4h-1v7h-1v2h-1v3h-1v8h-1v3h-1v5h-1v4h-1v4h-1c0.33,1.67.67,3.33,1,5h-1c-0.33,1.33-.67,2.67-1,4h-1v7h-1c-0.33,1.33-.67,2.67-1,4h-1v9h-1v3h-1c-0.33,3-.67,6-1,9h-1v9h-1v2c-0.67.33-1.33,0.67-2,1v7h-1c-0.33,2-.67,4-1,6h-1c0.33,1.33.67,2.67,1,4h-1v4h-1v3h-1v4h-1v4h-1v9h-1c-0.33,1.33-.67,2.67-1,4h-1v8h-1c-0.33,1.33-.67,2.67-1,4h-1c-0.79,2.3,1.05,2.69,1,4h-1v4h-1c-0.33,3-.67,6-1,9h-1v3h-1v9h-1c-0.33,1.33-.67,2.67-1,4h-1v7h-1v2h-1v8h-1q-1.005,5.505-2,11h-1v4h-1v9h-1c-0.33,1.33-.67,2.67-1,4h-1v7h-1v2h-1v8h-1v3h-1v5h-1v4h-1v3h-1v6h1c-0.33.67-.67,1.33-1,2-6.11,2.46-16.09,2-25,2H1529c-8.41,0-17.32.28-23-2-0.33-1-.67-2-1-3,1.94-1.79.86-1.86,2-4h1v-2h1v-7h1v-2h1v-8h1v-3h1v-5c1.91-5.85,4.09-13.15,6-19v-5h1v-3h1v-9c0.67-.33,1.33-0.67,2-1v-2h1v-8h1v-2h1v-8h1v-3h1v-4h1v-5h1v-3h1v-9c0.67-.33,1.33-0.67,2-1v-3h1v-1c-0.32-.53-1.77-0.72-1-3h1v-2h1v-3h1v-8h1v-3h1c0.33-3,.67-6,1-9,1.49-4.58,3.48-10.2,5-15v-5h1v-4h1v-7h1c0.33-1.33.67-2.67,1-4h1c-0.33-1.67-.67-3.33-1-5h1v-2h1v-3h1v-8h1v-2h1v-5h1v-4h1v-4h1v-8h1c0.33-1.33.67-2.67,1-4h1v-4h1v-4h1v-8c0.67-.33,1.33-0.67,2-1v-8h1c0.33-1.33.67-2.67,1-4h1v-9h1v-2h1v-5h1v-4h1v-10c0.67-.33,1.33-0.67,2-1v-2h1v-7h1v-3h1v-2h1c-0.33-1.67-.67-3.33-1-5h1v-4h1v-3h1c0.33-2.67.67-5.33,1-8h1v-4h1v-4h1v-4h1v-5h1v-3h1v-9h1c0.33-1.33.67-2.67,1-4h1v-7h1c0.94-2.24.88-3.85,1-7-2.61-1.38-1.69-1.77-6-2-1.93-1.71-7.47-1-11-1h-28a13.428,13.428,0,0,0-3-4q1.5-6.495,3-13h1v-8c0.67-.33,1.33-0.67,2-1v-3h1v-1a2.5,2.5,0,0,1-1-3h1v-3h1v-2h1v-9h1v-2h1c0.33-3,.67-6,1-9,2.48-7.24,4.79-16.569,7-24,0.66-2.213-1.11-4.515-1-5h1c0.33-1.333.67-2.667,1-4h1v-7h1v-3h1v-2h1v-8h1v-3h1v-5h1v-4h1v-5h1v-3h1v-3h1v-4h1v-5h1v-9h1c0.33-1.333.67-2.667,1-4h1v-7h1c0.33-1.333.67-2.667,1-4h1v-9c3.08-10.07,5.91-21.87,9-32v-9h1v-2c0.67-.333,1.33-0.667,2-1v-7h1C1595.41,841.005,1594.61,838.662,1594,835ZM3421,632c-0.33,2-.67,4-1,6h-1v10c-0.67.333-1.33,0.667-2,1v2h-1v7h-1v3h-1v2h-1c0.33,1.666.67,3.333,1,5h-1v4h-1v3h-1v5h-1v3h-1v4h-1v4h-1v4h-1v5h-1v3h-1v9h-1c-0.33,1.333-.67,2.667-1,4h-1v7h-1v2h-1v8h-1v3h-1c-0.33,3-.67,6-1,9-1.45,4.462-3.54,10.459-5,15v5h-1v3h-1v9c-0.67.333-1.33,0.667-2,1v3h-1v7h-1v2h-1v8h-1v3h-1v4h-1c-0.33,3-.67,6-1,9h-1v3h-1v3h-1c-0.33,3.333-.67,6.667-1,10h-1v3h-1v8h-1c-0.33,1.333-.67,2.667-1,4h-1v10c1.67-.333,3.33-0.667,5-1v-1h2v-1c1.8-1.428,2.39-2.256,5-3a8.378,8.378,0,0,1,2-4h1v-3c1.33-1,2.67-2,4-3v-2l3-1v-1c1.78-1.575,2.2-1.172,3-4h2l3-6h2v-1c0.67-.333,1.33-0.667,2-1v-2l3-1c0.33-1,.67-2,1-3h1c0.33-.667.67-1.334,1-2h2c0.33-.667.67-1.334,1-2h1v-2c2.04-2.542,3.62.089,5-5h2l3-5h2v-1c0.67-.333,1.33-0.667,2-1v-2c1.33-1,2.67-2,4-3v-2q6.495-6,13-12v-2l3-2v-2q4.995-4.5,10-9v-3l3-1,3-5h2c0.33-.667.67-1.333,1-2h1v-2c1.33-.667,2.67-1.334,4-2,0.33-1,.67-2,1-3l3-1c0.33-.667.67-1.333,1-2h1v-2c1.67-1,3.33-2,5-3v-2c1.67-1,3.33-2,5-3v-2c1.33-1,2.67-2,4-3v-2l3-2q3.495-4,7-8l3-2v-2h1a12.87,12.87,0,0,0,3-6h2c1.21-2.128,2.25-2.177,3-5h2c2.25-3.833,5.84-4.851,7-10h2l3-5h2v-1c0.67-.333,1.33-0.667,2-1,0.33-1,.67-2,1-3,2.64-2.125,3.92-1.072,5-5,2.93-.684,3.27-1.113,4-4h2a58.54,58.54,0,0,1,4-6h2v-1c0.67-.333,1.33-0.667,2-1v-2c1.33-1,2.67-2,4-3v-2c0.67-.333,1.33-0.667,2-1,1.67-2,3.33-4,5-6,3.78-3.779,8.6-6.878,10-13h2c1.21-2.128,2.25-2.177,3-5l4-1v-1h309a10.582,10.582,0,0,1,1,4q-4.005,2.5-8,5c-0.33,1-.67,2-1,3h-2v1c-0.67.333-1.33,0.667-2,1-0.33,1-.67,2-1,3h-2l-3,5h-2v1c-0.67.333-1.33,0.667-2,1v2l-3,1-3,5h-2v1c-0.67.333-1.33,0.667-2,1v2q-16.5,17-33,34-6.495,6-13,12v2l-3,2v2h-1c-1.91,2.28-4.11,3.725-5,7h-2c-1.21,2.128-2.25,2.177-3,5h-2c-1.21,2.128-2.25,2.177-3,5h-2c-1.21,2.128-2.25,2.177-3,5h-2l-3,5h-2v1c-0.67.333-1.33,0.667-2,1-0.33,1-.67,2-1,3-2.64,2.124-3.92,1.071-5,5h-2c-2.25,3.833-5.84,4.851-7,10h-2l-3,5h-2v1c-0.67.333-1.33,0.667-2,1v2c-0.67.333-1.33,0.667-2,1v1h-2l-3,5h-2c-0.33,1-.67,2-1,3l-3,1c-0.33.667-.67,1.333-1,2h-1v2c-1.67,1-3.33,2-5,3v2l-3,1c-0.33.667-.67,1.333-1,2h-1v2l-3,1v1c-1.78,1.569-2.22,1.167-3,4h-2l-3,5h-2v1c-0.67.333-1.33,0.667-2,1-0.33,1-.67,2-1,3l-3,1c-0.67,1.333-1.33,2.667-2,4h-2v1c-0.67.333-1.33,0.667-2,1v2l-3,1-3,5h-2v1c-0.67.333-1.33,0.667-2,1-0.33,1-.67,2-1,3h-2l-3,5h-2v1c-0.67.333-1.33,0.667-2,1v2l-3,1v1c-0.67.333-1.33,0.667-2,1v2c-2.06,2.559-3.57-.1-5,5h-2c-4.51,7.921-11.76,13.755-18,20q-10.005,10.5-20,21c-5.11,5.11-13.16,9.885-15,18h-2c-1.21,2.128-2.25,2.177-3,5h-2c-2.26,3.838-6.72,5.261-8,10h-2l-3,5c-2.63,2.134-3.92,1.066-5,5h-2c-1.21,2.128-2.25,2.177-3,5h-2l-9,10c-0.67.333-1.33,0.667-2,1-0.92,1.345-.7,3.932-2,5h-2v1c-0.67.333-1.33,0.667-2,1v2c-2.06,2.559-3.57-.1-5,5h-2c-2.78,5.022-7.07,7.306-11,11l-3,5h-2v1c-0.67.333-1.33,0.667-2,1v2l-3,1c-0.67,1.333-1.33,2.667-2,4h-2c-0.33.667-.67,1.333-1,2h-1c-0.33,1-.67,2-1,3h-2v1c-0.67.33-1.33,0.67-2,1v2c-1,.33-2,0.67-3,1-1.67,2.33-3.33,4.67-5,7h-1v7c3.39,2.35,2.11,4.47,4,8h1v2c0.67,0.33,1.33.67,2,1,0.33,1.33.67,2.67,1,4h1c0.33,1.67.67,3.33,1,5,0.67,0.33,1.33.67,2,1v2h1v2h1c0.33,3.33.67,6.67,1,10,0.67,0.33,1.33.67,2,1l3,9c0.67,0.33,1.33.67,2,1v2h1v2h1v3h1v2c0.67,0.33,1.33.67,2,1,1.53,2.53,2.76,10.15,3,14,1,0.33,2,.67,3,1v1h2v1h37c6.52,0,15.29-.99,19,2,1.55,1.25.11,2.91,1,5h1c0.67,2,1.33,4,2,6h1c0.33,2,.67,4,1,6h1v2h1v5h1v2c0.67,0.33,1.33.67,2,1v2h1v2h1v3c0.67,0.33,1.33.67,2,1v2h1v2h1v3h1v2c0.67,0.33,1.33.67,2,1,0.33,1.67.67,3.33,1,5h1c0.33,1.33.67,2.67,1,4h1c0.33,2,.67,4,1,6h1c0.33,1.33.67,2.67,1,4h1v5c0.67,0.33,1.33.67,2,1v2h1v2h1c0.33,1.67.67,3.33,1,5,0.67,0.33,1.33.67,2,1v2h1v2h1v3h1v2c0.67,0.33,1.33.67,2,1,0.67,2,1.33,4,2,6h1c0.33,2.33.67,4.67,1,7h1c0.67,2,1.33,4,2,6h1v5c0.67,0.33,1.33.67,2,1l3,9c0.67,0.33,1.33.67,2,1v2h1v2h1v3h1v2c0.67,0.33,1.33.67,2,1,0.33,1.33.67,2.67,1,4h1c0.67,3,1.33,6,2,9h1c0.33,1.33.67,2.67,1,4h1c0.33,2,.67,4,1,6h1c0.67,2,1.33,4,2,6h1v3c0.67,0.33,1.33.67,2,1l3,9c0.67,0.33,1.33.67,2,1v2h1c0.33,1.33.67,2.67,1,4h1c0.67,3,1.33,6,2,9h1c0.33,1.33.67,2.67,1,4h1c0.33,2,.67,4,1,6h1c0.33,1.33.67,2.67,1,4h1v2h1v3c0.67,0.33,1.33.67,2,1v2h1v2h1v3h1v2c0.67,0.33,1.33.67,2,1,0.67,2,1.33,4,2,6h1c0.67,3,1.33,6,2,9,0.67,0.33,1.33.67,2,1v3h1v4h1c0.67,2,1.33,4,2,6h1v2h1v3c0.67,0.33,1.33.67,2,1v2h1v2h1v3h1v2c0.67,0.33,1.33.67,2,1v2h1c0.33,1.33.67,2.67,1,4h1v3h1v3h1c0.33,1.33.67,2.67,1,4h1c0.33,2.67.67,5.33,1,8,0.67,0.33,1.33.67,2,1l3,9c0.67,0.33,1.33.67,2,1v2h1v2h1v3c0.67,0.33,1.33.67,2,1v2h1c0.33,1.33.67,2.67,1,4h1v3h1v2h1v3h1v2h1c0.33,1.67.67,3.33,1,5h1v5c0.67,0.33,1.33.67,2,1v2h1v2h1v3h1c1.82,2.46,2.4,2.1,3,6-6.37,3.26-19.49,2-29,2H3453v-1h-3v-1h-1c-0.65-1.99-.12-6.66-1-9h-1c-0.67-2-1.33-4-2-6h-1c-0.67-2-1.33-4-2-6-0.67-.33-1.33-0.67-2-1v-3h-1c-0.33-1.33-.67-2.67-1-4h-1v-4h-1c-0.67-2-1.33-4-2-6h-1v-5h-1c-0.67-2-1.33-4-2-6h-1c-0.33-1.33-.67-2.67-1-4-0.67-.33-1.33-0.67-2-1v-3h-1v-2h-1c-0.33-3-.67-6-1-9h-1c-0.67-2-1.33-4-2-6h-1c-0.33-1.33-.67-2.67-1-4-0.67-.33-1.33-0.67-2-1v-3c-0.67-.33-1.33-0.67-2-1-0.67-3-1.33-6-2-9h-1c-0.67-2-1.33-4-2-6h-1v-5h-1c-0.67-2-1.33-4-2-6h-1c-0.33-1.33-.67-2.67-1-4-0.67-.33-1.33-0.67-2-1v-3h-1v-2h-1c-0.33-3-.67-6-1-9-0.67-.33-1.33-0.67-2-1-0.33-1.67-.67-3.33-1-5h-1v-2h-1v-2c-0.67-.33-1.33-0.67-2-1-0.33-1.33-.67-2.67-1-4h-1v-3h-1v-2h-1v-4h-1c-0.33-1.33-.67-2.67-1-4h-1v-3h-1v-4c-0.67-.33-1.33-0.67-2-1v-3h-1v-2h-1v-2c-0.67-.33-1.33-0.67-2-1v-2h-1v-3h-1v-3h-1v-6h-1v-2c-0.67-.33-1.33-0.67-2-1v-2h-1c-0.33-1.67-.67-3.33-1-5-0.67-.33-1.33-0.67-2-1l-3-9h-1v-2h-1v-4h-1c-0.33-1.33-.67-2.67-1-4h-1v-4h-1c-0.33-1.33-.67-2.67-1-4h-1v-3h-1v-2h-1v-2h-1c-1.33-1.67-2.67-3.33-4-5h-3c-1,2.67-2,5.33-3,8h-1v2h-1q-1.005,6-2,12a1.587,1.587,0,0,1,1,2h-1v2c-0.67.33-1.33,0.67-2,1v8h-1c-0.33,1.33-.67,2.67-1,4h-1v9h-1v2h-1v5h-1v5h-1v9h-1c-0.67,2-1.33,4-2,6h-1q-0.495,7.005-1,14c-0.67.33-1.33,0.67-2,1v2h-1v8h-1c-0.33,1.33-.67,2.67-1,4h-1c-0.79,2.3,1.04,2.69,1,4h-1v5h-1v3h-1c-0.33,2.67-.67,5.33-1,8h-1v9h-1c-0.33,1.33-.67,2.67-1,4h-1v4h-1v4h-1v8h-1c-0.33,1.33-.67,2.67-1,4h-1v7h-1v2h-1v9h-1v2h-1c-0.33,3-.67,6-1,9h-1v3h-1v9h-1c-0.33,1.33-.67,2.67-1,4h-1v7h-1v2h-1v8h-1v3h-1v5h-1c-0.33,1.33-.67,2.67-1,4h-1v4h1c-0.33.67-.67,1.33-1,2-6.78,2.71-18.31,2-28,2H3019c-0.33-1.67-.67-3.33-1-5,0.67-.33,1.33-0.67,2-1v-7h1v-3h1v-5h1v-4h1v-4h1v-3h1c0.33-3,.67-6,1-9h1v-4h1v-3h1v-9h1c0.33-1.33.67-2.67,1-4h1v-7h1v-2h1v-8h1v-3h1c0.33-3,.67-6,1-9h1v-4h1v-4h1v-3h1c0.33-3,.67-6,1-9h1v-3h1v-8h1v-2h1v-7h1v-3h1v-2h1v-8h1v-2h1c0.33-3.33.67-6.67,1-10h1v-4h1v-3h1v-3h1q1.005-7.005,2-14h1c0.66-2.21-1.11-4.52-1-5h1c0.33-1.33.67-2.67,1-4h1v-7h1v-2h1v-3h1v-8h1q1.005-5.505,2-11h1v-4h1v-8h1c0.33-1.33.67-2.67,1-4h1v-5h1c0.33-2,.67-4,1-6a1.644,1.644,0,0,1-1-2h1v-3c0.67-.33,1.33-0.67,2-1v-8h1c0.33-1.33.67-2.67,1-4h1c0.83-2.37-1.15-3.89-1-5h1v-4h1v-2h1v-5h1v-4h1v-10h1c0.67-2,1.33-4,2-6h1q0.495-6.495,1-13h1c0.33-1.33.67-2.67,1-4h1v-8h1v-2h1c0.33-1.67.67-3.33,1-5h-1l3-9c0.33-2.67.67-5.33,1-8h1c0.33-1,.67-2,1-3h-1c-1.54-5.68-6.34-4-13-4h-36v-1h-4v-1h-1v-4c0.67-.33,1.33-0.67,2-1v-5h1v-4h1v-4h1v-8h1c0.33-1.33.67-2.67,1-4h1v-4h1v-4h1v-10h1v-2h1v-4h1v-3h1v-2h1v-9h1v-2h1v-5h1v-4h1v-4h1v-7h1v-2h1v-7h1v-2h1v-3h1v-8h1v-3h1v-5h1v-4h1q1.005-5.5,2-11h1c0.33-3,.67-6,1-9h1v-9h1c0.33-1.333.67-2.667,1-4h1v-7h1v-2h1v-3h1c0.71-2.342-1.01-2.649-1-4h1v-4h1v-3h1v-5h1v-4h1v-9h1c0.33-1.333.67-2.667,1-4h1c0.33-2.333.67-4.667,1-7h1v-4h1c0.4-1.763-.91-1.65-1-2q1.005-5.5,2-11h1v-3h1c0.33-1.333.67-2.667,1-4h1c-0.33-1.667-.67-3.334-1-5h1v-4h1v-3h1c0.33-3,.67-6,1-9h1v-9c0.67-.333,1.33-0.667,2-1v-2h1v-7h1v-3h1v-8h1c0.33-2.333.67-4.667,1-7h1v-4h1q1.005-5.5,2-11h1c0.33-3.333.67-6.667,1-10h1v-2h1v-9h1c0.33-1.333.67-2.667,1-4h1v-7h1v-2h1v-9h1v-2h1v-4h1v-5h1v-3h1v-9h1c0.33-1.333.67-2.667,1-4h1v-4h1v-3h1v-9h1c0.33-1.333.67-2.667,1-4h1c-0.33-1.667-.67-3.334-1-5h1c0.33-1.333.67-2.667,1-4h1v-8h1v-3h1v-4h1v-5h1v-4h1v-7h1c0.33-1.333.67-2.667,1-4h1c-0.33-1.667-.67-3.334-1-5h1v-3h1v-2h1c0.47-1.722-.93-1.722-1-2-0.53-2.228.56-2.737,1-4,19.11-1.75,42.25-1,63-1h171C3395.39,631,3410.25,630.08,3421,632Zm-714,76c0.7,2.616,1.58,3.219,3,5h1c0.67,2,1.33,4,2,6,1.33,1,2.67,2,4,3,0.33,1.333.67,2.667,1,4l3,2v2h1v2h1v3h1v2c0.67,0.333,1.33.667,2,1,0.33,1.333.67,2.667,1,4h1c0.33,3.333.67,6.667,1,10,0.67,0.333,1.33.667,2,1v3c0.67,0.333,1.33.667,2,1q0.495,10,1,20h1v3h1v31h-1c-0.33,1.333-.67,2.667-1,4h-1v7h-1v2h-1v3h-1c-0.1,1.2,1.74,2.567,1,5h-1v3h-1c-0.33,2.666-.67,5.334-1,8h-1v2l-3,2v3h-1c-0.33,1.333-.67,2.667-1,4h-1v7h-1c-0.67,2-1.33,4-2,6h-1v3c-0.67.333-1.33,0.667-2,1v2h-1c-0.33,1.666-.67,3.333-1,5q-3.495,3-7,6v6c-1.33,1-2.67,2-4,3a35.337,35.337,0,0,0-5,12h-2c-1.21,2.128-2.25,2.177-3,5h-2c-0.72,3.379-2.2,4.791-4,7h-1v2c-0.67.333-1.33,0.667-2,1v3h-1c-1.64,2.155-3.15,2.981-4,6h-2a59.425,59.425,0,0,1-4,6c-2.63,2.129-3.92,1.068-5,5h-2c-0.84,3.91-4.57,8.468-7,11l-3,2v2h1c1.72,2.616,2.82,2.091,7,2,2.19,1.909,9.11,1,13,1h35c45.82,0,96.46-.289,139,0a12.638,12.638,0,0,1,1,5c-2.4,2.279-.83,2.008-2,5h-1v4h-1v5h-1v3h-1v5h-1v1h1c-0.33,2.333-.67,4.667-1,7-2.51,7.44-4.62,16.6-7,24-0.33,3.33-.67,6.67-1,10h-1v2c-0.67.33-1.33,0.67-2,1v2h-1v8h-1v2h-1v7h-1v2h-1v2c-0.67.33-1.33,0.67-2,1-0.33,3.33-.67,6.67-1,10-0.67.33-1.33,0.67-2,1-0.33,2.33-.67,4.67-1,7,1,0.33,2,.67,3,1,2.05,1.81,8.3,1,12,1h31v1h1c0.33,2.33.67,4.67,1,7h-1c-0.33,1.67-.67,3.33-1,5-0.67.33-1.33,0.67-2,1v3h-1v2c-0.67.33-1.33,0.67-2,1-0.33,1.67-.67,3.33-1,5h-1c-0.33,3-.67,6-1,9-0.67.33-1.33,0.67-2,1v3c-0.67.33-1.33,0.67-2,1v2h-1v7c-1.67,1.33-3.33,2.67-5,4v6c-1.67,1.33-3.33,2.67-5,4v2h-1c0.33,1.33.67,2.67,1,4h-1v3c-0.67.33-1.33,0.67-2,1-0.33,1.67-.67,3.33-1,5-0.67.33-1.33,0.67-2,1l-3,9c-0.67.33-1.33,0.67-2,1a35.524,35.524,0,0,0-6,9h-1c-0.33,1.67-.67,3.33-1,5q-3.495,3-7,6c-0.33,1.67-.67,3.33-1,5h-1v2h-1v2c-0.67.33-1.33,0.67-2,1v3c-0.67.33-1.33,0.67-2,1-2.14,3.42-.16,4.7-5,6-0.33,1.33-.67,2.67-1,4-1.33,1-2.67,2-4,3q-5.505,6-11,12c-1,.67-2,1.33-3,2v2c-0.67.33-1.33,0.67-2,1-0.33,1.67-.67,3.33-1,5-1,.33-2,0.67-3,1v1c-2.7,2.4-2.62,1-3,6a10.8,10.8,0,0,1,5,7h2a12.662,12.662,0,0,0,3,6h1c0.67,2,1.33,4,2,6,1,0.67,2,1.33,3,2v2c0.67,0.33,1.33.67,2,1v2c1,0.67,2,1.33,3,2,0.67,2,1.33,4,2,6,1.33,1,2.67,2,4,3,0.33,1.33.67,2.67,1,4,1.33,1,2.67,2,4,3v2c1,0.67,2,1.33,3,2v2c1.33,1,2.67,2,4,3,0.33,1,.67,2,1,3,0.67,0.33,1.33.67,2,1,0.33,1.33.67,2.67,1,4,1,0.67,2,1.33,3,2v3c0.67,0.33,1.33.67,2,1v2c1.33,1,2.67,2,4,3,0.33,1.33.67,2.67,1,4,1,0.67,2,1.33,3,2v3c0.67,0.33,1.33.67,2,1v2c1.33,1,2.67,2,4,3v2h1c1.73,2.7-.97,1.85,3,3a12.44,12.44,0,0,0,3,6h1v2c1,0.67,2,1.33,3,2v2c1.33,1,2.67,2,4,3,0.33,1.33.67,2.67,1,4,1,0.67,2,1.33,3,2v3c0.67,0.33,1.33.67,2,1v2c1.33,1,2.67,2,4,3,0.33,1.33.67,2.67,1,4,1,0.67,2,1.33,3,2v3c0.67,0.33,1.33.67,2,1v2c1.33,1,2.67,2,4,3v3c1.33,0.67,2.67,1.33,4,2,0.33,1.33.67,2.67,1,4,1,0.67,2,1.33,3,2v2c1,0.67,2,1.33,3,2v2c1,0.67,2,1.33,3,2v2c0.67,0.33,1.33.67,2,1v1c0.67,0.33,1.33.67,2,1,0.33,1.67.67,3.33,1,5,0.67,0.33,1.33.67,2,1v2c1.33,1,2.67,2,4,3v2h1v2c0.67,0.33,1.33.67,2,1,0.67,2,1.33,4,2,6,0.67,0.33,1.33.67,2,1a12.182,12.182,0,0,1,3,6h2v1c0.67,0.33,1.33.67,2,1v2c1.67,1.33,3.33,2.67,5,4v4c-11.06,1.97-26.29,1-39,1h-69c-65.25,0-133.45,2.04-197-1-1-1.33-2-2.67-3-4-1-.33-2-0.67-3-1v-2c-0.67-.33-1.33-0.67-2-1v-2c-1.67-1.33-3.33-2.67-5-4-1-1.33-2-2.67-3-4h-1v-2c-1.33-1-2.67-2-4-3v-2c-1-.67-2-1.33-3-2v-2c-0.67-.33-1.33-0.67-2-1v-2c-0.67-.33-1.33-0.67-2-1v-2c-0.67-.33-1.33-0.67-2-1v-1h-2c-0.33-.67-0.67-1.33-1-2h-4v1h-3c-0.33.67-.67,1.33-1,2h-2v1h-2c-0.33.67-.67,1.33-1,2h-2v1h-3c-0.33.67-.67,1.33-1,2h-3v1h-2c-0.33.67-.67,1.33-1,2h-3c-0.33.67-.67,1.33-1,2h-3v1c-1.33.33-2.67,0.67-4,1v1h-2c-0.33.67-.67,1.33-1,2h-3c-0.33.67-.67,1.33-1,2h-2v1h-3v1h-2v1h-5v1h-3v1h-2v1c-1.67.33-3.33,0.67-5,1v1h-3v1h-5v1c-1.33.33-2.67,0.67-4,1v1h-3v1h-3v1h-5v1c-1.33.33-2.67,0.67-4,1v1c-2.67.33-5.33,0.67-8,1v1c-2,.33-4,0.67-6,1v1h-2v1q-6.495.495-13,1c-4.47,1.4-10.46,3.58-15,5h-6v1h-7v1h-3v1h-6v1h-8v1h-12v1h-12v1h-6v1h-7v1h-33c-9.43,0-17.99.02-25-2h-11v-1h-7v-1h-11v-1h-6v-1h-5v-1h-6v-1c-2.67-.33-5.33-0.67-8-1v-1h-3v-1h-3v-1h-6v-1c-2.67-.33-5.33-0.67-8-1v-1h-3v-1h-3v-1c-2.33-.33-4.67-0.67-7-1v-1h-2v-1h-3c-0.33-.67-0.67-1.33-1-2-2-.67-4-1.33-6-2v-1c-3-.67-6-1.33-9-2-0.67-1-1.33-2-2-3h-2c-0.33-.67-0.67-1.33-1-2h-2v-1h-2v-1h-2v-1h-3c-0.33-.67-0.67-1.33-1-2h-2v-1h-2v-1h-2v-1c-3.64-1.74-3.59,1.21-5-4a8.051,8.051,0,0,1-4-2v-1l-9-3v-1c-0.67-.33-1.33-0.67-2-1v-2c-1-.33-2-0.67-3-1-1-1.67-2-3.33-3-5h-2c-0.67-1.33-1.33-2.67-2-4h-2v-1c-0.67-.33-1.33-0.67-2-1v-2c-0.67-.33-1.33-0.67-2-1v-1c-1-.33-2-0.67-3-1v-2c-0.67-.33-1.33-0.67-2-1v-1h-2l-3-6h-2c-0.77-3.04-2.39-3.85-4-6h-1c-0.33-1.67-.67-3.33-1-5-1.67-1.33-3.33-2.67-5-4-0.33-1.33-.67-2.67-1-4-1-.67-2-1.33-3-2v-3h-1v-2h-1v-2h-1v-2h-1v-2h-1v-2h-1v-2h-1v-2h-1v-2h-1v-2h-1v-2h-1c-0.33-1.33-.67-2.67-1-4-0.67-.33-1.33-0.67-2-1v-2h-1c-1.57-3.86.91-5,0-8h-1v-3c-1-.67-2-1.33-3-2-0.33-1.67-.67-3.33-1-5h-1c0.33-1.67.67-3.33,1-5h-1c-0.33-3-.67-6-1-9h-1v-9h-1v-2h-1v-26q0.495-16.5,1-33h1v-2h1v-3h1c0.7-2.36-.6-2.38-1-3v-1h1v-5h1v-5h1v-2h1v-4h1v-4h1v-2h1c0.33-3.33.67-6.67,1-10h1v-2c0.67-.33,1.33-0.67,2-1,0.33-1.67.67-3.33,1-5h1v-2h1c0.33-2,.67-4,1-6h1v-2h1v-4h1v-2h1v-3c0.67-.33,1.33-0.67,2-1,0.33-1.67.67-3.33,1-5,0.67-.33,1.33-0.67,2-1v-2h1v-2h1v-3h1v-2c0.67-.33,1.33-0.67,2-1l3-9h2c0.67-1,1.33-2,2-3h1v-2h1v-4c0.67-.33,1.33-0.67,2-1v-2c1-.67,2-1.33,3-2l3-9q3.495-3,7-6v-2c1-.67,2-1.33,3-2v-2c0.67-.33,1.33-0.67,2-1v-2c1-.67,2-1.33,3-2v-3c0.67-.33,1.33-0.67,2-1,1.67-2,3.33-4,5-6h2c1.42-1.17,2.69-5.44,3-8-1-.33-2-0.67-3-1-1.93-1.71-7.47-1-11-1h-30c-0.33-1-.67-2-1-3,2.33-1.45,2.91-4.44,5-6h2v-1c0.67-.33,1.33-0.67,2-1v-2h2c1-1.67,2-3.33,3-5h2v-1c0.67-.33,1.33-0.67,2-1,0.33-1,.67-2,1-3h2c1.33-1.67,2.67-3.33,4-5,1.33-.33,2.67-0.67,4-1q4.995-5.505,10-11h2c1-1.33,2-2.67,3-4h2c1-1.33,2-2.67,3-4h2c1.33-1.67,2.67-3.33,4-5,2-.67,4-1.33,6-2,0.33-.67.67-1.33,1-2a12.057,12.057,0,0,1,6-3v-2c1.67-.33,3.33-0.67,5-1,0.67-1,1.33-2,2-3h2c0.67-1,1.33-2,2-3,1-.33,2-0.67,3-1v-5l-6-4v-2l-3-2v-2h-1c-1.74-2.734.96-1.813-3-3-0.79-3.529-2.56-4.51-4-7v-2c-0.67-.333-1.33-0.667-2-1-0.33-1.333-.67-2.667-1-4l-3-2-3-9c-0.67-.333-1.33-0.667-2-1v-3c-0.67-.333-1.33-0.667-2-1-0.33-1.667-.67-3.334-1-5-0.67-.333-1.33-0.667-2-1v-2h-1q-1.005-6-2-12c-0.67-.333-1.33-0.667-2-1v-2h-1v-8h-1v-2h-1c-0.33-3.666-.67-7.334-1-11h-1v-2h-1V893h-1q0.495-17.5,1-35h1v-9h1v-3h1v-4h1c0.33-3.333.67-6.667,1-10h1v-2h1v-2h1c0.67-2,1.33-4,2-6h1v-7h1c0.33-1.333.67-2.667,1-4h1v-2h1v-2h1v-2h1v-2h1v-2h1c0.33-1.333.67-2.667,1-4h1v-2c0.67-.333,1.33-0.667,2-1,0.64-1.21,1.71-6.562,2-8h2c0.67-1,1.33-2,2-3h1v-2c0.67-.333,1.33-0.667,2-1v-2h1v-2h1v-3q3.495-3,7-6v-2h1v-2h1v-2h1v-2l3-2v-1c0.67-.333,1.33-0.667,2-1v-2h1c1.92-2.288,4.08-3.725,5-7h2c2.96-5.032,10.42-8.174,12-14h2c1.21-2.128,2.25-2.177,3-5h2c2.89-4.76,7.46-7.787,12-11,0.67-1,1.33-2,2-3l4-1c1.67-2,3.33-4,5-6h2c0.33-.667.67-1.333,1-2h1c0.33-.667.67-1.334,1-2l4-1c0.67-1,1.33-2,2-3l4-1v-1h2v-1h2c0.33-.667.67-1.333,1-2l4-1c0.33-.667.67-1.333,1-2l4-1c0.33-.667.67-1.334,1-2l4-1c0.67-1,1.33-2,2-3l9-3c0.33-.667.67-1.334,1-2l6-2v-1h2v-1l6-2v-1l9-1v-1l6-2v-1h3c0.33-.667.67-1.333,1-2h2v-1l12-2c0.33-.667.67-1.333,1-2h2v-1l4-1v-1l13-1v-1h3v-1l4-1v-1l9-1v-1h4v-1h5v-1h6v-1h6v-1h4v-1h4v-1h5v-1h11c1.39-.237-0.35-0.592,1-1h5v-1h19v-1h6v-1h17v-1h16v1h32v1h6v1h9v1h9v1l11,1v1h5v1h5v1h5v1h3v1h5v1h5v1l7,1v1h3v1h4v1h3v1h2v1l9,2v1l4,1v1c3.33,0.666,6.67,1.333,10,2l3,4h2c0.33,0.667.67,1.333,1,2,1.67,0.333,3.33.667,5,1,0.33,0.667.67,1.333,1,2h3c0.33,0.667.67,1.333,1,2h2v1h2v1c1.67,0.333,3.33.667,5,1l3,5h2c0.33,0.667.67,1.333,1,2l4,1c0.33,0.667.67,1.333,1,2l4,1,3,4,3,1c0.33,1,.67,2,1,3h2v1c0.67,0.333,1.33.667,2,1v2c1.33,0.666,2.67,1.333,4,2C2704.44,705.248,2701.88,706.519,2707,708ZM813,723v2l10,6h3l3,5h2q0.5,1,1,2h2v1h2v1h2v1h3l3,5h2q0.5,1,1,2h2v1h2v1h2v1h3v1l2,1v2l3,1,2,3h2l3,4h2v1l3,1q0.5,1,1,2h2l3,4,3,1v2h1q0.5,1,1,2l3,1v2h1q0.5,1,1,2h2l2,3h2l9,10,22,21,5,6,2,1v2l3,2v2l5,3v2l2,1v1h2l3,6h2v2l5,4v3l7,6v2l4,3q0.5,2,1,4l3,2v3l2,1v2l3,2v2l2,1q0.5,1.5,1,3h1q0.5,2,1,4l7,6v4l2,1q0.5,2,1,4l2,1v2l3,2q0.5,2.5,1,5l3,2q0.5,1.5,1,3h1v2h1v2h1v2h1v2h1v2c0.67,0.333,1.33.667,2,1v2l3,2c0.33,2.666.67,5.333,1,8h1v2c0.67,0.333,1.33.667,2,1v2h1v2h1v2h1v2h1l3,9,3,2v3h1v2h1v3c0.67,0.333,1.33.667,2,1,0.33,1.333.67,2.667,1,4h1c0.33,1.333.67,2.667,1,4h1v7h1v2h1v2h1v2h1v3c0.67,0.333,1.33.667,2,1v2h1c0.33,1.333.67,2.667,1,4h1v6h1v3h1c0.67,2,1.33,4,2,6h1v7h1v2c0.67,0.33,1.33.67,2,1v3h1q0.495,7.005,1,14h1v2c0.67,0.33,1.33.67,2,1v3h1v7h1v2h1v9h1v2h1v3h1v10h1v4h1v10h1v3h1v4h1v14h1v19h1c1.37,4.92.02,25.4-1,29v24h-1v14h-1v4h-1v9h-1v3h-1v11h-1v3h-1v5h-1c0.33,1.33.67,2.67,1,4h-1v4h-1c-0.33,2.33-.67,4.67-1,7h-1v2h-1c-0.33,3.33-.67,6.67-1,10-0.67.33-1.33,0.67-2,1v2h-1v2h-1v7h-1v3c-0.67.33-1.33,0.67-2,1v2h-1v2h-1v7h-1c-0.67,2-1.33,4-2,6h-1v3c-1,.67-2,1.33-3,2v3h-1v2h-1v3c-1,.67-2,1.33-3,2v3h-1v2h-1v3c-0.67.33-1.33,0.67-2,1v2l-9,15h-2v-3h-1v-6h1c0.28-1.7-.93-1.71-1-2v-6h-1v-32q-1-19.5-2-39h-1v-4h-1c-0.66-2.39.55-2.32,1-3-0.06-1.41-.71.38-1-1v-5h-1q-1-13.005-2-26h-1c-0.33-1.33-.67-2.67-1-4h-1q-0.5-7.005-1-14h-1c-0.67-2-1.33-4-2-6h-1v-8h-1v-2c-0.667-.33-1.333-0.67-2-1v-2h-1q-1-3-2-6h-1v-8h-1v-9h-1v-5s-1.3.14-1-2h1v-17h-1v-4h-1v-9h-1v-9h-1v-3h-1v-9h-1v-5h-1v-5c-0.667-.33-1.334-0.67-2-1v-2h-1v-2h-1c-0.756-2.29.605-2.41,1-3q-1-6-2-12c-0.667-.33-1.334-0.67-2-1v-2h-1v-2h-1q-0.5-4.5-1-9h-1q-1-3-2-6h-1q-0.5-4.5-1-9h-1q-1-3-2-6h-1v-3c-1-.67-2-1.33-3-2q-1.5-6.5-3-13c-1-.67-2-1.33-3-2-0.333-1.67-.667-3.33-1-5h-1v-2h-1v-2l-2-1q-0.5-2-1-4h-1q-0.5-2.5-1-5l-2-1-3-9-2-1v-2l-4-3v-3h-1v-2h-1v-2l-4-3q-0.5-1.5-1-3l-2-1q-1-3-2-6l-2-1v-2l-3-2v-2l-4-3v-3h-1q-0.5-2-1-4l-4-2v-2l-3-2c-2.415-2.534-6.105-8.05-7-12h-2l-2-3-11-10v-2l-2-1c-2.266-3.321-2.486-5.765-7-7v-2a59.6,59.6,0,0,1-6-4v-2h-1q-0.5-1-1-2h-2l-3-4h-2l-10-11-4-1v-1a13.1,13.1,0,0,0-6-3v-2l-7-6q-0.5-1-1-2h-2q-0.5-1-1-2l-9-3v-2l-3-2v-1h-2l-2-3h-2q-0.5-1-1-2h-3l-3-4h-2v-1h-2q-0.5-1-1-2h-3v-1h-2v-1h-2l-5-6h-2q-0.5-1-1-2h-3v-1h-2v-1h-2v-1l-4-1v-1l-4-1v-1h-2v-1h-2v-1h-2v-1h-2v-1l-6-2q-0.5-1-1-2l-18-5v-1l-4-1v-1h-2q-0.5-1-1-2l-5-1v-1l-7-1v-1l-6-1v-1h-2v-1h-3v-1l-8-1v-1l-10-1v-1h-2v-1h-4v-1h-3v-1h-4v-1h-4v-1h-5v-1l-14-1c-4.7-1.36-11.445-2.652-16-4H621v-1H603v-1l-31,1c-10.467,0-19.2.7-27,3h-8v1h-7v1h-7v1h-3v1l-20,3v1l-4,1v1l-9,1v1h-4v1l-7,1v1h-3v1h-3v1h-4v1h-3v1h-2v1l-5,1-1,2-4,1v1l-9,1v1l-6,2v1h-2v1h-3l-1,2h-3l-1,2h-3l-1,2h-2v1h-3l-1,2h-3l-1,2-9,3-1,2h-2v1h-2v1h-2l-1,2h-2l-2,3-4,1-2,3-4,1-1,2h-2l-2,3h-3v1l-3,1-1,2h-2l-1,2h-2l-2,3-3,1v1c-2.214,1.836-3.631,3.214-7,4v2c-3.507.778-7.678,3.861-10,6l-1,2-3,1v2h-1l-1,2h-2l-3,4h-2l-3,5h-2l-3,5-4,1-2,3h-2l-1,2-5,4v2l-4,3-1,4-3,1c-2.571,2.127.091,3.554-5,5-0.37,1.8-.835,4.016-2,5l-3,1v2h-1l-2,3h-2c-2.525,2.013.081,3.663-5,5a7.922,7.922,0,0,1-2,4h-1v2h-1v2h-1v3h-1v2l-4,2v2l-5,3v2l-3,2-1,4h-1q-0.5,2.5-1,5l-5,3-3,9-2,1a34.642,34.642,0,0,0-5,12h-2l-2,3h-1v2h-1a2.717,2.717,0,0,0,1,3l-1,3h-2c-0.6,1.206-1.714,1.522-2,2v2h-1c-0.8,2.09,1.387,3.1,1,4-1.667,1.33-3.334,2.67-5,4v2h-1v7c-0.667.33-1.333,0.67-2,1-0.667,2.33-1.334,4.67-2,7-0.667.33-1.333,0.67-2,1v2h-1c-0.334,1.33-.667,2.67-1,4h-1l-1,10c-0.667.33-1.333,0.67-2,1v2h-1c-0.333,1.33-.667,2.67-1,4h-1q-0.5,4.5-1,9h-1l-2,6h-1c0.333,1.67.667,3.33,1,5h-1v2h-1v2h-1l-3,15h-1v2h-1v12h-1v3h-1v10h-1v3h-1v2h-1v25h-1q-0.5,12-1,24h-1v2c-0.667.33-1.334,0.67-2,1-0.333,1.67-.667,3.33-1,5-1,.67-2,1.33-3,2v3h-1v7h-1v2h-1v7h-1c-0.333,1.33-.667,2.67-1,4h-1v10h-1v3h-1v9h-1v3h-1v3h-1q-0.5,12.495-1,25h-1v14h-1v3h-1q0.5,4.5,1,9c-4.233,16.07-.879,39.81-4,57h-2q-4-6.495-8-13v-3c-0.667-.33-1.333-0.67-2-1l-3-9c-0.667-.33-1.334-0.67-2-1v-2h-1v-2h-1c-0.333-1.67-.667-3.33-1-5-0.667-.33-1.333-0.67-2-1v-2h-1v-2h-1l-1-10c-0.667-.33-1.334-0.67-2-1v-2h-1v-2h-1q-0.5-4.5-1-9h-1q-1-3-2-6h-1q-0.5-4.5-1-9h-1c-0.333-1.33-.667-2.67-1-4h-1v-3h-1c-0.178-1.27,1.621-1.67,1-4h-1v-5h-1v-5h-1c0.333-1.33.666-2.67,1-4h-1q-1-3-2-6h-1c0.333-1.67.667-3.33,1-5h-1v-5h-1v-4h-1c-1.139-3.89,1.623-4.68,0-9h-1v-2h-1v-22q-1-5.505-2-11h1c1.595-5.75-1-12.48-2-16-1.044-3.67,1.352-6.9,2-9v-16h-1c-0.707-2.7,1.5-7.33,2-9v-14h1v-9h1v-2h1v-5h1a1.682,1.682,0,0,0-1-2c0.333-2.67.667-5.33,1-8h1v-3h1v-10h1v-2h1v-5h1v-4h1v-5h1v-3h1v-3h1v-5h1v-4h1v-4h1q1-6,2-12h1v-2h1c0.333-1.33.666-2.67,1-4h1q1-6,2-12l3-2v-2h1v-2h1v-3h1v-2h1q-0.5-2.5-1-5h1l1-4,2-1v-3h1v-2l2-1v-3l2-1v-2h1q0.5-4.5,1-9h2c0.586-1.17,1.742-1.563,2-2v-2h1l-1-4,5-4v-2h1q-0.5-2.5-1-5h1l1-4,2-1v-4l3-1v-1l3-2v-2l2-1v-3h1q0.5-2,1-4l2-1v-2h1v-3h1v-2h1v-2l6-5q0.5-3,1-6l2-1v-2l4-3v-2l2-1v-2h1v-3l3-2v-2l8-7,3-9,7-6v-2l3-2v-2l2-1v-2l3-2v-2l4-3v-2l2-1,4-5c4.4-4.4,12.3-9.3,14-16h2l6-8,3-1v-2h1l1-2h2l3-5,7-4v-2h2l14-15h2l4-5,3-1v-2h2c1.374-1.627,3.448-2.544,5-4l1-2h2l4-5c3.329-2.282,4.639-.025,6-5a12.519,12.519,0,0,0,6-3v-1h2l1-2,4-1v-1l3-1q0.5-1,1-2h2l2-3h2l1-2,4-1v-1a13.338,13.338,0,0,1,6-3v-2c0.748-1.176,3.656-1.265,5-2v-1h2v-1h2v-1h2v-1h2v-1h2v-1h2v-1l4-1v-1h2v-1h2v-1h2v-1h2v-1h2v-1l4-1,1-2h2l2-3h2v-1l7-1v-1l4-1v-1h2v-1h2v-1h2v-1h2v-1h2v-1h2v-1h2v-1h2v-1h2v-1h2v-1h2v-1l8-1v-1h2v-1l5-1v-1h4v-1h4v-1h2v-1h3v-1h2v-1l9-1v-1l4-1v-1l14-2v-1h3v-1h3v-1h5v-1h6v-1h8c6.625-1.919,15.273-3.047,22-5h18v-1h6v-1h12c3.2-.885,20.5-2.291,25-1v1h22v1l22,1v1h7v1h4v1h7v1h5v1h5v1h4v1h4v1l16,2v1l10,2v1h2v1h3v1h3v1h3v1h4v1h3v1h3v1h4v1h4v1h2v1h2v1h2v1h2v1h2v1l6,2v1l10,2v1h3v1h2v1h3q0.5,1,1,2l6,2v1l4,1v1h2v1h2v1h2v1h2v1h2v1l9,3,2,3h2v1A25.372,25.372,0,0,0,813,723Zm1644,79c-1.78,1.977-1.98.837-4,2v1h-2v1c-0.67.333-1.33,0.667-2,1v3c-1.33,1-2.67,2-4,3v2c-0.67.333-1.33,0.667-2,1v4h-1v4h-1v10h-1v18h1v9h1v5h1c0.09,1.344-1.64,1.634-1,4a161.066,161.066,0,0,0,5,16,12.673,12.673,0,0,0,5,1c0.67-1,1.33-2,2-3h1v-3l3-2q1.005-6,2-12h1c0.67-2,1.33-4,2-6h1c0.33-3,.67-6,1-9h1v-3h1v-3h1v-5h1v-4h1v-4h1V820h1v-3c0.27-1.388,1.11.41,1-1h-1c-0.33-1.333-.67-2.667-1-4h-1v-7h-1c-1.14-1.139,0-.4-2-1C2464.96,801.9,2461.26,801.922,2457,802Zm96,255c1.1-4.33,3.3-3.47,5-6,1-2.67,2-5.33,3-8h2c0.62-3.47,1.65-5.17,5-6,0.83-3.42,3.68-5.14,5-8,0.33-1.67.67-3.33,1-5,1-.33,2-0.67,3-1,0.33-1,.67-2,1-3,1-.67,2-1.33,3-2l3-9c1.67-1,3.33-2,5-3v-2c1-.33,2-0.67,3-1,0.33-2.67.67-5.334,1-8-3.5.683-5.48,2.544-8,4h-2c-1.67,2-3.33,4-5,6h-2c-1,1.33-2,2.67-3,4h-2v1h-2c-0.67,1-1.33,2-2,3-1.33.33-2.67,0.67-4,1-0.33.67-.67,1.33-1,2h-2c-0.67,1-1.33,2-2,3-1.33.33-2.67,0.67-4,1-0.67,1-1.33,2-2,3h-2v1h-2v1h-3c-0.33.67-.67,1.33-1,2h-2v1c-1.33.33-2.67,0.67-4,1v1c-4.23,1.57-6.96-1.06-10,2h-1v5c4.1,2.64,1.14,1.7,3,5,0.67,0.33,1.33.67,2,1,0.67,2,1.33,4,2,6,0.67,0.33,1.33.67,2,1v2c1,0.67,2,1.33,3,2v2c1.33,1,2.67,2,4,3v1h5A8.264,8.264,0,0,1,2553,1057ZM483,1112h2c0.667,2.33,1.333,4.67,2,7h1v5h1v3h1v4h1v4h1v426h-1v3h-1v11h-1v2c-0.667.33-1.334,0.67-2,1-0.333,1.33-.667,2.67-1,4-1,.67-2,1.33-3,2v3h-1v2h-1v3c-1,.33-2,0.67-3,1l-1,3h-1c-1.619,1.77-2.074,2.36-5,3v2l-9,3c-0.333.67-.667,1.33-1,2h-2v1h-3v1h-2v1c-2.333.33-4.667,0.67-7,1-0.334.67-.667,1.33-1,2-0.667.33-1.334,0.67-2,1v5h-1c0.129,1.37,1.66,1.67,1,4h-1v4h-1q0.5,3,1,6h-1c-0.333,1.67-.667,3.33-1,5-1.333.67-2.667,1.33-4,2q-0.5,1.5-1,3-10,4.005-20,8c-1.4,7.71-1,18.72-1,28v138h1v4h1l-1,10h1v3c0.666,0.33,1.333.67,2,1v7h1q1,3,2,6h1v3c0.666,0.33,1.333.67,2,1,0.333,1.33.667,2.67,1,4,0.666,0.33,1.333.67,2,1,1.333,1.67,2.667,3.33,4,5,1.333,0.33,2.667.67,4,1,0.333,0.67.666,1.33,1,2h2v1h2v1h2v1h2v1h2v1h3c3.614,1.36,12.787,3.82,19,2v-1h6v-1h3v-1h5v-1h8v-1h2v-1c2-.33,4-0.67,6-1v-1h4v-1h3v-1h2v-1h3c0.333-.67.667-1.33,1-2h3c0.333-.67.666-1.33,1-2h2v-1c1.333-.33,2.667-0.67,4-1v-1h3c0.333-.67.666-1.33,1-2h3c0.333-.67.667-1.33,1-2h2v-1h3c0.333-.67.666-1.33,1-2h3v-1h2c0.333-.67.667-1.33,1-2h3c0.333-.67.667-1.33,1-2h3v-1c1.333-.33,2.667-0.67,4-1v-1h2c0.333-.67.667-1.33,1-2h3c0.333-.67.667-1.33,1-2h2c0.333-.67.667-1.33,1-2h2c0.333-.67.667-1.33,1-2h2v-1h2v-1h2v-1h2v-1h2v-1c1-.33,2-0.67,3-1l2-3h3v-1h2v-1h2v-1h2c0.333-.67.667-1.33,1-2h3c0.333-.67.666-1.33,1-2h2c1-1.33,2-2.67,3-4h3v-1h2v-1h2v-1c1.333-.33,2.667-0.67,4-1v-1c1-.33,2-0.67,3-1,0.333-.67.666-1.33,1-2,1.333-.33,2.667-0.67,4-1,0.333-.67.667-1.33,1-2h3v-1h2c0.333-.67.667-1.33,1-2h3c0.333-.67.667-1.33,1-2h2l2-3c1.333-.33,2.667-0.67,4-1,1-1.33,2-2.67,3-4h3c0.333-.67.667-1.33,1-2l9-3c0.333-.67.667-1.33,1-2h2l2-3c1.333-.33,2.667-0.67,4-1l2-3c1.333-.33,2.667-0.67,4-1v-1h2v-1h2v-1h2c0.333-.67.667-1.33,1-2h3v-1h2v-1h2v-1h2v-1c1.333-.33,2.667-0.67,4-1,0.333-.67.667-1.33,1-2h2l2-3h2v-1h2v-1h2v-1h2v-1h2v-1h2c1-1.33,2-2.67,3-4l9-3c0.333-.67.667-1.33,1-2h3v-1h2v-1h2v-1h2v-1c2-.67,4-1.33,6-2v-1c2.666-.33,5.333-0.67,8-1v-1h2v-1l9-3c0.333-.67.667-1.33,1-2h3v-1c2-.67,4-1.33,6-2v-1h4v-1h2v-1c2.333-.33,4.667-0.67,7-1v-1h2c0.333-.67.666-1.33,1-2h3c0.333-.67.667-1.33,1-2q7-1.005,14-2v-1h3v-1h3v-1h3v-1h5v-1h3v-1h3v-1h6v-1c3.333-.33,6.667-0.67,10-1v-1h3v-1h4v-1h13c6.306-1.77,13.752-2,22-2h11v-1h6v-1h11c10.294-.01,20.345-0.2,28,2,5.742,1.65,14.854-.47,20,1q21.5,2.505,43,5v1h5v1h5v1h3v1c3.33,0.33,6.67.67,10,1v1c1.33,0.33,2.67.67,4,1v1c2.67,0.33,5.33.67,8,1v1h3v1h3v1c2.33,0.33,4.67.67,7,1v1h2v1h3v1h2c0.33,0.67.67,1.33,1,2,1.67,0.33,3.33.67,5,1v1h2v1c1.33,0.33,2.67.67,4,1v1h3v1c2,0.67,4,1.33,6,2v1h4c0.67,1,1.33,2,2,3h2v1h2v1h4c0.67,1,1.33,2,2,3h2c0.33,0.67.67,1.33,1,2h1v2c1,0.33,2,.67,3,1,1,1.33,2,2.67,3,4h2c0.67,1,1.33,2,2,3,1.33,0.33,2.67.67,4,1,0.33,0.67.67,1.33,1,2,1.33,0.33,2.67.67,4,1,0.33,1,.67,2,1,3,1.33,0.67,2.67,1.33,4,2v2c0.67,0.33,1.33.67,2,1v1h2c1.3,1.08,1.11,3.5,2,5,0.67,0.33,1.33.67,2,1-0.33,1.67-.67,3.33-1,5h1c0.33,2,.67,4,1,6h-1v2c-0.67.33-1.33,0.67-2,1v3h-1c-0.33,1-.67,2-1,3-3.46.4-8.05,3.38-12,2-5.69-1.99-10.68-6.55-17-8v-2q-4.5-4.005-9-8c-0.33-.67-0.67-1.33-1-2-1.33-.33-2.67-0.67-4-1-0.33-.67-0.67-1.33-1-2h-3c-1-1.33-2-2.67-3-4h-2v-1h-2v-1h-2v-1h-2v-1h-2v-1h-2v-1h-2v-1h-2v-1h-2v-1h-2v-1h-2v-1c-1.33-.33-2.67-0.67-4-1v-1h-2v-1h-3v-1c-1.33-.33-2.67-0.67-4-1v-1q-9-1.995-18-4v-1h-2v-1h-3v-1h-2v-1h-3v-1h-6v-1h-5v-1h-5v-1h-4v-1h-4v-1H969v-1h-4v-1H949v-1H937c-12.578-3.52-38.467-3.63-51,0H875c-8.1,0-16.625.17-23,2H842v1h-4v1h-3v1h-4v1c-3,.33-6,0.67-9,1v1h-3v1h-4v1h-5v1h-4v1h-4v1h-3v1h-2v1c-3,.33-6,0.67-9,1v1h-2v1h-2v1h-2v1h-2v1h-2v1h-2v1c-1.333.33-2.667,0.67-4,1v1h-4v1h-4v1h-2v1h-3v1c-1.333.33-2.667,0.67-4,1v1h-2c-0.334.67-.667,1.33-1,2l-9,3c-0.334.67-.667,1.33-1,2h-3v1h-2v1h-2v1c-1.333.33-2.667,0.67-4,1v1h-2v1h-2v1h-2v1h-2v1c-1.333.33-2.667,0.67-4,1-0.333.67-.667,1.33-1,2-1.667.33-3.334,0.67-5,1-0.333.67-.667,1.33-1,2h-3v1h-2v1h-2l-2,3h-2v1h-2v1h-2v1h-2c-0.333.67-.667,1.33-1,2-1.333.33-2.667,0.67-4,1l-2,3h-2v1h-2v1h-2v1h-2v1h-2v1c-1.333.33-2.667,0.67-4,1-0.334.67-.667,1.33-1,2h-2l-2,3c-1.667.33-3.334,0.67-5,1l-2,3c-1,.33-2,0.67-3,1v1c-1.333.33-2.667,0.67-4,1v1h-2v1h-2v1h-2v1h-2v1h-2l-2,3c-1.333.33-2.667,0.67-4,1-0.333.67-.667,1.33-1,2h-3c-0.333.67-.667,1.33-1,2-1.333.33-2.667,0.67-4,1l-2,3h-2v1h-2v1h-2v1h-2v1h-2v1c-1.333.33-2.667,0.67-4,1-0.333.67-.667,1.33-1,2h-2l-2,3c-1.333.33-2.667,0.67-4,1-0.334.67-.667,1.33-1,2-1.333.33-2.667,0.67-4,1-0.333.67-.667,1.33-1,2-1.333.33-2.667,0.67-4,1v1h-2v1h-2v1h-2v1h-3c-0.333.67-.667,1.33-1,2-2,.67-4,1.33-6,2-0.333.67-.667,1.33-1,2h-2l-2,3h-2v1h-3v1h-2v1h-2c-0.333.67-.667,1.33-1,2h-2l-2,3c-2,.67-4,1.33-6,2v1h-2v1h-2v1h-2v1h-2v1h-2v1h-3c-0.333.67-.667,1.33-1,2h-2v1c-1.333.33-2.667,0.67-4,1v1c-3,.33-6,0.67-9,1v1c-1.333.33-2.667,0.67-4,1v1c-1.667.33-3.334,0.67-5,1-0.334.67-.667,1.33-1,2-1.333.33-2.667,0.67-4,1v1h-2v1q-6.5.495-13,1v1h-3v1h-2v1c-2.667.33-5.334,0.67-8,1v1H470c-11.859,3.27-27.427-.61-36-4-2-.33-4-0.67-6-1v-1h-2v-1h-3q-3-3.495-6-7c-5.108-3.46-9.346-1.43-11-9h-2a12.5,12.5,0,0,0-3-6h-1v-2c-1-.67-2-1.33-3-2-0.333-1.67-.667-3.33-1-5h-1v-2h-1v-2c-0.667-.33-1.333-0.67-2-1q-1-4.5-2-9h-1c-0.333-1.33-.667-2.67-1-4h-1v-8h-1v-4h-1v-4h-1l1-10h-1v-4h-1V1655a1.453,1.453,0,0,0,1-2h-1c-1.62-5.52-1.463-2.06-5-4-0.334-.67-0.667-1.33-1-2h-3v-1h-2v-1h-3v-1c-1.667-.33-3.334-0.67-5-1l-5-6h-1c-0.334-2.33-.667-4.67-1-7h-1c-0.333-1.33-.667-2.67-1-4h-1v-1h1c0.693-4,.443-20.12-1-22-1.611-2.1-5.127-.96-8-2v-1l-13-3c-1-1.33-2-2.67-3-4h-1c-1.192-.76-0.067.06-1-1h-1v-2c-5.449-1.28-8.327-5.05-11-9v-2l-4-3v-2c-1-.67-2-1.33-3-2v-2h-1c-1.683-3.89,1.154-3.77,0-8h-1v-5h-1c-1.937-6.33,3.323-21.66-4-24-4.357-3.78-22.153,1.03-29-1v-1h-4v-1c-3-.33-6-0.67-9-1q-3.5-4.005-7-8h-2l-2-3h-2v-1c-1-.67-2-1.33-3-2v-2c-0.667-.33-1.334-0.67-2-1v-3c-0.667-.33-1.334-0.67-2-1l-3-9v-5h-1v-2c-0.667-.33-1.333-0.67-2-1v-2h-1q-0.5-4.5-1-9h-1v-4h-1v-3h-1v-4h-1q-0.5-4.5-1-9h-1v-9h-1v-3h-1v-10h-1v-4h-1c0.333-1.67.667-3.33,1-5h-1v-4h-1v-7h1q-0.5-3-1-6h-1v-14h-1v-34h-1v-5h-1l1-7v-13a2.622,2.622,0,0,1-1-3h1v-5h1v-29c1.387-4.85-.572-13.56,1-19h1q0.5-6,1-12h1q-0.5-4.5-1-9h1v-5h1v-4h1v-10h1l1-3v-9h1c0.333-1.33.667-2.67,1-4h1v-8h1v-4h1v-4h1c0.333-1.33.667-2.67,1-4h1v-7h1c0.333-1.33.667-2.67,1-4h1c0.333-1.33.667-2.67,1-4,0.666-.33,1.333-0.67,2-1v-3c0.667-.33,1.333-0.67,2-1v-4l5-3v-2c0.667-.33,1.333-0.67,2-1v-1h2c3.961-14.46,36.357-10.07,53-13,1.511-4.05,1.049-11.39,1-17-0.784-.92-0.837-5.37,0-8h1l1-10h1v-2h1v-2c0.667-.33,1.333-0.67,2-1v-3h1c1.872-3.44,3.8-6.98,8-8,1.039-3.85,2.233-3.03,5-5l2-3c2-.67,4-1.33,6-2v-1h3c0.333-.67.667-1.33,1-2h2v-1c7.907-3.6,22.5-4.08,34-4,6.152,0.04,12.087,3.76,18,2v-1h4c0.333-.67.667-1.33,1-2h2v-1c2-.33,4-0.67,6-1v-1h2v-1c2-.33,4-0.67,6-1v-1h8c9.643-2.7,23.379-.51,31,2,2.333,0.33,4.667.67,7,1v1h2v1c1.666,0.33,3.333.67,5,1,1,1.33,2,2.67,3,4h2c0.333,0.67.667,1.33,1,2h2l2,3h2v1c3.3,3.02.341,0.55,2,4h1v2h1Q482.5,1110.5,483,1112Zm379-4v2c3.44,2.02,2.913,3.09,5,6l4,3v3h1v2h1v3c0.667,0.33,1.333.67,2,1v2h1v2h1c0.333,2.67.666,5.33,1,8h1v9h1v4h1q-0.5,4.5-1,9c1,0.67,2,1.33,3,2v1h2v1h6v1h7v-1q6.5,0.495,13,1v1h6c7.047,2.24,11.109,7.37,19,9,0.6,2.88,1.591,4.04,3,6h1v3h1v2h1v3c0.667,0.33,1.333.67,2,1v2h1c0.333,1.33.667,2.67,1,4h1v3c1,0.67,2,1.33,3,2l1,10h1v2h1v7h1c0.333,1.33.667,2.67,1,4h1v7h1v2h1v8h1v3h1v3h1v10h1v10h1v13h1v3h1q0.5,13.5,1,27v7h1v31c0,19.15.638,39.67-3,55a2.6,2.6,0,0,0,1,3v12h-1v3h-1v8h-1v11h-1v3h-1v10h-1v3h-1v10h-1q-1,3-2,6h-1c0.333,1.67.667,3.33,1,5h-1q-0.5,4.5-1,9h-1q-1,3-2,6h-1c0.333,1.67.667,3.33,1,5h-1q-1,3-2,6h-1v3c-1,.67-2,1.33-3,2v3h-1v2h-1v3l-5,3q-0.5,1.5-1,3c-1.333.33-2.667,0.67-4,1-0.333.67-.667,1.33-1,2-1.333.33-2.667,0.67-4,1v1h-2v1c-2,.67-4,1.33-6,2v1h-3v1h-6c-6.88,1.98-18.426,1.05-27,1q-0.5,1.5-1,3c-1.25,1.47-1.743,7.96-1,11a2.626,2.626,0,0,1,1,3h-1v5h-1v2h-1v5h-1q-0.5,4.5-1,9h-1c-0.333,1.33-.667,2.67-1,4-0.667.33-1.333,0.67-2,1-0.333,1.33-.667,2.67-1,4h-2c-0.561,1.06-1.8,1.66-2,2v3c-1,.33-2,0.67-3,1-1,1.67-2,3.33-3,5-1.333.33-2.667,0.67-4,1l-2,3h-2v1h-2v1h-3v1h-2v1h-4v1h-3v1h-3v1h-9v1q-19-.495-38-1v1c-2,.67-4,1.33-6,2v1c-1.667.33-3.334,0.67-5,1v1h-2v1h-3v1h-4v1H752a67.638,67.638,0,0,1-24-4c-2.333-.33-4.667-0.67-7-1-1.333-1.67-2.667-3.33-4-5h-2l-8-9-4-3v-2c-1-.67-2-1.33-3-2-0.333-1.67-.667-3.33-1-5-0.667-.33-1.334-0.67-2-1v-3h-1v-7c-0.667-.33-1.334-0.67-2-1v-3h-1c-0.105-.76,1.656-2.6,1-5h-1v-5h-1a2.574,2.574,0,0,1,1-3V1146a2.591,2.591,0,0,1-1-3h1v-5h1v-4h1v-10h1v-2c0.666-.33,1.333-0.67,2-1v-2c1-.67,2-1.33,3-2v-3h1v-2h1v-3h1q3-3.495,6-7h2c1-1.33,2-2.67,3-4h2l2-3h2c0.333-.67.667-1.33,1-2,3.324-2.04,6.941-.79,11-2,5.189-1.55,15.949-6.35,24-4v1h7v1h6v1h4v1h4v1h3c0.333,0.67.667,1.33,1,2l9,3v1h7v-1q15.5-.495,31-1v1h4v1h5v1h4v1h4v1h2v1c1.333,0.33,2.667.67,4,1,0.333,0.67.667,1.33,1,2Zm1520,152c3.09,0.71,4.25,1.95,5,5,3.39,0.95,4.53,3.14,7,5v1c2,0.33,4,.67,6,1,0.67,1,1.33,2,2,3,1.33,0.33,2.67.67,4,1v1h5v1h3v1h3v1c2.67,0.33,5.33.67,8,1v1q16.005,0.495,32,1v-1h4v-1h4v-1h6v-1h4v-1h5v-1c4.46-1.77,5.62-1.13,6-7-1.14-1.14-.4,0-1-2-1.88-.82-2.62-1.48-5-2-0.68-3.36-2.2-4.82-4-7h-1c-0.33-1-.67-2-1-3-1-.67-2-1.33-3-2v-2c-0.67-.33-1.33-0.67-2-1v-2h-1v-2c-1.33-.67-2.67-1.33-4-2v-2h-1c-1.38-1.46-.49-1.34-3-2-0.7-3.37-2.2-4.82-4-7h-1c-0.33-1-.67-2-1-3-1-.67-2-1.33-3-2v-2c-0.67-.33-1.33-0.67-2-1v-2c-1.33-1-2.67-2-4-3v-2c-0.67-.33-1.33-0.67-2-1v-1h-2c-1.3-1.07-1.08-3.62-2-5-1-.67-2-1.33-3-2v-3q-3.495-3-7-6v-2c-1.33-1-2.67-2-4-3-1.98-3.27,1.65-3.46-4-5v-2a15.509,15.509,0,0,1-5-5v-2q-3.495-3-7-6v-2c-1-.67-2-1.33-3-2-0.33-1.33-.67-2.67-1-4-1-.33-2-0.67-3-1-0.33-1-.67-2-1-3-1.33-1-2.67-2-4-3-0.33-1.33-.67-2.67-1-4q-3.495-3-7-6c-0.33-1-.67-2-1-3h-5c-1.33,1.67-2.67,3.33-4,5h-1v3h-1v2h-1v3c-0.67.33-1.33,0.67-2,1v2h-1c-0.67,2-1.33,4-2,6h-1v3h-1c-0.12,1.3,1.78,1.69,1,4h-1v2h-1l-3,9h-1c-0.13,1.32,1.64,1.64,1,4h-1q-0.495,6-1,12c-0.48,1.71-1.92,6.78-1,10h1v13h1c0.67,2,1.33,4,2,6h1v7h1c0.33,1.33.67,2.67,1,4h1v2c0.67,0.33,1.33.67,2,1v2c1.33,1,2.67,2,4,3v2c1,0.33,2,.67,3,1v1C2380.78,1257.57,2381.21,1257.17,2382,1260Zm-615,470c1.13,4.33,3.27,3.46,5,6,0.33,1.33.67,2.67,1,4,1,0.67,2,1.33,3,2q1.5,6.495,3,13c-2.32.87-4.41,1.02-8,1-1.89,1.43-8.35.21-13,0-1.01-2.03-2.94-4.08-4-6-0.33-1.33-.67-2.67-1-4-1.62-2.3-13.96-7.84-20-6v1h-5v1c-5.18.95-9.02,4.76-9,11v4h1a10.22,10.22,0,0,1,2,4c3.05,0.67,5.25,3,8,4,2.67,0.33,5.33.67,8,1v1h3v1h3v1h6v1h3v1h4v1c2,0.67,4,1.33,6,2v1h3v1c2,0.67,4,1.33,6,2,0.67,1,1.33,2,2,3,1,0.33,2,.67,3,1v2c2.99,2.62.43,3.56,2,7,0.67,0.33,1.33.67,2,1,0.33,1.67.67,3.33,1,5h1c-0.33,2-.67,4-1,6h-1v8h-1c-0.67,2-1.33,4-2,6h-1v3h-1c-2.14,2.4-2.84,1.04-4,5a13.284,13.284,0,0,0-6,3v1c-2,.67-4,1.33-6,2v1c-3.33.33-6.67,0.67-10,1v1h-3v1h-6v1h-1v-1h-8v-1h-9v-1h-3v-1h-2v-1c-1.67-.33-3.33-0.67-5-1-0.33-.67-0.67-1.33-1-2h-2v-1h-2c-0.33-.67-0.67-1.33-1-2-1-.33-2-0.67-3-1v-3h-1c-0.33-1-.67-2-1-3-4.41-.99-5.16-3.39-5-9h-1v-4h-1c-0.33-1-.67-2-1-3h1c3.34-3.88,16.97-2.01,22-1v4h1v2c1.67,1.33,3.33,2.67,5,4,0.33,1,.67,2,1,3h2c3.19,3.78,7.6.71,13,2v1c2.98,0.73,6.31-1.45,8-2h5v-1c4.58-2.3,7.03-4.01,7-11-1.65-1.4-2.48-3.46-3-6-1-.33-2-0.67-3-1-0.33-.67-0.67-1.33-1-2-2.33-.33-4.67-0.67-7-1v-1h-3v-1q-5.505-1.005-11-2v-1q-6-1.005-12-2c-0.33-.67-0.67-1.33-1-2h-2v-1h-3c-0.33-.67-0.67-1.33-1-2-3.4-1.88-3.55,1.46-5-4-4.92-1.29-2.78-2.67-5-6-1-.67-2-1.33-3-2-0.33-1.33-.67-2.67-1-4h-1v-5h-1c-1.25-4.41,1.14-10.42,2-13v-4h1v-2h1v-3c0.67-.33,1.33-0.67,2-1,0.33-1.33.67-2.67,1-4,2.33-1.67,4.67-3.33,7-5h2v-1c2-.67,4-1.33,6-2v-1c2.67-.33,5.33-0.67,8-1v-1h3v-1c6.43-1.99,19.16,1.76,23,3h5v1c1.67,0.33,3.33.67,5,1v1C1763.88,1728.39,1764.34,1729.24,1767,1730Zm896,56v2c2.13,1.21,2.18,2.25,5,3v2c1.8,0.94,1.57,1.38,4,2v1h6c0.33-1,.67-2,1-3a1.44,1.44,0,0,1-1-2c1.67-1,3.33-2,5-3v-2h1v-9h1v-2h1v-7h1c0.33-1,.67-2,1-3,7.28-.79,13.87-1.74,20,1-0.33,1.33-.67,2.67-1,4h-1v8h-1v3h-1c-0.33,2.33-.67,4.67-1,7h-1v2h-1v7h-1v2c-0.67.33-1.33,0.67-2,1-0.33,1.67-.67,3.33-1,5-1.67,1-3.33,2-5,3-1.14,1.59.01,2.31-2,4,0.33,1,.67,2,1,3h1c1.84,2.79,1.2,4.06,5,5v2c1,0.67,2,1.33,3,2v1c2.96,2.11,4.95,1.88,6,6h-1v1h-2v1h-19v-1h-2c-2.68-1.34-3.45-2.94-8-3-5.61-.08-6.42,1.8-10,3q-7.995,1.005-16,2c-1.7.48-6.78,1.92-10,1v-1h-7v-1h-4v-1h-4v-1c-2-.67-4-1.33-6-2v-1h-2v-1c-1.79-1.43-2.39-2.27-5-3-0.33-1.33-.67-2.67-1-4-0.67-.33-1.33-0.67-2-1v-3c-0.67-.33-1.33-0.67-2-1v-2h-1c-0.33-3.67-.67-7.33-1-11h-1v-4h1v-3h1v-4c0.67-.33,1.33-0.67,2-1v-2c0.67-.33,1.33-0.67,2-1v-2h1c1-1.33,2-2.67,3-4h2c1-1.33,2-2.67,3-4h2c1-1.33,2-2.67,3-4h1v-5c-2.74-2.19-9.08-14.42-7-21h1q1.005-5.505,2-11c3.15-1.86,4.02-4.92,8-6,0.33-1,.67-2,1-3,8.8-4.08,18.9-7.73,30-4h4c0.33,0.67.67,1.33,1,2,1.33,0.33,2.67.67,4,1,0.67,1,1.33,2,2,3h2q4.005,4.5,8,9,0.495,7.995,1,16h-1v2h-1c-0.33,1.67-.67,3.33-1,5-0.67.33-1.33,0.67-2,1v3c-1,.67-2,1.33-3,2v2c-1.05,1.3-3.59,1.09-5,2-0.33.67-.67,1.33-1,2h-2c-0.67,1-1.33,2-2,3-1.11.75-4.36,0.85-5,2v5C2659.21,1784.19,2659.99,1785.33,2663,1786Zm712-50v2c2.13,1.21,2.18,2.25,5,3,0.5,2.11.85,3.56,2,5,0.67,0.33,1.33.67,2,1l3,9c0.67,0.33,1.33.67,2,1v2h1v9h1v3h1q-0.495,6.495-1,13c0.33,2,.67,4,1,6h-1c-0.33,1.33-.67,2.67-1,4h-1v7c-1.67,1-3.33,2-5,3v7c-1.67,1.33-3.33,2.67-5,4v1h-2c-0.33,1-.67,2-1,3-1.67,1-3.33,2-5,3-0.33,1-.67,2-1,3h-2c-0.33.67-.67,1.33-1,2h-2c-0.33.67-.67,1.33-1,2h-2v1h-2v1h-4v1h-5v1h-3v1h-3v1q-6.495.495-13,1v-1h-7v-1h-6v-1h-4v-1h-4v-1h-3v-1h-2c-0.67-1-1.33-2-2-3h-2c-0.33-.67-0.67-1.33-1-2h-2v-1c-2.73-1.73-1.83.95-3-3-3.09-.71-4.25-1.95-5-5-5.81-1.59-3.36-5.01-6-9-1.33-1-2.67-2-4-3-0.33-2.33-.67-4.67-1-7h-1c-0.67-2-1.33-4-2-6h-1v-11q0.495-9.495,1-19h1c0.67-2,1.33-4,2-6h1v-3c0.67-.33,1.33-0.67,2-1v-2h1v-2h1v-2h1v-2h1c0.33-.67.67-1.33,1-2h2c1-1.67,2-3.33,3-5h2c1-1.33,2-2.67,3-4h2v-1h2v-1h2v-1h2c0.33-.67.67-1.33,1-2h3v-1h2v-1c1.33-.33,2.67-0.67,4-1v-1c5.87-2.56,21.98-3.12,29-1h5v1h3v1c1.33,0.33,2.67.67,4,1v1h3c0.33,0.67.67,1.33,1,2h2v1c1.67,0.33,3.33.67,5,1v1C3370.47,1732.86,3371.61,1735.04,3375,1736Zm-1908,75c-1.06,3.93-2.36,2.88-5,5-0.33,1-.67,2-1,3h-1c-0.33.67-.67,1.33-1,2h-2c-0.67,1-1.33,2-2,3h-3v1h-2c-0.33.67-.67,1.33-1,2h-3c-0.33.67-.67,1.33-1,2h-3v1h-2v1h-3v1h-6c-9.15,2.63-24.06,1-35,1h-13v-1c-1.67-.33-3.33-0.67-5-1a12.6,12.6,0,0,1-1-5c2.27-2.61,1-21.58,1-27v-50c0-8.36-.88-18.44,0-24,1.67-.33,3.33-0.67,5-1v-1c2.33,0.33,4.67.67,7,1h21q7.5-.495,15-1v1h10v1h4v1h4v1h2v1l9,3c0.67,1.33,1.33,2.67,2,4h2c1.33,1.67,2.67,3.33,4,5h2c0.33,0.67.67,1.33,1,2h1v2c1,0.67,2,1.33,3,2,0.33,1.67.67,3.33,1,5,0.67,0.33,1.33.67,2,1,0.67,3,1.33,6,2,9h1v3c0.67,0.33,1.33.67,2,1v21h-1c-0.33,3-.67,6-1,9h-1v5h-1v2c-1.36,2.68-3.17,4.33-4,8C1469,1810.33,1468,1810.67,1467,1811Zm79-15a70.274,70.274,0,0,1,22,0c0.62,1.74,1.06,6.35,2,8,1,0.67,2,1.33,3,2,4.41,4.51,6.74,7.13,16,7v-1h4v-1c10.93-2.74,11-15.1,11-29v-56c2.61-1.38,1.69-1.77,6-2v-1c1.67,0.33,3.33.67,5,1v-1c3,0.33,6,.67,9,1,1.58,2.75,2.47,1.8,3,6-2.05,2.4-1,15.35-1,20,0,13.27,2.04,36.16-1,47-1.56,5.56,1.33,12.29-2,16-0.93,3.6-3.88,5.47-6,8h-1v2c-0.67.33-1.33,0.67-2,1-1,1.33-2,2.67-3,4h-2c-0.67,1-1.33,2-2,3-1.33.33-2.67,0.67-4,1v1h-6c-2.85.86-7.95,3.43-13,2v-1c-4.85-1.37-10.17,1-14-1-0.33-.67-0.67-1.33-1-2-1.33-.33-2.67-0.67-4-1-0.33-.67-0.67-1.33-1-2h-3c-0.33-.67-0.67-1.33-1-2-1.33-.33-2.67-0.67-4-1-1.29-.99-1.12-3.6-2-5-0.67-.33-1.33-0.67-2-1v-3c-0.67-.33-1.33-0.67-2-1v-2h-1Q1547.5,1804.5,1546,1796Zm395-73c25.3,1.17,58.3.46,82,1a11.807,11.807,0,0,0,2,2v15c-0.67.33-1.33,0.67-2,1-3.55,3.49-23.73,1.91-30,3-3.05,5.94-2,17.04-2,26v56c0.42,0.58,1.63.15,1,2h-1c-0.72,2.76-.28,2.24-3,3-3.03,2.82-14.61.69-18,0a7.545,7.545,0,0,0-2-3c1.54-8.62,1-20.79,1-31v-51c-1.1-.59-1.58-1.75-2-2h-2v-1h-9c-6.92-.01-13.29-0.74-19-1-1.64-3.1-1.9-1.8-2-7,1.88-2.06.22-6.23,0-10a8.173,8.173,0,0,0,2-2h4v-1Zm251,109c-6.96.63-21.99,2.8-25-3v-6h-1c-2.44-6.53-.95-7.83-10-8-2.02-1.83-8.32-1-12-1-11.19,0-26.08-1.02-30,6-0.33,3.33-.67,6.67-1,10h-1c-3.62,4.26-14.15,3.13-22,3-1.38-2.61-1.77-1.69-2-6,3.17-2.01,4.79-6.17,6-10v-6h1c0.33-1.33.67-2.67,1-4h1v-2c0.67-.33,1.33-0.67,2-1v-3h1v-7h1v-2h1v-2c0.67-.33,1.33-0.67,2-1,0.33-3.33.67-6.67,1-10h1v-2c0.67-.33,1.33-0.67,2-1,0.33-1.67.67-3.33,1-5h1v-7h1v-2c0.67-.33,1.33-0.67,2-1,0.33-1.67.67-3.33,1-5h1v-2h1c0.33-2.67.67-5.33,1-8h1c0.33-1.67.67-3.33,1-5,0.67-.33,1.33-0.67,2-1v-2h1v-3l3-9c1-.33,2-0.67,3-1v-1h6v-1a2.636,2.636,0,0,1,3,1h7v-1c3,0.33,6,.67,9,1,1.47,2.37,3.02,1.66,4,3,0.33,1.67.67,3.33,1,5h1c0.33,1.33.67,2.67,1,4h1q1.5,7.005,3,14c1,0.67,2,1.33,3,2v2h1c0.33,3.67.67,7.33,1,11,1,0.67,2,1.33,3,2v3h1v2h1v6h1v3c0.67,0.33,1.33.67,2,1v3h1v2h1v7h1v2c0.67,0.33,1.33.67,2,1v3h1v2h1v7h1c0.33,1.33.67,2.67,1,4h1v2c0.67,0.33,1.33.67,2,1,0.33,3,.67,6,1,9h1v2c0.52,0.98,2.74.53,2,3h-1v2Zm157-108c0.33,1.33.67,2.67,1,4-3.47,1.98-13.05,13.67-14,18h-2a46.363,46.363,0,0,1-4,6c-1,.67-2,1.33-3,2v2c-1,.67-2,1.33-3,2v2c-0.67.33-1.33,0.67-2,1v3c-1,.67-2,1.33-3,2v1c-0.67.33-1.33,0.67-2,1v2l-6,3c-0.33,2-.67,4-1,6,2.01,1.72.84,2.32,2,4,0.67,0.33,1.33.67,2,1,0.67,1,1.33,2,2,3h1v2c1.85,2.57,3.84,1.68,5,6h2c1.39,0.91.17,2.36,1,4h1v2c0.67,0.33,1.33.67,2,1v1c1.67,1.33,3.33,2.67,5,4v2c0.67,0.33,1.33.67,2,1,1,1.33,2,2.67,3,4,1.33,1,2.67,2,4,3v2q4.5,4.005,9,8v4c-1,.33-2,0.67-3,1-1.1,1.01-18.04,1.97-21,1v-1c-1.67-.33-3.33-0.67-5-1q-3.495-4.995-7-10h-2c-0.33-.67-0.67-1.33-1-2h-1v-2h-1v-2c-0.67-.33-1.33-0.67-2-1-0.33-1.33-.67-2.67-1-4q-3.495-3-7-6v-2c-1-.67-2-1.33-3-2-2.61-2.9-.89-3.88-6-5v-2a15.725,15.725,0,0,0-6-1c-1.92,10.46-1.01,26.5,0,37a21.939,21.939,0,0,0-5,4c-6.25.07-13.19-.1-18-1a7.545,7.545,0,0,0-2-3c1.53-8.63,1-20.78,1-31v-52c0-7.66-.82-15.96,0-21a15.725,15.725,0,0,1,6-1v-1q7.5,0.495,15,1c1.58,2.75,2.47,1.8,3,6-1.61,1.81-1,6.65-1,10v26c2.61,1.38,1.69,1.77,6,2,1.76-2.75,5.3-2.69,7-5v-2c0.67-.33,1.33-0.67,2-1v-3c0.67-.33,1.33-0.67,2-1v-2c1.67-1.33,3.33-2.67,5-4v-3h1c0.33-.67.67-1.33,1-2h2c0.33-1,.67-2,1-3,1.67-1.33,3.33-2.67,5-4,0.33-1.67.67-3.33,1-5,1-.67,2-1.33,3-2v-2h1c1.73-2.72-.96-1.84,3-3C2327.32,1722.23,2343.11,1723.38,2349,1724Zm94,2v5h-1v94h1v5c-6.25,2.93-8.24,3.07-18,3v-1h-3v-1h-1c-2.68-7.35-1-23.55-1-33v-72c2.61-1.38,1.69-1.77,6-2v-1c1.67,0.33,3.33.67,5,1v-1c3,0.33,6,.67,9,1,0.33,0.67.67,1.33,1,2h2Zm455,44a16.487,16.487,0,0,1,4-7c0.67-.33,1.33-0.67,2-1,0.33-1.67.67-3.33,1-5q6.495-6,13-12v-3h1v-2h1v-3c1.67-1.33,3.33-2.67,5-4q3-3.495,6-7h2v-1h2v-1c3-.33,6-0.67,9-1v1h4v-1c3.33,0.33,6.67.67,10,1v4c-2.53,1.38-3.82,3.18-7,4-1.13,4.32-3.19,3.45-5,6v2c-0.67.33-1.33,0.67-2,1v2c-1,.67-2,1.33-3,2v2h-1v3c-1.33,1-2.67,2-4,3-4.68,4.72-11.33,10.57-13,18-1,.33-2,0.67-3,1-0.37,3.87-1.54,4.14-2,8,1.99,1.73.84,2.3,2,4,1.33,1,2.67,2,4,3v3q4.005,3.495,8,7v2c1,0.67,2,1.33,3,2v2c1.67,1,3.33,2,5,3v3c1,0.33,2,.67,3,1v1c0.67,0.33,1.33.67,2,1v2c1.33,1,2.67,2,4,3v3c0.67,0.33,1.33.67,2,1v2c1,0.67,2,1.33,3,2,0.33,0.67.67,1.33,1,2,1,0.33,2,.67,3,1v4c-3.72.74-23.09,2.61-26,0h-2c-0.33-.67-0.67-1.33-1-2-1-.33-2-0.67-3-1v-3h-1v-2c-1.67-1-3.33-2-5-3q-2.505-4.5-5-9-4.5-4.005-9-8c-0.33-1.67-.67-3.33-1-5h-1c-0.33-.67-0.67-1.33-1-2h-2v-1c-3.04-2.71-1.83-4.29-7-5v-1c-1,.33-2,0.67-3,1-1.12,11.88-.59,27.14,0,39-0.67.33-1.33,0.67-2,1-3.37,3.49-14.17,1.97-19,1-3.68-7.17-2-22.55-2-33v-73c1-.33,2-0.67,3-1,3.21-3.02,13.11-1.2,18-1,0.33,1,.67,2,1,3,1.39,1.82.01,5.91,0,10-0.02,7.9-1.68,29.24,2,33v1h3v-1h3Zm136-47q7.005,0.495,14,1c3.68,7.17,2,22.55,2,33v73a21.1,21.1,0,0,0-3,3h-17c-2.32-3.46-3.65-.94-4-7,2.24-2.55,1-20.72,1-26,0-24.15.21-50.47-1-73,1.26-.67,2.78-2.89,3-3h5v-1Zm94,0h4v1h24c3.67-.33,7.33-0.67,11-1v1c5.73,1.52,12.37-1.11,17,1,4.05,1.85,6.97,6.95,10,10,1.33,1,2.67,2,4,3,1.43,2.05,5.33,11.78,4,16h-1v3h-1c-1.03,2.62-.59,5.85-2,8-0.67.33-1.33,0.67-2,1-2.73,2.94-4.6,4.51-5,10,1.14,1.14.4,0,1,2,5.49,2.05,12.5,5.06,14,11,1.6,1.59,4.21,10.72,3,15h-1v8h-1c-0.67,2-1.33,4-2,6h-1v2c-0.67.33-1.33,0.67-2,1-0.33,1-.67,2-1,3-1.33.33-2.67,0.67-4,1-0.33.67-.67,1.33-1,2h-2v1h-2c-0.33.67-.67,1.33-1,2h-4v1h-3v1h-7c-4.96,1.39-13.44,1-20,1-11.12,0-24.51.79-34-1-0.33-1-.67-2-1-3-0.92-1.18,0-20.58,0-26v-53c0-8.57-.95-19.3,0-25,1.34-.46-0.33-0.51,1-1h5v-1Zm-483,16c-3.78,4.18-9.58,4.21-10,12,2.83,2.48,3.52,7.17,5,11a17.852,17.852,0,0,0,9,2v-1h3c0.67-1,1.33-2,2-3,2.75-1.96,3.99-1.15,5-5,1.6-1.65,1.99-5.61,2-9-1.61-1.33-2.07-2.85-4-4C2654.91,1739.87,2649.51,1738.98,2645,1739Zm503,4c-1,1.33-2,2.67-3,4h-1c-0.57,1.65.97,1.84,1,2v15c1,0.67,2,1.33,3,2,1.65,1.71,14.57,3.46,19,2,2.22-.73,4.22-2.35,7-3,1-1.33,2-2.67,3-4h1v-3h1c-0.84-5.68-1.74-9.58-6-12C3168.95,1741.92,3156.3,1742.9,3148,1743Zm157,53v2q3.495,4.005,7,8c6.2,4.44,12.22,7,23,7h9v-1h2v-1c1.67-.33,3.33-0.67,5-1,0.33-.67.67-1.33,1-2,2.53-2.35,5.21-4.99,9-6,0.33-1,.67-2,1-3h1v-2h1c0.67-2,1.33-4,2-6h1v-8h1v-13h-1v-2h-1v-2h-1c-0.33-1.67-.67-3.33-1-5-0.67-.33-1.33-0.67-2-1v-2h-1v-2q-3-3.495-6-7h-2v-1h-2v-1h-3v-1c-1.33-.33-2.67-0.67-4-1v-1c-11.68-4.57-33.01,4.93-37,11-0.33,1.67-.67,3.33-1,5-1.33,1-2.67,2-4,3-0.33,1.33-.67,2.67-1,4h-1c-1.84,5.12,1.2,23.79,2,28C3303,1795.33,3304,1795.67,3305,1796Zm-1900-52v1h-3v1c-2.34,2.66-1,12.42-1,17v47c1,0.33,2,.67,3,1,1.56,1.49,10.96,3.18,15,2v-1h6v-1c3.33-.67,6.67-1.33,10-2v-1c2-.67,4-1.33,6-2,0.67-1,1.33-2,2-3h2c1-1.33,2-2.67,3-4,0.67-.33,1.33-0.67,2-1,1.3-2.04-.16-4.44,1-7,0.67-.33,1.33-0.67,2-1,0.33-1.67.67-3.33,1-5h1c-0.33-1.33-.67-2.67-1-4h1c1.28-5.56-1.18-16.09-3-19-0.67-.33-1.33-0.67-2-1-0.33-1.33-.67-2.67-1-4-1-.67-2-1.33-3-2-1-1.33-2-2.67-3-4h-2c-0.33-.67-0.67-1.33-1-2-1.67-.33-3.33-0.67-5-1C1426.78,1744.88,1416.7,1743.78,1405,1744Zm720,48c1.33,0.33,2.67.67,4,1v1c5.24,1.83,20.35-.76,25-1,1.09-2.08,1.61-1.77,2-5-6.33-4.04-1.69-4.83-4-11h-1v-2h-1c-0.67-2-1.33-4-2-6h-1v-8c-1.29-3.27-4.37-4.8-9-5-0.67,1-1.33,2-2,3h-1c-0.67,2-1.33,4-2,6h-1v7h-1c-0.67,2-1.33,4-2,6h-1v2h-1v6c-0.67.33-1.33,0.67-2,1v5Zm1020,19h2c0.33,0.67.67,1.33,1,2h6c8.19,2.32,21.9.01,27-4,0.67-1.33,1.33-2.67,2-4,1-.67,2-1.33,3-2v-7c-1.67-1.33-3.33-2.67-5-4v-1l-9-3v-1c-4.92-1.55-23.97.41-26,2-0.33,1-.67,2-1,3h-1v1h1C3145.65,1799.5,3144.47,1807.18,3145,1811Zm-512-21v1h-3v1c-0.67.33-1.33,0.67-2,1v2c-1,.67-2,1.33-3,2-0.33,3-.67,6-1,9h1v3h1v1c2.33,1.67,4.67,3.33,7,5h4c8.08,2.57,14.38-.64,21-2a10.587,10.587,0,0,0,1-4c-1.15-.9-1.15-2.37-2-3-0.97-.72-4.04-0.85-5-2-0.33-1-.67-2-1-3-1-.33-2-0.67-3-1-0.67-1.33-1.33-2.67-2-4h-2v-1c-0.67-.33-1.33-0.67-2-1v-2c-0.7-.89-2.07-0.82-3-2h-6Z" fill="#fff" mask="url(#mask)"/>
</svg>
